<svg width="32" height="32" viewBox="0 0 32 32" fill="none" xmlns="http://www.w3.org/2000/svg">
<circle cx="16" cy="16" r="16" fill="#1E293B"/>
<path d="M16.1354 9.87729C16.1354 9.87729 16.1354 11.2054 17.4635 12.5336C18.7916 13.8617 20.1198 13.8617 20.1198 13.8617M10.0702 20.9893L12.8593 20.5909C13.2616 20.5334 13.6345 20.347 13.9218 20.0596L21.4479 12.5336C22.1814 11.8 22.1814 10.6108 21.4479 9.87729L20.1198 8.54915C19.3863 7.81565 18.197 7.81565 17.4635 8.54915L9.93743 16.0752C9.65006 16.3626 9.46365 16.7354 9.40618 17.1377L9.00774 19.9268C8.91919 20.5466 9.45045 21.0779 10.0702 20.9893Z" stroke="#F1F5F9" stroke-width="2" stroke-linecap="round"/>
<path d="M13.498 24H22.998" stroke="#F1F5F9" stroke-width="2" stroke-linecap="round"/>
</svg>
