<svg width="249" height="154" viewBox="0 0 249 154" fill="none" xmlns="http://www.w3.org/2000/svg">
<circle cx="53.6473" cy="106.824" r="14.8235" fill="#E8EAF2"/>
<ellipse cx="54.0366" cy="102.244" rx="1.03661" ry="1.24393" fill="#828282"/>
<ellipse cx="60.2568" cy="102.244" rx="1.03661" ry="1.24393" fill="#828282"/>
<circle cx="38.8235" cy="117.941" r="14.8235" fill="white"/>
<ellipse cx="40.0366" cy="113.244" rx="1.03661" ry="1.24393" fill="#828282"/>
<ellipse cx="46.2568" cy="113.244" rx="1.03661" ry="1.24393" fill="#828282"/>
<circle cx="72.1766" cy="117.941" r="14.8235" fill="white"/>
<ellipse cx="73.0366" cy="113.244" rx="1.03661" ry="1.24393" fill="#828282"/>
<ellipse cx="79.2563" cy="113.244" rx="1.03661" ry="1.24393" fill="#828282"/>
<circle cx="105.824" cy="117.941" r="14.8235" fill="white"/>
<ellipse cx="105.037" cy="112.244" rx="1.03661" ry="1.24393" fill="#828282"/>
<ellipse cx="111.256" cy="112.244" rx="1.03661" ry="1.24393" fill="#828282"/>
<circle cx="14.8235" cy="14.8235" r="14.8235" transform="matrix(-1 0 0 1 214.823 92)" fill="#E8EAF2"/>
<ellipse cx="1.03661" cy="1.24393" rx="1.03661" ry="1.24393" transform="matrix(-1 0 0 1 200.647 101)" fill="#828282"/>
<ellipse cx="1.03661" cy="1.24393" rx="1.03661" ry="1.24393" transform="matrix(-1 0 0 1 194.427 101)" fill="#828282"/>
<circle cx="14.8235" cy="14.8235" r="14.8235" transform="matrix(-1 0 0 1 229.647 103.117)" fill="white"/>
<ellipse cx="1.03661" cy="1.24393" rx="1.03661" ry="1.24393" transform="matrix(-1 0 0 1 214.647 112)" fill="#828282"/>
<ellipse cx="1.03661" cy="1.24393" rx="1.03661" ry="1.24393" transform="matrix(-1 0 0 1 208.427 112)" fill="#828282"/>
<circle cx="14.8235" cy="14.8235" r="14.8235" transform="matrix(-1 0 0 1 196.294 103.117)" fill="white"/>
<ellipse cx="1.03661" cy="1.24393" rx="1.03661" ry="1.24393" transform="matrix(-1 0 0 1 181.647 112)" fill="#828282"/>
<ellipse cx="1.03661" cy="1.24393" rx="1.03661" ry="1.24393" transform="matrix(-1 0 0 1 175.427 112)" fill="#828282"/>
<circle cx="14.8235" cy="14.8235" r="14.8235" transform="matrix(-1 0 0 1 162.647 103.117)" fill="white"/>
<ellipse cx="1.03661" cy="1.24393" rx="1.03661" ry="1.24393" transform="matrix(-1 0 0 1 149.647 111)" fill="#828282"/>
<ellipse cx="1.03661" cy="1.24393" rx="1.03661" ry="1.24393" transform="matrix(-1 0 0 1 143.427 111)" fill="#828282"/>
<circle cx="124.946" cy="68.3855" r="25.614" fill="#FF9950"/>
<path d="M113.419 67.7451H137.753" stroke="white" stroke-width="3.20175" stroke-linecap="round"/>
<path d="M125.586 79.9111V55.5778" stroke="white" stroke-width="3.20175" stroke-linecap="round"/>
<path d="M88.3004 50.1319L76.2794 45.7144" stroke="#74E099" stroke-width="3" stroke-linecap="round"/>
<path d="M162.086 50.1319L174.107 45.7144" stroke="#74E099" stroke-width="3" stroke-linecap="round"/>
<path d="M103.174 36.3688L99.3317 28.6846" stroke="#FFE350" stroke-width="3" stroke-linecap="round"/>
<path d="M149.279 36.3688L153.121 28.6846" stroke="#FFE350" stroke-width="3" stroke-linecap="round"/>
<path d="M124.946 21L124.946 32.5263" stroke="#74E099" stroke-width="3" stroke-linecap="round"/>
<path d="M87.5184 36.1078C87.4283 36.0714 87.4283 35.8231 87.5184 35.7867C88.0786 35.5603 89.0194 35.0848 89.5114 34.3006C90.0004 33.5213 90.2935 32.0427 90.4305 31.1817C90.4527 31.0417 90.6052 31.0383 90.63 31.1774C90.7833 32.0384 91.105 33.5223 91.6071 34.3006C92.1055 35.0733 93.0483 35.5641 93.5838 35.7939C93.6714 35.8314 93.6714 36.0631 93.5838 36.1007C93.0483 36.3304 92.1055 36.8212 91.6071 37.5939C91.105 38.3723 90.7833 39.8561 90.63 40.7172C90.6052 40.8562 90.4527 40.8529 90.4305 40.7128C90.2935 39.8518 90.0004 38.3732 89.5114 37.5939C89.0194 36.8098 88.0786 36.3342 87.5184 36.1078Z" fill="#FFEE95"/>
<path d="M133.624 32.266C133.534 32.2296 133.534 31.9813 133.624 31.9449C134.184 31.7185 135.125 31.243 135.617 30.4589C136.106 29.6795 136.399 28.2009 136.536 27.3399C136.558 27.1999 136.711 27.1965 136.735 27.3356C136.889 28.1966 137.21 29.6805 137.713 30.4589C138.211 31.2315 139.154 31.7223 139.689 31.9521C139.777 31.9897 139.777 32.2213 139.689 32.2589C139.154 32.4886 138.211 32.9794 137.713 33.7521C137.21 34.5305 136.889 36.0143 136.735 36.8754C136.711 37.0144 136.558 37.0111 136.536 36.871C136.399 36.01 136.106 34.5314 135.617 33.7521C135.125 32.968 134.184 32.4924 133.624 32.266Z" fill="#9DE8B7"/>
<g clip-path="url(#clip0_935_10061)">
<path d="M162.669 29.2625C162.567 29.2212 162.567 28.939 162.669 28.8976C163.306 28.6402 164.376 28.0998 164.935 27.2085C165.491 26.3227 165.824 24.6421 165.979 23.6635C166.005 23.5042 166.178 23.5004 166.206 23.6585C166.38 24.6372 166.746 26.3238 167.317 27.2085C167.883 28.0867 168.955 28.6446 169.564 28.9057C169.663 28.9484 169.663 29.2117 169.564 29.2544C168.955 29.5155 167.883 30.0735 167.317 30.9517C166.746 31.8364 166.38 33.523 166.206 34.5017C166.178 34.6597 166.005 34.6559 165.979 34.4967C165.824 33.5181 165.491 31.8375 164.935 30.9517C164.376 30.0604 163.306 29.5199 162.669 29.2625Z" fill="#FFEE95"/>
</g>
<defs>
<clipPath id="clip0_935_10061">
<rect width="8.73408" height="13.725" fill="white" transform="translate(162.086 22.2803)"/>
</clipPath>
</defs>
</svg>
