<svg width="249" height="154" viewBox="0 0 249 154" fill="none" xmlns="http://www.w3.org/2000/svg">
<path d="M149.483 26.9443C149.348 26.8897 149.348 26.5166 149.483 26.4619C150.325 26.1216 151.739 25.407 152.478 24.2287C153.213 23.0576 153.653 20.8356 153.859 19.5418C153.892 19.3313 154.122 19.3263 154.159 19.5352C154.389 20.8292 154.873 23.059 155.627 24.2287C156.376 25.3898 157.793 26.1274 158.598 26.4726C158.729 26.5291 158.729 26.8772 158.598 26.9336C157.793 27.2789 156.376 28.0165 155.627 29.1776C154.873 30.3473 154.389 32.5771 154.159 33.871C154.122 34.08 153.892 34.075 153.859 33.8645C153.653 32.5706 153.213 30.3487 152.478 29.1776C151.739 27.9992 150.325 27.2846 149.483 26.9443Z" fill="#FFE350"/>
<g clip-path="url(#clip0_935_12495)">
<path d="M158.682 19.5383C158.601 19.5055 158.601 19.2816 158.682 19.2488C159.188 19.0446 160.036 18.6159 160.479 17.9089C160.92 17.2062 161.185 15.8731 161.308 15.0968C161.328 14.9704 161.466 14.9674 161.488 15.0928C161.626 15.8692 161.916 17.2071 162.369 17.9089C162.818 18.6055 163.668 19.0481 164.151 19.2552C164.23 19.2891 164.23 19.498 164.151 19.5319C163.668 19.739 162.818 20.1816 162.369 20.8782C161.916 21.58 161.626 22.9179 161.488 23.6943C161.466 23.8197 161.328 23.8167 161.308 23.6904C161.185 22.9141 160.92 21.5809 160.479 20.8782C160.036 20.1712 159.188 19.7425 158.682 19.5383Z" fill="#9DE8B7"/>
</g>
<path d="M90.8384 26.9443C90.9737 26.8897 90.9737 26.5166 90.8384 26.4619C89.9966 26.1216 88.5828 25.407 87.8434 24.2287C87.1086 23.0576 86.6681 20.8356 86.4623 19.5418C86.4288 19.3313 86.1997 19.3263 86.1625 19.5352C85.9321 20.8292 85.4487 23.059 84.6941 24.2287C83.9452 25.3898 82.5284 26.1274 81.7236 26.4726C81.592 26.5291 81.592 26.8772 81.7236 26.9336C82.5284 27.2789 83.9452 28.0165 84.6941 29.1776C85.4487 30.3473 85.9321 32.5771 86.1625 33.871C86.1997 34.08 86.4288 34.075 86.4623 33.8645C86.6681 32.5706 87.1086 30.3487 87.8434 29.1776C88.5828 27.9992 89.9965 27.2846 90.8384 26.9443Z" fill="#FFE350"/>
<g clip-path="url(#clip1_935_12495)">
<path d="M81.6389 19.5383C81.7201 19.5055 81.7201 19.2816 81.6389 19.2488C81.1338 19.0446 80.2855 18.6159 79.8419 17.9089C79.401 17.2062 79.1367 15.8731 79.0132 15.0968C78.9931 14.9704 78.8557 14.9674 78.8333 15.0928C78.6951 15.8692 78.405 17.2071 77.9523 17.9089C77.5029 18.6055 76.6529 19.0481 76.17 19.2552C76.091 19.2891 76.091 19.498 76.17 19.5319C76.6529 19.739 77.5029 20.1816 77.9523 20.8782C78.405 21.58 78.6951 22.9179 78.8333 23.6943C78.8557 23.8197 78.9931 23.8167 79.0132 23.6904C79.1367 22.9141 79.401 21.5809 79.8419 20.8782C80.2855 20.1712 81.1338 19.7425 81.6389 19.5383Z" fill="#9DE8B7"/>
</g>
<path fill-rule="evenodd" clip-rule="evenodd" d="M127.187 105.625H121.187V132.312L106 141H142.373L127.187 132.312V105.625Z" fill="#DBEAFE" fill-opacity="0.8"/>
<g filter="url(#filter0_b_935_12495)">
<path d="M199.144 52H49.613C45.1758 52 42.2737 56.6497 44.2229 60.6358L63.116 99.2715C65.1295 103.389 69.3126 106 73.8961 106H173.78C178.267 106 182.379 103.497 184.439 99.5106L204.474 60.7553C206.538 56.7617 203.64 52 199.144 52Z" fill="#DBEAFE" fill-opacity="0.8"/>
<circle cx="125.331" cy="60.331" r="22.331" fill="#FFA15E"/>
<path fill-rule="evenodd" clip-rule="evenodd" d="M122.099 57C122.099 58.6223 123.415 59.9372 125.037 59.9372C126.659 59.9372 127.975 58.6223 127.975 57H122.099Z" fill="#FF5934"/>
<rect x="114.753" y="49" width="8.81488" height="5.87659" rx="1.17532" fill="#252525"/>
<rect x="126.506" y="49" width="8.81488" height="5.87659" rx="1.17532" fill="#252525"/>
<rect x="123.568" y="51.9385" width="2.93829" height="1.46915" fill="#252525"/>
<circle cx="75" cy="63" r="22" fill="#FFA15E"/>
<path fill-rule="evenodd" clip-rule="evenodd" d="M79 56.5283C79.5071 58.1058 80.9832 59.0423 82.2975 58.6203C83.6118 58.1983 84.2667 56.5774 83.7606 54.9996L79 56.5283Z" fill="#FF5934"/>
<rect x="68.6123" y="52.5078" width="8.68421" height="5.78947" rx="1.15789" transform="rotate(-19.2826 68.6123 52.5078)" fill="#252525"/>
<rect x="79.5408" y="48.6846" width="8.68421" height="5.78947" rx="1.15789" transform="rotate(-19.2826 79.5408 48.6846)" fill="#252525"/>
<rect x="77.7644" y="52.3711" width="2.89474" height="1.44737" transform="rotate(-19.2826 77.7644 52.3711)" fill="#252525"/>
<circle cx="22" cy="22" r="22" transform="matrix(-0.987367 0.15845 0.15845 0.987367 193.444 36)" fill="#FFA15E"/>
<path fill-rule="evenodd" clip-rule="evenodd" d="M170.233 55.4521C169.982 57.09 168.673 58.2487 167.309 58.0402C165.944 57.8317 165.041 56.3351 165.29 54.6971L170.233 55.4521Z" fill="#FF5934"/>
<rect width="8.68421" height="5.78947" rx="1.15789" transform="matrix(-0.984301 -0.176496 -0.176496 0.984301 179.852 49.8359)" fill="#252525"/>
<rect width="8.68421" height="5.78947" rx="1.15789" transform="matrix(-0.984301 -0.176496 -0.176496 0.984301 168.456 47.793)" fill="#252525"/>
<rect width="2.89474" height="1.44737" transform="matrix(-0.984301 -0.176496 -0.176496 0.984301 170.794 51.1514)" fill="#252525"/>
</g>
<g filter="url(#filter1_b_935_12495)">
<path d="M203 63H45.5L62.1628 103.925C64.003 108.445 68.397 111.4 73.2769 111.4H174.554C179.373 111.4 183.725 108.517 185.604 104.079L203 63Z" fill="#FBEC9C" fill-opacity="0.8"/>
</g>
<defs>
<filter id="filter0_b_935_12495" x="39.6055" y="34" width="169.547" height="76" filterUnits="userSpaceOnUse" color-interpolation-filters="sRGB">
<feFlood flood-opacity="0" result="BackgroundImageFix"/>
<feGaussianBlur in="BackgroundImageFix" stdDeviation="2"/>
<feComposite in2="SourceAlpha" operator="in" result="effect1_backgroundBlur_935_12495"/>
<feBlend mode="normal" in="SourceGraphic" in2="effect1_backgroundBlur_935_12495" result="shape"/>
</filter>
<filter id="filter1_b_935_12495" x="21.5" y="39" width="205.5" height="96.4004" filterUnits="userSpaceOnUse" color-interpolation-filters="sRGB">
<feFlood flood-opacity="0" result="BackgroundImageFix"/>
<feGaussianBlur in="BackgroundImageFix" stdDeviation="12"/>
<feComposite in2="SourceAlpha" operator="in" result="effect1_backgroundBlur_935_12495"/>
<feBlend mode="normal" in="SourceGraphic" in2="effect1_backgroundBlur_935_12495" result="shape"/>
</filter>
<clipPath id="clip0_935_12495">
<rect width="6.92841" height="10.8875" fill="white" transform="translate(158.393 14)"/>
</clipPath>
<clipPath id="clip1_935_12495">
<rect width="6.92841" height="10.8875" fill="white" transform="matrix(-1 0 0 1 81.9285 14)"/>
</clipPath>
</defs>
</svg>
