<svg width="249" height="154" viewBox="0 0 249 154" fill="none" xmlns="http://www.w3.org/2000/svg">
<path d="M149.483 26.9443C149.348 26.8897 149.348 26.5166 149.483 26.4619C150.325 26.1216 151.739 25.407 152.478 24.2287C153.213 23.0576 153.653 20.8356 153.859 19.5418C153.892 19.3313 154.122 19.3263 154.159 19.5352C154.389 20.8292 154.873 23.059 155.627 24.2287C156.376 25.3898 157.793 26.1274 158.598 26.4726C158.729 26.5291 158.729 26.8772 158.598 26.9336C157.793 27.2789 156.376 28.0165 155.627 29.1776C154.873 30.3473 154.389 32.5771 154.159 33.871C154.122 34.08 153.892 34.075 153.859 33.8645C153.653 32.5706 153.213 30.3487 152.478 29.1776C151.739 27.9992 150.325 27.2846 149.483 26.9443Z" fill="#FFE350"/>
<g clip-path="url(#clip0_935_12495)">
<path d="M158.682 19.5383C158.601 19.5055 158.601 19.2816 158.682 19.2488C159.188 19.0446 160.036 18.6159 160.479 17.9089C160.92 17.2062 161.185 15.8731 161.308 15.0968C161.328 14.9704 161.466 14.9674 161.488 15.0928C161.626 15.8692 161.916 17.2071 162.369 17.9089C162.818 18.6055 163.668 19.0481 164.151 19.2552C164.23 19.2891 164.23 19.498 164.151 19.5319C163.668 19.739 162.818 20.1816 162.369 20.8782C161.916 21.58 161.626 22.9179 161.488 23.6943C161.466 23.8197 161.328 23.8167 161.308 23.6904C161.185 22.9141 160.92 21.5809 160.479 20.8782C160.036 20.1712 159.188 19.7425 158.682 19.5383Z" fill="#9DE8B7"/>
</g>
<path d="M90.8384 26.9443C90.9737 26.8897 90.9737 26.5166 90.8384 26.4619C89.9966 26.1216 88.5828 25.407 87.8434 24.2287C87.1086 23.0576 86.6681 20.8356 86.4623 19.5418C86.4288 19.3313 86.1997 19.3263 86.1625 19.5352C85.9321 20.8292 85.4487 23.059 84.6941 24.2287C83.9452 25.3898 82.5284 26.1274 81.7236 26.4726C81.592 26.5291 81.592 26.8772 81.7236 26.9336C82.5284 27.2789 83.9452 28.0165 84.6941 29.1776C85.4487 30.3473 85.9321 32.5771 86.1625 33.871C86.1997 34.08 86.4288 34.075 86.4623 33.8645C86.6681 32.5706 87.1086 30.3487 87.8434 29.1776C88.5828 27.9992 89.9965 27.2846 90.8384 26.9443Z" fill="#FFE350"/>
<g clip-path="url(#clip1_935_12495)">
<path d="M81.6389 19.5383C81.7201 19.5055 81.7201 19.2816 81.6389 19.2488C81.1338 19.0446 80.2855 18.6159 79.8419 17.9089C79.401 17.2062 79.1367 15.8731 79.0132 15.0968C78.9931 14.9704 78.8557 14.9674 78.8333 15.0928C78.6951 15.8692 78.405 17.2071 77.9523 17.9089C77.5029 18.6055 76.6529 19.0481 76.17 19.2552C76.091 19.2891 76.091 19.498 76.17 19.5319C76.6529 19.739 77.5029 20.1816 77.9523 20.8782C78.405 21.58 78.6951 22.9179 78.8333 23.6943C78.8557 23.8197 78.9931 23.8167 79.0132 23.6904C79.1367 22.9141 79.401 21.5809 79.8419 20.8782C80.2855 20.1712 81.1338 19.7425 81.6389 19.5383Z" fill="#9DE8B7"/>
</g>
<path fill-rule="evenodd" clip-rule="evenodd" d="M127.187 105.625H121.187V132.312L106 141H142.373L127.187 132.312V105.625Z" fill="#DBEAFE" fill-opacity="0.8"/>
<g filter="url(#filter0_b_935_12495)">
<path d="M199.144 52H49.613C45.1758 52 42.2737 56.6497 44.2229 60.6358L63.116 99.2715C65.1295 103.389 69.3126 106 73.8961 106H173.78C178.267 106 182.379 103.497 184.439 99.5106L204.474 60.7553C206.538 56.7617 203.64 52 199.144 52Z" fill="#DBEAFE" fill-opacity="0.8"/>
<circle cx="125.331" cy="60.331" r="22.331" fill="#FFA15E"/>
<path fill-rule="evenodd" clip-rule="evenodd" d="M115.5 47.3042C115.5 46.5839 116.084 46 116.804 46H122.639C123.359 46 123.943 46.5839 123.943 47.3042V48.4199H126.757V47.3042C126.757 46.5839 127.341 46 128.061 46H133.896C134.616 46 135.2 46.5839 135.2 47.3042V50.3245C135.2 51.0448 134.616 51.6287 133.896 51.6287H128.061C127.341 51.6287 126.757 51.0448 126.757 50.3245V50.2023H123.943V50.3245C123.943 51.0448 123.359 51.6287 122.639 51.6287H116.804C116.084 51.6287 115.5 51.0448 115.5 50.3245V47.3042Z" fill="#252525"/>
<path d="M128.064 52.9561H122.89C122.514 52.9561 122.211 53.276 122.293 53.6437C122.544 54.7671 123.327 56.2165 125.56 56.2165C127.646 56.2165 128.439 54.7324 128.652 53.6036C128.719 53.2497 128.424 52.9561 128.064 52.9561Z" fill="#FF5934"/>
<circle cx="75" cy="63" r="22" fill="#FFA15E"/>
<path fill-rule="evenodd" clip-rule="evenodd" d="M78.2443 50.5057C78.1198 49.8279 78.5684 49.1775 79.2461 49.0531L83.7553 48.2251C84.4331 48.1007 85.0834 48.5492 85.2079 49.227L85.7298 52.0692C85.8542 52.747 85.4057 53.3973 84.7279 53.5218L80.2187 54.3498C79.5409 54.4742 78.8906 54.0256 78.7661 53.3479L78.7637 53.3346L75.6898 53.899L75.711 54.0148C75.8355 54.6926 75.3869 55.3429 74.7091 55.4674L69.2187 56.4755C68.5409 56.6 67.8905 56.1514 67.7661 55.4736L67.2442 52.6315C67.1197 51.9537 67.5683 51.3033 68.2461 51.1789L73.7366 50.1707C74.4143 50.0463 75.0647 50.4948 75.1892 51.1726L75.3818 52.2218L78.4557 51.6573L78.2443 50.5057Z" fill="#252525"/>
<path d="M80.3798 55.7242L75.5117 56.6181C75.1572 56.6832 74.928 57.0365 75.0687 57.3683C75.4985 58.3822 76.4864 59.6107 78.5876 59.2249C80.5504 58.8644 81.0403 57.3308 81.0453 56.2319C81.0469 55.8874 80.7187 55.662 80.3798 55.7242Z" fill="#FF5934"/>
<circle cx="22" cy="22" r="22" transform="matrix(-1 0 0 1 197 41)" fill="#FFA15E"/>
<path fill-rule="evenodd" clip-rule="evenodd" d="M169.524 50.5057C169.648 49.8279 169.199 49.1775 168.522 49.0531L164.013 48.2251C163.335 48.1007 162.684 48.5492 162.56 49.227L162.038 52.0692C161.914 52.747 162.362 53.3973 163.04 53.5218L167.549 54.3498C168.227 54.4742 168.877 54.0256 169.002 53.3479L169.004 53.3346L172.078 53.899L172.057 54.0148C171.932 54.6926 172.381 55.3429 173.059 55.4674L178.549 56.4755C179.227 56.6 179.877 56.1514 180.002 55.4736L180.524 52.6315C180.648 51.9537 180.2 51.3033 179.522 51.1789L174.031 50.1707C173.353 50.0463 172.703 50.4948 172.579 51.1726L172.386 52.2218L169.312 51.6573L169.524 50.5057Z" fill="#252525"/>
<path d="M167.388 55.7242L172.256 56.6181C172.611 56.6832 172.84 57.0365 172.699 57.3683C172.269 58.3822 171.281 59.6107 169.18 59.2249C167.217 58.8644 166.728 57.3308 166.722 56.2319C166.721 55.8874 167.049 55.662 167.388 55.7242Z" fill="#FF5934"/>
</g>
<g filter="url(#filter1_b_935_12495)">
<path d="M203.311 63H45.3711L62.9607 99.2401C64.9676 103.375 69.16 106 73.7563 106H173.872C178.368 106 182.487 103.487 184.544 99.4888L203.311 63Z" fill="#FBEC9C" fill-opacity="0.75"/>
</g>
<defs>
<filter id="filter0_b_935_12495" x="39.6055" y="34" width="169.547" height="76" filterUnits="userSpaceOnUse" color-interpolation-filters="sRGB">
<feFlood flood-opacity="0" result="BackgroundImageFix"/>
<feGaussianBlur in="BackgroundImageFix" stdDeviation="2"/>
<feComposite in2="SourceAlpha" operator="in" result="effect1_backgroundBlur_935_12495"/>
<feBlend mode="normal" in="SourceGraphic" in2="effect1_backgroundBlur_935_12495" result="shape"/>
</filter>
<filter id="filter1_b_935_12495" x="21.3711" y="39" width="205.94" height="91" filterUnits="userSpaceOnUse" color-interpolation-filters="sRGB">
<feFlood flood-opacity="0" result="BackgroundImageFix"/>
<feGaussianBlur in="BackgroundImageFix" stdDeviation="12"/>
<feComposite in2="SourceAlpha" operator="in" result="effect1_backgroundBlur_935_12495"/>
<feBlend mode="normal" in="SourceGraphic" in2="effect1_backgroundBlur_935_12495" result="shape"/>
</filter>
<clipPath id="clip0_935_12495">
<rect width="6.92841" height="10.8875" fill="white" transform="translate(158.393 14)"/>
</clipPath>
<clipPath id="clip1_935_12495">
<rect width="6.92841" height="10.8875" fill="white" transform="matrix(-1 0 0 1 81.9285 14)"/>
</clipPath>
</defs>
</svg>
