<svg width="24" height="24" viewBox="0 0 24 24" fill="none" xmlns="http://www.w3.org/2000/svg">
<rect width="24" height="24" rx="8" fill="#F1F5F9"/>
<path d="M6 7.33398H14.6667" stroke="#94A3B8" stroke-width="1.33333" stroke-linecap="round"/>
<path d="M6 10.667H9.66667" stroke="#94A3B8" stroke-width="1.33333" stroke-linecap="round"/>
<path d="M6 14.001H9.33333" stroke="#94A3B8" stroke-width="1.33333" stroke-linecap="round"/>
<path d="M14.9934 11.6302C14.9934 11.6302 14.9934 12.3113 15.6745 12.9924C16.3556 13.6735 17.0367 13.6735 17.0367 13.6735M11.8831 17.3287L13.3134 17.1244C13.5197 17.0949 13.7109 16.9993 13.8583 16.8519L17.7178 12.9924C18.094 12.6162 18.094 12.0064 17.7178 11.6302L17.0367 10.9491C16.6605 10.573 16.0507 10.573 15.6745 10.9491L11.815 14.8086C11.6676 14.956 11.572 15.1472 11.5425 15.3535L11.3382 16.7838C11.2928 17.1017 11.5653 17.3741 11.8831 17.3287Z" stroke="#94A3B8" stroke-width="1.33333" stroke-linecap="round"/>
</svg>
