<svg width="24" height="24" viewBox="0 0 24 24" fill="none" xmlns="http://www.w3.org/2000/svg">
<path d="M5.99993 17L4.49993 18.5C4.1666 17.8333 3.79993 16.2 4.99993 15C6.19993 13.8 7.49993 14.1667 7.99993 14.5L11.4999 11L13.4999 13L9.99993 16.5C10.1666 16.8333 10.2999 17.8 9.49993 19C8.69993 20.2 6.83327 20.1667 5.99993 20L7.49993 18.5V17H5.99993Z" fill="#CAD5E1"/>
<path d="M18.8741 7.08453L20.3741 5.58453C20.7074 6.2512 21.0741 7.88453 19.8741 9.08453C18.6741 10.2845 17.3741 9.91787 16.8741 9.58453L13.3741 13.0845L11.3741 11.0845L14.8741 7.58453C14.7074 7.2512 14.5741 6.28453 15.3741 5.08453C16.1741 3.88453 18.0408 3.91787 18.8741 4.08453L17.3741 5.58453V7.08453H18.8741Z" fill="#CAD5E1"/>
<rect x="7.51953" y="8.84552" width="3.19143" height="16.0943" rx="1" transform="rotate(-45 7.51953 8.84552)" fill="#FF9950"/>
<rect x="2.87891" y="9.29291" width="2" height="4.70556" rx="1" transform="rotate(-45 2.87891 9.29291)" fill="#575D68"/>
<rect x="4" y="9.41418" width="2.90862" height="2.93585" transform="rotate(-45 4 9.41418)" fill="#575D68"/>
<rect x="5" y="7.41418" width="4.62753" height="4.70556" rx="1" transform="rotate(-45 5 7.41418)" fill="#575D68"/>
<path d="M8 4.40001L6.5 5.89999L7.5 8.49996L10 5.99996C10.9378 5.06212 10.1166 5.8834 12.0731 5.98913C12.2424 5.99829 12.3331 5.80169 12.2203 5.67502C9.89974 3.06775 8.64136 3.91898 8 4.40001Z" fill="#575D68"/>
</svg>
