<svg width="24" height="24" viewBox="0 0 24 24" fill="none" xmlns="http://www.w3.org/2000/svg">
<path fill-rule="evenodd" clip-rule="evenodd" d="M3.90006 8.6248C3.90006 8.2798 4.03506 7.9348 4.29006 7.6648C4.54306 7.4129 4.88555 7.27148 5.24256 7.27148C5.59958 7.27148 5.94206 7.4129 6.19506 7.6648L12.0001 13.4698L17.7901 7.6648C18.0431 7.41291 18.3855 7.27148 18.7426 7.27148C19.0996 7.27148 19.4421 7.41291 19.6951 7.6648C19.947 7.9178 20.0884 8.26028 20.0884 8.6173C20.0884 8.97432 19.947 9.3168 19.6951 9.5698L12.9451 16.3198C12.6921 16.5717 12.3496 16.7131 11.9926 16.7131C11.6355 16.7131 11.2931 16.5717 11.0401 16.3198L4.29006 9.5698C4.03506 9.3148 3.90006 8.9698 3.90006 8.6248Z" fill="#686360"/>
</svg>
