<svg width="186" height="78" viewBox="0 0 186 78" fill="none" xmlns="http://www.w3.org/2000/svg">
<circle cx="33" cy="42" r="12" fill="#E8EAF2"/>
<ellipse cx="32.8392" cy="40.007" rx="0.839161" ry="1.00699" fill="#828282"/>
<ellipse cx="37.8743" cy="40.007" rx="0.839161" ry="1.00699" fill="#828282"/>
<circle cx="12" cy="12" r="12" transform="matrix(-1 0 0 1 166 29)" fill="#E8EAF2"/>
<ellipse cx="0.839161" cy="1.00699" rx="0.839161" ry="1.00699" transform="matrix(-1 0 0 1 155 38)" fill="#828282"/>
<ellipse cx="0.839161" cy="1.00699" rx="0.839161" ry="1.00699" transform="matrix(-1 0 0 1 149.965 38)" fill="#828282"/>
<circle cx="21" cy="51" r="12" fill="white"/>
<ellipse cx="20.8392" cy="49.007" rx="0.839161" ry="1.00699" fill="#828282"/>
<ellipse cx="25.8743" cy="49.007" rx="0.839161" ry="1.00699" fill="#828282"/>
<circle cx="48" cy="51" r="12" fill="white"/>
<ellipse cx="47.8392" cy="49.007" rx="0.839161" ry="1.00699" fill="#828282"/>
<ellipse cx="52.8743" cy="49.007" rx="0.839161" ry="1.00699" fill="#828282"/>
<circle cx="12" cy="12" r="12" transform="matrix(-1 0 0 1 150 39)" fill="white"/>
<ellipse cx="0.839161" cy="1.00699" rx="0.839161" ry="1.00699" transform="matrix(-1 0 0 1 139 48)" fill="#828282"/>
<ellipse cx="0.839161" cy="1.00699" rx="0.839161" ry="1.00699" transform="matrix(-1 0 0 1 133.965 48)" fill="#828282"/>
<circle cx="12" cy="12" r="12" transform="matrix(-1 0 0 1 177 39)" fill="white"/>
<ellipse cx="0.839161" cy="1.00699" rx="0.839161" ry="1.00699" transform="matrix(-1 0 0 1 166 48)" fill="#828282"/>
<ellipse cx="0.839161" cy="1.00699" rx="0.839161" ry="1.00699" transform="matrix(-1 0 0 1 160.965 48)" fill="#828282"/>
<circle cx="93" cy="42" r="20" fill="#FF9950"/>
<path d="M84 41.5H103" stroke="white" stroke-width="2.5" stroke-linecap="round"/>
<path d="M93.5 51V32" stroke="white" stroke-width="2.5" stroke-linecap="round"/>
<path d="M64.3865 27.7472L55.0002 24.2979" stroke="#74E099" stroke-width="3" stroke-linecap="round"/>
<path d="M122 27.7472L131.387 24.2979" stroke="#74E099" stroke-width="3" stroke-linecap="round"/>
<path d="M76 17L73 11" stroke="#FFE350" stroke-width="3" stroke-linecap="round"/>
<path d="M112 17L115 11" stroke="#FFE350" stroke-width="3" stroke-linecap="round"/>
<path d="M93 5L93 14" stroke="#74E099" stroke-width="3" stroke-linecap="round"/>
<g clip-path="url(#clip0_935_9931)">
<path d="M63.6527 16.7962C63.5824 16.7678 63.5824 16.574 63.6527 16.5456C64.0901 16.3687 64.8247 15.9975 65.2089 15.3852C65.5907 14.7767 65.8196 13.6221 65.9265 12.9499C65.9439 12.8405 66.063 12.8379 66.0823 12.9465C66.202 13.6188 66.4532 14.7774 66.8453 15.3852C67.2344 15.9885 67.9706 16.3717 68.3887 16.5511C68.4572 16.5805 68.4572 16.7613 68.3887 16.7907C67.9706 16.9701 67.2344 17.3533 66.8453 17.9566C66.4532 18.5644 66.202 19.723 66.0823 20.3953C66.063 20.5039 65.9439 20.5013 65.9265 20.3919C65.8196 19.7196 65.5907 18.5651 65.2089 17.9566C64.8247 17.3443 64.0901 16.9731 63.6527 16.7962Z" fill="#FFEE95"/>
</g>
<g clip-path="url(#clip1_935_9931)">
<path d="M99.6527 13.7962C99.5824 13.7678 99.5824 13.574 99.6527 13.5456C100.09 13.3687 100.825 12.9975 101.209 12.3852C101.591 11.7767 101.82 10.6221 101.927 9.94987C101.944 9.84049 102.063 9.83788 102.082 9.94646C102.202 10.6188 102.453 11.7774 102.845 12.3852C103.234 12.9885 103.971 13.3717 104.389 13.5511C104.457 13.5805 104.457 13.7613 104.389 13.7907C103.971 13.9701 103.234 14.3533 102.845 14.9566C102.453 15.5644 102.202 16.723 102.082 17.3953C102.063 17.5039 101.944 17.5013 101.927 17.3919C101.82 16.7196 101.591 15.5651 101.209 14.9566C100.825 14.3443 100.09 13.9731 99.6527 13.7962Z" fill="#9DE8B7"/>
</g>
<g clip-path="url(#clip2_935_9931)">
<path d="M122.332 11.452C122.252 11.4197 122.252 11.1994 122.332 11.1671C122.829 10.9661 123.664 10.5441 124.101 9.84819C124.535 9.15654 124.795 7.84428 124.917 7.08016C124.937 6.95583 125.072 6.95286 125.094 7.07627C125.23 7.84046 125.515 9.15737 125.961 9.84819C126.403 10.5339 127.24 10.9695 127.715 11.1734C127.793 11.2068 127.793 11.4124 127.715 11.4457C127.24 11.6496 126.403 12.0852 125.961 12.7709C125.515 13.4618 125.23 14.7787 125.094 15.5429C125.072 15.6663 124.937 15.6633 124.917 15.539C124.795 14.7749 124.535 13.4626 124.101 12.7709C123.664 12.075 122.829 11.653 122.332 11.452Z" fill="#FFEE95"/>
</g>
<defs>
<clipPath id="clip0_935_9931">
<rect width="6" height="9.42857" fill="white" transform="translate(63 12)"/>
</clipPath>
<clipPath id="clip1_935_9931">
<rect width="6" height="9.42857" fill="white" transform="translate(99 9)"/>
</clipPath>
<clipPath id="clip2_935_9931">
<rect width="6.81976" height="10.7168" fill="white" transform="translate(122 6)"/>
</clipPath>
</defs>
</svg>
