<svg width="209" height="227" viewBox="0 0 209 227" fill="none" xmlns="http://www.w3.org/2000/svg">
<circle cx="104.5" cy="60" r="60" fill="#FFAE74"/>
<ellipse cx="92.3311" cy="52.0272" rx="4.1958" ry="5.03497" fill="#4F4E57"/>
<ellipse cx="117.507" cy="52.0272" rx="4.1958" ry="5.03497" fill="#4F4E57"/>
<path fill-rule="evenodd" clip-rule="evenodd" d="M74.5 48.7383C74.5 46.5291 76.2909 44.7383 78.5 44.7383H96.3953C98.6044 44.7383 100.395 46.5291 100.395 48.7383V52.1601H109.025V48.7383C109.025 46.5291 110.816 44.7383 113.025 44.7383H130.92C133.13 44.7383 134.92 46.5291 134.92 48.7383V58.0018C134.92 60.211 133.13 62.0018 130.92 62.0018H113.025C110.816 62.0018 109.025 60.211 109.025 58.0018V57.6269H100.395V58.0018C100.395 60.211 98.6044 62.0018 96.3953 62.0018H78.5C76.2909 62.0018 74.5 60.211 74.5 58.0018V48.7383Z" fill="#252525"/>
<path d="M112.5 70H96.6332C95.478 70 94.5507 70.9814 94.8021 72.1089C95.5705 75.5547 97.9739 80 104.823 80C111.22 80 113.652 75.4481 114.305 71.9862C114.509 70.9007 113.605 70 112.5 70Z" fill="#FF5934"/>
<path d="M81.488 146.072C81.7227 145.539 82.0747 145.101 82.544 144.76C83.0133 144.419 83.536 144.227 84.112 144.184L87.248 143.928V164.056H82.224V153.976L77.968 164.056H74.032L70.032 154.52V164.056H65.712V145.72L70.032 145.368L75.984 159L81.488 146.072ZM97.99 160.504C99.3767 160.504 100.507 159.96 101.382 158.872C102.278 157.784 102.726 156.205 102.726 154.136C102.726 152.216 102.342 150.765 101.574 149.784C100.806 148.781 99.814 148.28 98.598 148.28C97.19 148.28 96.0273 148.824 95.11 149.912C94.1927 151 93.734 152.579 93.734 154.648C93.734 156.568 94.1287 158.029 94.918 159.032C95.7073 160.013 96.7313 160.504 97.99 160.504ZM89.414 154.904C89.414 152.813 89.7873 151.011 90.534 149.496C91.302 147.981 92.3367 146.797 93.638 145.944C94.9607 145.069 96.454 144.536 98.118 144.344C98.6727 144.301 99.0887 144.28 99.366 144.28C100.966 144.28 102.395 144.632 103.654 145.336C104.934 146.04 105.937 147.107 106.662 148.536C107.409 149.965 107.782 151.736 107.782 153.848C107.782 156.131 107.345 158.072 106.47 159.672C105.617 161.272 104.454 162.467 102.982 163.256C101.531 164.045 99.91 164.44 98.118 164.44C96.454 164.44 94.9607 164.077 93.638 163.352C92.3367 162.648 91.302 161.581 90.534 160.152C89.7873 158.723 89.414 156.973 89.414 154.904ZM116.551 160.216C117.554 160.173 118.429 159.864 119.175 159.288C119.943 158.691 120.53 157.901 120.935 156.92C121.341 155.939 121.543 154.872 121.543 153.72C121.543 152.077 121.159 150.744 120.391 149.72C119.623 148.675 118.589 148.152 117.287 148.152C117.138 148.152 116.893 148.173 116.551 148.216L114.055 148.632V160.312L116.551 160.216ZM109.927 145.72L116.551 144.376C117.042 144.269 117.607 144.216 118.247 144.216C119.719 144.216 121.074 144.6 122.311 145.368C123.57 146.136 124.562 147.203 125.287 148.568C126.034 149.933 126.407 151.48 126.407 153.208C126.407 155.171 125.949 156.984 125.031 158.648C124.114 160.312 122.898 161.635 121.383 162.616C119.869 163.576 118.258 164.056 116.551 164.056H112.167C111.549 164.056 111.015 163.832 110.567 163.384C110.141 162.957 109.927 162.435 109.927 161.816V145.72ZM135.639 150.2L134.199 156.344L137.111 156.152L135.639 150.2ZM132.951 146.104C133.057 145.699 133.26 145.368 133.559 145.112C133.879 144.835 134.252 144.664 134.679 144.6L138.039 144.056L144.887 164.056H139.703L138.391 159.992L133.015 160.184L131.799 164.056H127.607L132.951 146.104Z" fill="#1E293B"/>
<path d="M10.6877 186.904H1.09365V185.5H4.96365V183.97H6.81765V185.5H10.6877V186.904ZM16.0697 187.804V189.334H13.7657V193.006H11.9117V184.096H13.7657V187.804H16.0697ZM9.82365 190.144C9.82365 191.8 8.27565 192.79 5.88165 192.79C3.50565 192.79 1.93965 191.8 1.93965 190.144C1.93965 188.488 3.50565 187.462 5.88165 187.462C8.27565 187.462 9.82365 188.488 9.82365 190.144ZM3.72165 190.144C3.72165 190.99 4.56765 191.458 5.88165 191.458C7.24965 191.458 8.05965 190.99 8.05965 190.144C8.05965 189.298 7.24965 188.812 5.88165 188.812C4.56765 188.812 3.72165 189.298 3.72165 190.144ZM5.12565 198.856H14.3057V200.242H3.30765V196.282H11.9297V195.112H3.27165V193.744H13.7657V197.578H5.12565V198.856ZM34.2356 192.376H32.3816V184.114H34.2356V192.376ZM29.6816 188.326C29.6816 190.468 27.8636 191.98 25.3976 191.98C22.9676 191.98 21.1496 190.468 21.1496 188.326C21.1496 186.166 22.9676 184.654 25.3976 184.654C27.8636 184.654 29.6816 186.166 29.6816 188.326ZM22.9496 188.326C22.9496 189.622 24.0116 190.468 25.3976 190.468C26.8196 190.468 27.8816 189.622 27.8816 188.326C27.8816 187.03 26.8196 186.184 25.3976 186.184C24.0116 186.184 22.9496 187.03 22.9496 188.326ZM34.7216 198.73V200.188H23.6156V195.922H32.3996V194.572H23.5796V193.114H34.2356V197.29H25.4336V198.73H34.7216ZM44.3382 189.982C40.5942 189.982 38.5422 188.992 38.5422 187.192C38.5422 185.374 40.5942 184.384 44.3382 184.384C48.0642 184.384 50.1342 185.374 50.1342 187.192C50.1342 188.992 48.0642 189.982 44.3382 189.982ZM44.3382 185.77C41.8002 185.77 40.4682 186.256 40.4682 187.192C40.4682 188.11 41.8002 188.596 44.3382 188.596C46.8762 188.596 48.2082 188.11 48.2082 187.192C48.2082 186.256 46.8762 185.77 44.3382 185.77ZM51.7002 190.936V192.412H36.9762V190.936H51.7002ZM40.5942 198.82H50.3142V200.242H38.7582V196.156H48.0282V194.986H38.7222V193.582H49.8462V197.47H40.5942V198.82ZM71.9002 192.214H69.5962V200.368H67.7422V184.132H69.5962V190.684H71.9002V192.214ZM61.5862 185.842C61.5862 190.018 60.9202 193.654 58.0402 196.822L56.5642 195.796C58.8862 193.33 59.6962 190.63 59.8402 187.372H57.1942V185.842H61.5862ZM66.0502 185.842C66.0502 190.108 65.5462 194.356 62.6662 197.902L61.1722 196.858C63.5122 194.05 64.1602 190.882 64.3042 187.372H62.1442V185.842H66.0502ZM86.3768 184.132V193.744H84.5228V189.622H81.1388V192.736H73.6148V185.338H81.1388V188.11H84.5228V184.132H86.3768ZM79.3388 186.814H75.4328V191.26H79.3388V186.814ZM75.4148 194.572H86.3768V200.422H84.5228V196.066H75.4148V194.572ZM102.113 190.306H90.9534V184.708H92.8074V188.794H102.113V190.306ZM103.805 192.25V193.744H89.0454V192.25H103.805ZM92.6994 198.532H102.203V200.026H90.8454V195.238H92.6994V198.532ZM123.951 192.106H121.413V200.386H119.559V184.132H121.413V190.576H123.951V192.106ZM114.519 188.146C114.519 191.044 116.049 193.996 118.479 195.184L117.345 196.66C115.599 195.742 114.303 194.05 113.601 191.872C112.899 194.122 111.549 196.012 109.677 196.966L108.543 195.472C111.099 194.23 112.665 191.152 112.665 188.146V185.482H114.519V188.146ZM139.976 189.694H137.672V193.816H135.818V184.15H137.672V188.164H139.976V189.694ZM134.63 192.574C132.164 193.006 130.058 193.096 126.944 193.096H125.63V188.236H131.138V186.49H125.594V184.978H132.974V189.658H127.448V191.584C130.22 191.584 132.2 191.494 134.432 191.062L134.63 192.574ZM127.286 194.572H137.672V200.188H127.286V194.572ZM129.104 198.712H135.854V196.03H129.104V198.712ZM154.111 189.586H143.023V184.564H153.949V186.058H144.859V188.092H154.111V189.586ZM155.857 190.702V192.196H141.151V190.702H155.857ZM144.733 198.784H154.453V200.224H142.897V196.066H152.167V194.806H142.861V193.384H153.985V197.416H144.733V198.784ZM164.627 189.982C160.883 189.982 158.831 188.992 158.831 187.192C158.831 185.374 160.883 184.384 164.627 184.384C168.353 184.384 170.423 185.374 170.423 187.192C170.423 188.992 168.353 189.982 164.627 189.982ZM164.627 185.77C162.089 185.77 160.757 186.256 160.757 187.192C160.757 188.11 162.089 188.596 164.627 188.596C167.165 188.596 168.497 188.11 168.497 187.192C168.497 186.256 167.165 185.77 164.627 185.77ZM171.989 190.936V192.412H157.265V190.936H171.989ZM160.883 198.82H170.603V200.242H159.047V196.156H168.317V194.986H159.011V193.582H170.135V197.47H160.883V198.82ZM190.497 184.132V200.404H188.643V184.132H190.497ZM182.343 191.656C179.913 191.656 178.149 190.252 178.149 188.236C178.149 186.238 179.913 184.834 182.343 184.834C184.773 184.834 186.537 186.238 186.537 188.236C186.537 190.252 184.773 191.656 182.343 191.656ZM182.343 186.364C180.903 186.364 179.931 187.084 179.931 188.236C179.931 189.388 180.903 190.126 182.343 190.126C183.783 190.126 184.755 189.388 184.755 188.236C184.755 187.084 183.783 186.364 182.343 186.364ZM187.707 193.636C186.267 193.924 184.791 194.068 183.351 194.194V199.9H181.497V194.302C179.967 194.356 178.563 194.374 177.267 194.374L177.051 192.844C179.967 192.844 184.089 192.79 187.581 192.268L187.707 193.636ZM202.814 187.462H193.22V185.986H197.09V184.114H198.944V185.986H202.814V187.462ZM208.196 189.316V190.846H205.892V196.318H204.038V184.132H205.892V189.316H208.196ZM201.95 191.296C201.95 193.168 200.348 194.374 198.008 194.374C195.686 194.374 194.066 193.168 194.066 191.296C194.066 189.478 195.686 188.218 198.008 188.218C200.348 188.218 201.95 189.478 201.95 191.296ZM195.848 191.296C195.848 192.322 196.712 192.934 198.008 192.934C199.304 192.934 200.186 192.322 200.186 191.296C200.186 190.27 199.304 189.658 198.008 189.658C196.712 189.658 195.848 190.27 195.848 191.296ZM197.468 198.568H206.54V200.08H195.596V195.382H197.468V198.568ZM41.0718 216.186H33.5478V208.482H41.0718V211.524H44.4558V207.132H46.3098V218.994H44.4558V213.036H41.0718V216.186ZM39.2718 209.958H35.3658V214.71H39.2718V209.958ZM46.7238 221.568V223.08H35.7798V217.896H37.6338V221.568H46.7238ZM62.4964 212.874C60.9844 212.388 59.9944 211.434 59.4364 210.264C58.9144 211.488 57.9064 212.532 56.3224 213.09C54.7384 212.532 53.7304 211.452 53.2084 210.228C52.6504 211.398 51.6964 212.37 50.1844 212.874L49.3204 211.524C51.2824 210.858 52.2904 209.346 52.2904 208.014V207.33H54.1444V208.014C54.1444 209.148 54.8464 210.516 56.3404 211.326C57.7984 210.534 58.5004 209.184 58.5004 208.014V207.33H60.3724V208.014C60.3724 209.436 61.3624 210.912 63.3604 211.524L62.4964 212.874ZM63.7024 213.828V215.286H48.9784V213.828H63.7024ZM52.5964 221.82H62.3164V223.242H50.7604V219.102H60.0304V217.824H50.7244V216.42H61.8484V220.416H52.5964V221.82ZM78.557 207.096V223.422H76.685V207.096H78.557ZM67.937 218.022C70.511 218.004 72.761 217.878 75.335 217.464L75.533 218.976C72.743 219.462 70.313 219.552 67.451 219.552H66.065V213.108H71.735V210.084H66.029V208.572H73.607V214.602H67.937V218.022ZM92.6376 221.874H90.4596L89.0916 220.398C87.5976 221.748 85.3296 222.36 83.3856 221.748C82.4676 221.478 81.7116 220.812 81.2976 219.948C80.2356 217.752 81.4776 215.592 83.5656 214.566L82.6476 213.306C82.0176 212.136 81.9816 210.498 82.9356 209.49C84.0516 208.374 86.1936 208.356 87.3996 209.364C87.9576 209.886 88.2636 210.57 88.2816 211.416C88.3716 213.054 87.1836 214.188 85.8876 214.908L89.0196 218.166C89.2896 217.806 89.8656 215.898 90.0276 215.322H91.7016C91.3056 216.78 90.9636 218.004 90.0636 219.246L92.6376 221.874ZM84.1596 210.462C83.6016 210.948 83.5836 211.668 83.8536 212.316C84.0696 212.82 84.5196 213.414 84.8796 213.828C85.3296 213.522 85.7796 213.216 86.1216 212.838C86.7516 212.172 86.9316 211.146 86.2836 210.444C85.7256 209.886 84.7356 209.976 84.1596 210.462ZM84.5736 215.736C83.5116 216.366 82.5756 217.176 82.5756 218.508C82.5756 219.822 83.9256 220.434 85.0776 220.434C86.1756 220.398 87.1476 220.002 87.9756 219.246L84.5736 215.736ZM107.09 207.114V223.368H105.308V207.114H107.09ZM101.996 207.474H103.742V222.612H101.996V214.728H98.7918V213.216H101.996V207.474ZM95.5878 218.076C97.5858 218.076 99.0078 217.968 100.592 217.626L100.754 219.156C98.9178 219.498 97.3518 219.606 94.8498 219.606H93.7518V209.04H99.9078V210.552H95.5878V218.076ZM122.754 215.376H120.9V207.114H122.754V215.376ZM118.2 211.326C118.2 213.468 116.382 214.98 113.916 214.98C111.486 214.98 109.668 213.468 109.668 211.326C109.668 209.166 111.486 207.654 113.916 207.654C116.382 207.654 118.2 209.166 118.2 211.326ZM111.468 211.326C111.468 212.622 112.53 213.468 113.916 213.468C115.338 213.468 116.4 212.622 116.4 211.326C116.4 210.03 115.338 209.184 113.916 209.184C112.53 209.184 111.468 210.03 111.468 211.326ZM123.24 221.73V223.188H112.134V218.922H120.918V217.572H112.098V216.114H122.754V220.29H113.952V221.73H123.24ZM138.923 207.096V223.422H137.051V207.096H138.923ZM128.303 218.022C130.877 218.004 133.127 217.878 135.701 217.464L135.899 218.976C133.109 219.462 130.679 219.552 127.817 219.552H126.431V213.108H132.101V210.084H126.395V208.572H133.973V214.602H128.303V218.022ZM158.403 215.43H147.153V207.834H158.223V209.31H149.007V210.876H157.845V212.316H149.007V213.954H158.403V215.43ZM159.987 218.4H153.543V223.422H151.689V218.4H145.245V216.888H159.987V218.4ZM174.374 214.548H163.358V208.05H174.176V209.544H165.266V213.054H174.374V214.548ZM176.156 217.95H169.658V223.35H167.804V217.95H161.396V216.42H176.156V217.95Z" fill="#64748B"/>
</svg>
