<svg width="24" height="24" viewBox="0 0 24 24" fill="none" xmlns="http://www.w3.org/2000/svg">
<g clip-path="url(#clip0_973_16966)">
<path d="M9.00268 2.32024C10.2528 0.658217 12.7472 0.658217 13.9973 2.32024C14.6813 3.22963 15.8056 3.69533 16.9323 3.53595C18.9915 3.24467 20.7553 5.00852 20.4641 7.06769C20.3047 8.1944 20.7704 9.31868 21.6798 10.0027C23.3418 11.2528 23.3418 13.7472 21.6798 14.9973C20.7704 15.6813 20.3047 16.8056 20.4641 17.9323C20.7553 19.9915 18.9915 21.7553 16.9323 21.4641C15.8056 21.3047 14.6813 21.7704 13.9973 22.6798C12.7472 24.3418 10.2528 24.3418 9.00268 22.6798C8.31868 21.7704 7.1944 21.3047 6.06769 21.4641C4.00852 21.7553 2.24467 19.9915 2.53595 17.9323C2.69533 16.8056 2.22963 15.6813 1.32024 14.9973C-0.341783 13.7472 -0.341783 11.2528 1.32024 10.0027C2.22963 9.31868 2.69533 8.1944 2.53595 7.06769C2.24467 5.00852 4.00852 3.24467 6.06769 3.53595C7.1944 3.69533 8.31868 3.22963 9.00268 2.32024Z" fill="#FF9950"/>
<path d="M6 13L8.92951 16.1958C9.32585 16.6282 10.0075 16.6282 10.4038 16.1958L17 9" stroke="white" stroke-width="2" stroke-linecap="round"/>
</g>
<defs>
<clipPath id="clip0_973_16966">
<rect width="24" height="24" fill="white"/>
</clipPath>
</defs>
</svg>
