<svg width="288" height="112" viewBox="0 0 288 112" fill="none" xmlns="http://www.w3.org/2000/svg">
<g clip-path="url(#clip0_1082_25691)">
<rect width="288" height="112" rx="12" fill="#1E293B"/>
<circle cx="29.0001" cy="28.3066" r="12" fill="white"/>
<ellipse cx="26.5668" cy="27.7121" rx="0.839161" ry="1.00699" fill="#828282"/>
<ellipse cx="31.6014" cy="27.7121" rx="0.839161" ry="1.00699" fill="#828282"/>
<path fill-rule="evenodd" clip-rule="evenodd" d="M38.6918 20.7665L19.2681 20.5826C19.7284 16.8261 23.9423 13.9133 29.0435 13.9615C34.1447 14.0098 38.3027 17.0019 38.6918 20.7665Z" fill="#FDE047"/>
<rect x="16.0306" y="20.5537" width="25.8997" height="3.23746" rx="1.07915" transform="rotate(0.542194 16.0306 20.5537)" fill="#FDE047"/>
<path d="M25.7832 16.3291C25.8001 14.5412 27.2632 13.1055 29.0512 13.1224C30.8391 13.1394 32.2748 14.6025 32.2578 16.3904L32.217 20.7068L25.7424 20.6455L25.7832 16.3291Z" fill="#FACC15"/>
<path fill-rule="evenodd" clip-rule="evenodd" d="M56.0001 24.5851C53.8189 24.576 51.7934 24.9933 50.2326 26.0849C43.9302 30.4926 49.1158 18.5237 55.6974 16.0063C55.862 15.9342 56.0238 15.8658 56.1829 15.801C56.6923 14.1776 58.2086 13 60.0001 13H241C243.209 13 245 14.7909 245 17V35C245 37.2091 243.209 39 241 39H60.0001C57.7909 39 56.0001 37.2091 56.0001 35V24.5851Z" fill="#334155"/>
<circle cx="71" cy="26" r="8" fill="#0F172A"/>
<path d="M71.1615 21.9C72.5515 21.9 73.5215 22.79 73.5215 24.07C73.4915 25.12 72.7515 25.99 72.0115 26.76L70.4615 28.32C70.7315 28.25 70.9715 28.24 71.2015 28.24H73.6015V29.5H68.3915V28.7L70.9015 26.23C71.6615 25.47 72.1315 24.87 72.1315 24.1C72.1315 23.41 71.7215 23.05 71.0715 23.05C70.5115 23.05 70.1115 23.43 69.9515 23.87C69.9015 24.02 69.8815 24.17 69.8715 24.37L68.5615 24.15C68.8015 22.62 69.7915 21.9 71.1615 21.9Z" fill="white"/>
<rect x="16" y="67" width="96" height="100.544" rx="5.9645" fill="#020617"/>
<path d="M87 76H100" stroke="#475569" stroke-width="2" stroke-linecap="round"/>
<path d="M87 81H92.5" stroke="#475569" stroke-width="2" stroke-linecap="round"/>
<path d="M87 86H92" stroke="#475569" stroke-width="2" stroke-linecap="round"/>
<path d="M100.49 82.4448C100.49 82.4448 100.49 83.4665 101.512 84.4881C102.534 85.5097 103.555 85.5097 103.555 85.5097M95.8248 90.9925L97.9702 90.6861C98.2797 90.6418 98.5665 90.4985 98.7875 90.2774L104.577 84.4881C105.141 83.9239 105.141 83.0091 104.577 82.4448L103.555 81.4232C102.991 80.8589 102.076 80.8589 101.512 81.4232L95.7226 87.2125C95.5015 87.4335 95.3582 87.7203 95.3139 88.0298L95.0075 90.1752C94.9393 90.652 95.348 91.0607 95.8248 90.9925Z" stroke="#475569" stroke-width="2" stroke-linecap="round"/>
<path d="M22.1175 74.8338V72.4377H24.4596V73.3497H25.3554V72.0384H26.0677V75.6594H25.3554V73.9218H24.4596V74.8338H22.1175ZM22.8191 72.9936V74.2779H23.7634V72.9936H22.8191ZM26.1811 76.9222H22.7921V75.314H23.5044V76.3556H26.1811V76.9222ZM30.8784 73.7922C30.4197 73.6573 30.1229 73.3929 29.9556 73.0475C29.7883 73.4091 29.4969 73.7113 29.0058 73.857C28.5093 73.7059 28.2233 73.4145 28.056 73.0475C27.8834 73.3929 27.592 73.6465 27.1386 73.7922L26.8203 73.2742C27.4409 73.0853 27.7053 72.659 27.7053 72.2381V72.1086H28.4122V72.2381C28.4122 72.5834 28.5903 72.9558 29.0058 73.1932C29.416 72.9612 29.594 72.5888 29.594 72.2381V72.1086H30.3118V72.2381C30.3118 72.6644 30.5762 73.1015 31.1914 73.2742L30.8784 73.7922ZM31.2507 74.5639H26.7609V74.0135H31.2507V74.5639ZM30.8352 76.4365V76.9708H27.279V75.6432H30.0042V75.3572H27.2736V74.8338H30.7057V76.1289H27.9859V76.4365H30.8352ZM35.743 77.0193H35.0307V72.033H35.743V77.0193ZM32.6023 75.2763C33.3578 75.2763 33.9892 75.2277 34.6853 75.1144L34.7609 75.6918C33.9406 75.8375 33.2283 75.8645 32.3217 75.8645H31.8738V73.8192H33.4873V73.0259H31.8684V72.4593H34.2158V74.3805H32.6023V75.2763ZM38.1203 74.6287V72.2327H41.5417V72.7939H38.8273V73.1555H41.4338V73.6951H38.8273V74.0675H41.5903V74.6287H38.1203ZM40.1602 75.5623V77.0139H39.4479V75.5623H37.5591V74.9849H42.0598V75.5623H40.1602ZM42.9796 74.3643V72.3028H46.3416V72.8695H43.7081V73.7976H46.3955V74.3643H42.9796ZM45.0032 75.4274V77.0031H44.2909V75.4274H42.4075V74.8499H46.9136V75.4274H45.0032Z" fill="#F1F5F9"/>
<circle cx="25.0889" cy="85.3824" r="3.40828" fill="white"/>
<ellipse cx="24.3976" cy="84.9286" rx="0.238342" ry="0.28601" fill="#828282"/>
<ellipse cx="25.8275" cy="84.9286" rx="0.238342" ry="0.28601" fill="#828282"/>
<rect x="31.2195" y="83.1475" width="44.4878" height="4.68293" rx="2.34146" fill="#475569"/>
<circle cx="25.0887" cy="95.0431" r="3.40828" fill="white"/>
<ellipse cx="24.3978" cy="94.5902" rx="0.238342" ry="0.28601" fill="#828282"/>
<ellipse cx="25.8276" cy="94.5902" rx="0.238342" ry="0.28601" fill="#828282"/>
<rect x="31.2195" y="92.7559" width="23.4146" height="4.68293" rx="2.34146" fill="#475569"/>
<circle cx="25.0887" cy="104.699" r="3.40828" fill="white"/>
<ellipse cx="24.3978" cy="104.245" rx="0.238342" ry="0.28601" fill="#828282"/>
<ellipse cx="25.8276" cy="104.245" rx="0.238342" ry="0.28601" fill="#828282"/>
<rect x="31.2195" y="102.122" width="16.3902" height="4.68293" rx="2.34146" fill="#475569"/>
<circle cx="25.0889" cy="114.356" r="3.40828" fill="white"/>
<path d="M95.7888 19.249V31.027H94.4368V19.249H95.7888ZM92.2658 20.367V28.128H86.7538V20.367H92.2658ZM88.0668 21.433V27.049H90.9528V21.433H88.0668ZM105.689 20.757H98.9288V19.678H107.054V22.941H100.307V24.202H107.314V25.294H98.9548V21.927H105.689V20.757ZM108.315 27.426H103.648V31.027H102.296V27.426H97.6678V26.347H108.315V27.426ZM118.917 19.262V31.001H117.578V19.262H118.917ZM115.459 20.497C115.459 23.994 114.055 26.958 110.025 28.908L109.31 27.842C112.391 26.347 113.86 24.293 114.081 21.589H109.895V20.497H115.459ZM132.967 19.262V31.001H131.628V19.262H132.967ZM129.509 20.497C129.509 23.994 128.105 26.958 124.075 28.908L123.36 27.842C126.441 26.347 127.91 24.293 128.131 21.589H123.945V20.497H129.509ZM144.245 23.461H136.224V19.483H137.563V22.382H144.245V23.461ZM145.454 24.644V25.736H134.833V24.644H145.454ZM140.111 26.646C142.698 26.646 144.154 27.413 144.154 28.817C144.154 30.182 142.633 30.975 140.111 30.975C137.602 30.975 136.068 30.182 136.068 28.817C136.068 27.426 137.602 26.646 140.111 26.646ZM140.111 29.935C141.84 29.935 142.802 29.545 142.802 28.817C142.802 28.076 141.84 27.699 140.111 27.699C138.382 27.699 137.433 28.076 137.433 28.817C137.433 29.545 138.382 29.935 140.111 29.935ZM156.043 19.249V31.027H154.691V19.249H156.043ZM149.79 20.12C151.545 20.12 152.819 21.732 152.819 24.254C152.819 26.802 151.545 28.401 149.79 28.401C148.061 28.401 146.774 26.802 146.774 24.254C146.774 21.732 148.061 20.12 149.79 20.12ZM149.79 21.329C148.75 21.329 148.061 22.421 148.061 24.254C148.061 26.139 148.75 27.205 149.79 27.205C150.83 27.205 151.532 26.139 151.532 24.254C151.532 22.421 150.83 21.329 149.79 21.329ZM161.045 24.501C163.32 24.228 164.945 22.993 165.049 21.732H161.435V20.653H165.062V19.262H166.401V20.653H170.041V21.732H166.414C166.518 22.993 168.143 24.228 170.418 24.501L169.937 25.554C168 25.307 166.505 24.462 165.725 23.266C164.945 24.462 163.45 25.294 161.513 25.554L161.045 24.501ZM171.042 27.426H166.401V31.027H165.062V27.426H160.434V26.321H171.042V27.426ZM182.853 25.008H181.072V30.988H179.733V19.249H181.072V23.89H182.853V25.008ZM178.004 20.497C178.004 23.903 176.548 26.919 172.713 28.856L171.972 27.829C174.819 26.36 176.392 24.28 176.665 21.589H172.557V20.497H178.004ZM193.195 19.236V31.027H191.843V19.236H193.195ZM188.073 27.387C189.113 27.348 190.14 27.283 191.128 27.166L191.232 28.154C188.697 28.57 185.98 28.583 183.757 28.583L183.588 27.478C184.589 27.478 185.629 27.465 186.734 27.439V25.268H184.407V20.328H190.413V21.42H185.746V24.189H190.465V25.268H188.073V27.387ZM201.288 23.214C201.041 24.54 199.858 25.45 198.311 25.45C196.543 25.45 195.256 24.306 195.256 22.681C195.256 21.043 196.543 19.899 198.311 19.899C199.845 19.899 201.002 20.783 201.288 22.109H203.472V19.262H204.811V25.905H203.472V23.214H201.288ZM198.311 21.004C197.284 21.004 196.53 21.693 196.53 22.681C196.53 23.669 197.284 24.345 198.311 24.345C199.325 24.345 200.066 23.669 200.066 22.681C200.066 21.68 199.351 21.004 198.311 21.004ZM203.615 26.932C203.615 28.141 204.382 29.389 205.903 29.87L205.24 30.858C204.096 30.455 203.342 29.675 202.939 28.726C202.562 29.662 201.886 30.507 200.794 30.962C199.702 30.533 199 29.714 198.636 28.765C198.22 29.701 197.466 30.442 196.374 30.858L195.711 29.87C197.219 29.35 197.999 28.076 197.999 26.932V26.36H199.299V26.932C199.299 27.972 199.741 28.999 200.781 29.662C201.834 28.921 202.302 27.868 202.302 26.932V26.36H203.615V26.932ZM216.388 19.249V31.027H215.036V24.722H212.761C212.618 26.997 211.396 28.401 209.797 28.401C208.068 28.401 206.833 26.802 206.833 24.254C206.833 21.732 208.068 20.12 209.797 20.12C211.37 20.12 212.579 21.485 212.748 23.63H215.036V19.249H216.388ZM209.797 27.205C210.837 27.205 211.5 26.139 211.5 24.254C211.5 22.421 210.837 21.329 209.797 21.329C208.796 21.329 208.107 22.421 208.107 24.254C208.107 26.139 208.796 27.205 209.797 27.205ZM228.823 28.466V29.558H218.189V28.466H220.672V25.411C219.736 24.891 219.177 24.046 219.177 23.006C219.177 21.134 220.984 19.938 223.493 19.938C225.989 19.938 227.809 21.134 227.809 23.006C227.809 24.046 227.25 24.878 226.314 25.411V28.466H228.823ZM223.493 20.991C221.712 20.991 220.477 21.771 220.477 23.006C220.477 24.254 221.712 25.034 223.493 25.034C225.261 25.034 226.496 24.254 226.496 23.006C226.496 21.771 225.261 20.991 223.493 20.991ZM222.011 28.466H224.975V25.905C224.52 26.022 224.013 26.074 223.493 26.074C222.96 26.074 222.466 26.022 222.011 25.918V28.466ZM231.807 27.322H230.806L230.598 21.745L230.559 20.211H232.067L231.807 27.322ZM230.546 30.169V28.557H232.08V30.169H230.546Z" fill="#F1F5F9"/>
<path d="M270.696 62.4519C270.837 62.3951 270.837 62.0073 270.696 61.9505C269.821 61.5968 268.352 60.8541 267.583 59.6293C266.82 58.4121 266.362 56.1026 266.148 54.7579C266.113 54.5391 265.875 54.5338 265.836 54.751C265.597 56.0959 265.094 58.4135 264.31 59.6293C263.532 60.8361 262.059 61.6028 261.223 61.9616C261.086 62.0203 261.086 62.3821 261.223 62.4408C262.059 62.7996 263.532 63.5662 264.31 64.773C265.094 65.9888 265.597 68.3064 265.836 69.6513C265.875 69.8685 266.113 69.8633 266.148 69.6445C266.362 68.2997 266.82 65.9903 267.583 64.773C268.352 63.5483 269.821 62.8056 270.696 62.4519Z" fill="#FDE047"/>
<g clip-path="url(#clip1_1082_25691)">
<path d="M260.018 54.7569C260.103 54.7228 260.103 54.4901 260.018 54.456C259.493 54.2438 258.612 53.7982 258.151 53.0633C257.692 52.333 257.418 50.9473 257.289 50.1405C257.268 50.0092 257.125 50.0061 257.102 50.1364C256.959 50.9433 256.657 52.3339 256.187 53.0633C255.719 53.7874 254.836 54.2474 254.334 54.4627C254.252 54.4979 254.252 54.715 254.334 54.7502C254.836 54.9655 255.719 55.4255 256.187 56.1496C256.657 56.879 256.959 58.2696 257.102 59.0765C257.125 59.2068 257.268 59.2037 257.289 59.0724C257.418 58.2656 257.692 56.8799 258.151 56.1496C258.612 55.4147 259.493 54.9691 260.018 54.7569Z" fill="#10B981"/>
</g>
<path fill-rule="evenodd" clip-rule="evenodd" d="M148.472 71.6879C149.547 70.7682 149.547 69.1058 148.472 68.1862L136.046 57.5575C134.551 56.2788 132.245 57.3411 132.245 59.3084V63.0041C125.582 64.5696 117.496 68.8242 116.014 78.1097C115.845 79.1659 117.255 79.8022 118.174 79.2551C121.913 77.0295 127.592 76.2611 132.245 76.1317V80.5656C132.245 82.5329 134.551 83.5952 136.046 82.3165L148.472 71.6879Z" fill="url(#paint0_linear_1082_25691)"/>
<circle cx="163.178" cy="68.1785" r="8.17849" fill="white"/>
<ellipse cx="161.521" cy="67.0906" rx="0.571923" ry="0.686307" fill="#828282"/>
<ellipse cx="164.952" cy="67.0906" rx="0.571923" ry="0.686307" fill="#828282"/>
<rect x="177.89" y="62.6899" width="56.1856" height="11.2371" rx="5.61856" fill="#CBD5E1"/>
<circle cx="246" cy="68" r="8" fill="white"/>
<path d="M242.41 68.299H249.59M249.59 68.299L246.299 65.0078M249.59 68.299L246.299 71.5903" stroke="#94A3B8" stroke-width="1.19681" stroke-linecap="round"/>
</g>
<defs>
<linearGradient id="paint0_linear_1082_25691" x1="149.374" y1="69.5265" x2="93.5033" y2="69.5265" gradientUnits="userSpaceOnUse">
<stop/>
<stop offset="1" stop-color="white" stop-opacity="0"/>
</linearGradient>
<clipPath id="clip0_1082_25691">
<rect width="288" height="112" fill="white"/>
</clipPath>
<clipPath id="clip1_1082_25691">
<rect width="7.20121" height="11.3162" fill="white" transform="matrix(-1 0 0 1 261.201 49)"/>
</clipPath>
</defs>
</svg>
