<svg width="158" height="123" viewBox="0 0 158 123" fill="none" xmlns="http://www.w3.org/2000/svg">
<path d="M60.8264 6.992C60.8024 7.064 60.7184 7.148 60.5744 7.244C60.4304 7.34 60.3104 7.388 60.2144 7.388C59.6984 7.34 59.1824 7.298 58.6664 7.262C58.1624 7.226 57.6464 7.202 57.1184 7.19C57.1904 7.61 57.2564 8.03 57.3164 8.45C57.3884 8.87 57.4544 9.29 57.5144 9.71C58.5344 9.674 59.5424 9.62 60.5384 9.548C60.7064 9.548 60.8744 9.602 61.0424 9.71C61.2104 9.818 61.2944 9.92 61.2944 10.016C61.2944 10.148 61.2404 10.268 61.1324 10.376C61.0244 10.472 60.8924 10.532 60.7364 10.556C60.2324 10.64 59.7224 10.706 59.2064 10.754C58.7024 10.79 58.1864 10.82 57.6584 10.844C57.7184 11.264 57.7664 11.684 57.8024 12.104C57.8504 12.512 57.8924 12.92 57.9284 13.328C57.9524 13.496 57.9344 13.676 57.8744 13.868C57.8264 14.048 57.7424 14.138 57.6224 14.138C57.5144 14.138 57.4124 14.108 57.3164 14.048C57.2204 13.988 57.1304 13.922 57.0464 13.85C56.9744 13.766 56.9144 13.676 56.8664 13.58C56.8184 13.484 56.7884 13.4 56.7764 13.328C56.6564 12.296 56.5244 11.27 56.3804 10.25C56.2484 9.23 56.0984 8.204 55.9304 7.172H55.3364C55.1684 7.172 55.0124 7.154 54.8684 7.118C54.7244 7.082 54.6164 6.992 54.5444 6.848C54.5204 6.812 54.5024 6.752 54.4904 6.668C54.4904 6.584 54.4964 6.5 54.5084 6.416C54.5324 6.332 54.5684 6.254 54.6164 6.182C54.6644 6.11 54.7304 6.062 54.8144 6.038C55.2824 5.966 55.7804 5.936 56.3084 5.948C56.8484 5.96 57.3704 5.996 57.8744 6.056C58.3904 6.104 58.8704 6.176 59.3144 6.272C59.7704 6.368 60.1604 6.47 60.4844 6.578C60.6884 6.698 60.8024 6.836 60.8264 6.992ZM64.8581 7.406C64.8341 7.526 64.7501 7.592 64.6061 7.604C64.4621 7.616 64.3421 7.622 64.2461 7.622C63.9461 7.634 63.6341 7.664 63.3101 7.712C62.9981 7.76 62.6681 7.832 62.3201 7.928C62.1761 7.976 62.0201 7.958 61.8521 7.874C61.6841 7.79 61.5821 7.622 61.5461 7.37C61.5461 7.274 61.5821 7.196 61.6541 7.136C61.7261 7.076 61.8101 7.022 61.9061 6.974C62.0621 6.902 62.2481 6.842 62.4641 6.794C62.6801 6.734 62.8961 6.692 63.1121 6.668C63.3401 6.644 63.5561 6.638 63.7601 6.65C63.9641 6.65 64.1321 6.668 64.2641 6.704C64.4561 6.764 64.6061 6.854 64.7141 6.974C64.8341 7.094 64.8821 7.238 64.8581 7.406ZM64.4441 13.4C64.5281 13.592 64.5701 13.802 64.5701 14.03C64.5821 14.246 64.5221 14.396 64.3901 14.48C64.2221 14.588 64.0421 14.582 63.8501 14.462C63.6581 14.342 63.5141 14.18 63.4181 13.976C63.2861 13.724 63.1841 13.418 63.1121 13.058C63.0401 12.686 62.9861 12.32 62.9501 11.96C62.9141 11.6 62.8901 11.264 62.8781 10.952C62.8781 10.64 62.8781 10.406 62.8781 10.25C62.8901 10.082 62.9381 9.926 63.0221 9.782C63.1061 9.638 63.2141 9.554 63.3461 9.53C63.5621 9.542 63.7361 9.644 63.8681 9.836C64.0001 10.016 64.0601 10.244 64.0481 10.52C64.0481 10.736 64.0541 10.976 64.0661 11.24C64.0781 11.504 64.1021 11.768 64.1381 12.032C64.1741 12.296 64.2161 12.554 64.2641 12.806C64.3121 13.046 64.3721 13.244 64.4441 13.4ZM69.0614 9.782C69.1574 9.914 69.2474 10.082 69.3314 10.286C69.4274 10.478 69.4994 10.676 69.5474 10.88C69.6194 11.204 69.6974 11.558 69.7814 11.942C69.8774 12.314 69.9674 12.704 70.0514 13.112C70.1474 13.52 70.2314 13.934 70.3034 14.354C70.3874 14.774 70.4594 15.176 70.5194 15.56C70.5914 16.088 70.5494 16.592 70.3934 17.072C70.2494 17.564 70.0034 18.002 69.6554 18.386C69.3074 18.77 68.8754 19.076 68.3594 19.304C67.8434 19.532 67.2614 19.658 66.6134 19.682C66.4694 19.67 66.3194 19.598 66.1634 19.466C66.0074 19.346 65.9294 19.22 65.9294 19.088C65.9174 18.956 65.9774 18.848 66.1094 18.764C66.2534 18.692 66.3974 18.644 66.5414 18.62C66.7934 18.596 67.0514 18.542 67.3154 18.458C67.5914 18.386 67.8494 18.278 68.0894 18.134C68.3294 17.99 68.5454 17.816 68.7374 17.612C68.9414 17.408 69.0974 17.168 69.2054 16.892C69.2894 16.676 69.3314 16.412 69.3314 16.1C69.3314 15.776 69.3074 15.458 69.2594 15.146C69.2234 14.834 69.1694 14.54 69.0974 14.264C69.0374 13.976 68.9834 13.76 68.9354 13.616C68.8514 13.7 68.7434 13.79 68.6114 13.886C68.4914 13.982 68.3534 14.072 68.1974 14.156C68.0414 14.24 67.8674 14.306 67.6754 14.354C67.4954 14.402 67.3094 14.42 67.1174 14.408C66.9134 14.396 66.7214 14.324 66.5414 14.192C66.3734 14.06 66.2234 13.892 66.0914 13.688C65.9594 13.472 65.8514 13.226 65.7674 12.95C65.6954 12.674 65.6594 12.386 65.6594 12.086C65.6834 11.366 65.8634 10.73 66.1994 10.178C66.5474 9.614 67.0994 9.176 67.8554 8.864C67.9154 8.852 67.9934 8.84 68.0894 8.828C68.1974 8.816 68.3054 8.816 68.4134 8.828C68.5214 8.828 68.6234 8.84 68.7194 8.864C68.8274 8.888 68.9174 8.924 68.9894 8.972C69.1214 9.068 69.1874 9.206 69.1874 9.386C69.1874 9.566 69.1454 9.698 69.0614 9.782ZM66.7934 12.248C66.7934 12.38 66.8054 12.53 66.8294 12.698C66.8534 12.854 66.9314 12.968 67.0634 13.04C67.2074 13.124 67.3814 13.136 67.5854 13.076C67.8014 13.016 67.9994 12.914 68.1794 12.77C68.3474 12.638 68.4554 12.494 68.5034 12.338C68.5634 12.17 68.5634 11.948 68.5034 11.672C68.4434 11.396 68.3774 11.108 68.3054 10.808C68.2334 10.508 68.1854 10.238 68.1614 9.998C68.0174 10.07 67.8614 10.172 67.6934 10.304C67.5374 10.436 67.3934 10.604 67.2614 10.808C67.1294 11 67.0154 11.216 66.9194 11.456C66.8354 11.696 66.7934 11.96 66.7934 12.248ZM72.7371 6.776C72.7371 7.064 72.7311 7.388 72.7191 7.748C72.7191 8.108 72.7191 8.48 72.7191 8.864C72.7311 9.248 72.7371 9.644 72.7371 10.052C72.7491 10.46 72.7611 10.85 72.7731 11.222C72.8931 10.982 73.0371 10.748 73.2051 10.52C73.3731 10.28 73.5591 10.07 73.7631 9.89C73.9791 9.71 74.2011 9.566 74.4291 9.458C74.6691 9.35 74.9271 9.296 75.2031 9.296C75.5031 9.296 75.7671 9.392 75.9951 9.584C76.2351 9.776 76.4391 10.034 76.6071 10.358C76.7871 10.67 76.9371 11.024 77.0571 11.42C77.1771 11.804 77.2731 12.2 77.3451 12.608C77.4291 13.004 77.4891 13.388 77.5251 13.76C77.5611 14.12 77.5911 14.432 77.6151 14.696C77.6151 14.888 77.5671 15.044 77.4711 15.164C77.3751 15.284 77.2611 15.344 77.1291 15.344C77.0331 15.344 76.9131 15.284 76.7691 15.164C76.6371 15.032 76.5411 14.876 76.4811 14.696C76.4451 14.552 76.4091 14.342 76.3731 14.066C76.3371 13.79 76.2951 13.496 76.2471 13.184C76.1991 12.86 76.1391 12.536 76.0671 12.212C75.9951 11.888 75.9051 11.6 75.7971 11.348C75.7011 11.084 75.5811 10.88 75.4371 10.736C75.2931 10.592 75.1251 10.538 74.9331 10.574C74.6331 10.634 74.3691 10.844 74.1411 11.204C73.9251 11.564 73.7331 11.972 73.5651 12.428C73.4091 12.884 73.2771 13.346 73.1691 13.814C73.0731 14.282 73.0011 14.66 72.9531 14.948C72.9051 15.164 72.8391 15.314 72.7551 15.398C72.6831 15.47 72.5991 15.506 72.5031 15.506C72.4071 15.506 72.3171 15.458 72.2331 15.362C72.1611 15.266 72.0891 15.152 72.0171 15.02C71.9571 14.876 71.9031 14.732 71.8551 14.588C71.8071 14.432 71.7771 14.3 71.7651 14.192C71.7051 13.544 71.6571 12.926 71.6211 12.338C71.5851 11.738 71.5551 11.138 71.5311 10.538C71.5191 9.938 71.5131 9.326 71.5131 8.702C71.5131 8.066 71.5251 7.388 71.5491 6.668C71.5491 6.068 71.7651 5.798 72.1971 5.858C72.3411 5.882 72.4671 5.99 72.5751 6.182C72.6831 6.362 72.7371 6.56 72.7371 6.776ZM82.5906 9.926C82.8186 9.914 83.0466 9.968 83.2746 10.088C83.5026 10.208 83.6166 10.394 83.6166 10.646C83.5926 10.85 83.4786 10.982 83.2746 11.042C83.0826 11.09 82.9266 11.114 82.8066 11.114C82.5666 11.114 82.3086 11.12 82.0326 11.132C81.7566 11.144 81.4746 11.162 81.1866 11.186C81.1626 11.582 81.1386 11.954 81.1146 12.302C81.1026 12.65 81.0906 12.962 81.0786 13.238C81.0666 13.502 81.0606 13.718 81.0606 13.886C81.0606 14.054 81.0666 14.144 81.0786 14.156C81.3426 14.108 81.6246 14.03 81.9246 13.922C82.2366 13.802 82.5426 13.676 82.8426 13.544C83.1546 13.4 83.4546 13.256 83.7426 13.112C84.0426 12.956 84.3246 12.812 84.5886 12.68C84.7086 12.62 84.8166 12.602 84.9126 12.626C85.0206 12.65 85.0866 12.704 85.1106 12.788C85.1346 12.92 85.1166 13.082 85.0566 13.274C84.9966 13.466 84.8886 13.64 84.7326 13.796C84.5526 13.94 84.3126 14.108 84.0126 14.3C83.7246 14.48 83.4126 14.654 83.0766 14.822C82.7406 14.99 82.3986 15.14 82.0506 15.272C81.7146 15.392 81.4146 15.464 81.1506 15.488C80.7546 15.524 80.4546 15.416 80.2506 15.164C80.0466 14.912 79.9326 14.594 79.9086 14.21C79.8846 13.826 79.8786 13.382 79.8906 12.878C79.9146 12.374 79.9386 11.84 79.9626 11.276C79.7346 11.3 79.5126 11.324 79.2966 11.348C79.0926 11.36 78.8946 11.378 78.7026 11.402C78.5466 11.402 78.3726 11.366 78.1806 11.294C78.0006 11.222 77.9106 11.084 77.9106 10.88C77.9106 10.808 77.9406 10.712 78.0006 10.592C78.0606 10.472 78.1926 10.382 78.3966 10.322C78.8886 10.238 79.4346 10.166 80.0346 10.106C80.0706 9.542 80.1126 8.996 80.1606 8.468C80.2086 7.94 80.2506 7.46 80.2866 7.028C80.2986 6.884 80.3406 6.758 80.4126 6.65C80.4846 6.542 80.5626 6.488 80.6466 6.488C80.8506 6.476 81.0426 6.53 81.2226 6.65C81.4146 6.758 81.5106 6.884 81.5106 7.028C81.4626 7.436 81.4146 7.898 81.3666 8.414C81.3306 8.93 81.2946 9.458 81.2586 9.998C81.4986 9.974 81.7266 9.962 81.9426 9.962C82.1706 9.95 82.3866 9.938 82.5906 9.926ZM88.4683 7.406C88.4443 7.526 88.3603 7.592 88.2163 7.604C88.0723 7.616 87.9523 7.622 87.8563 7.622C87.5563 7.634 87.2443 7.664 86.9203 7.712C86.6083 7.76 86.2783 7.832 85.9303 7.928C85.7863 7.976 85.6303 7.958 85.4623 7.874C85.2943 7.79 85.1923 7.622 85.1563 7.37C85.1563 7.274 85.1923 7.196 85.2643 7.136C85.3363 7.076 85.4203 7.022 85.5163 6.974C85.6723 6.902 85.8583 6.842 86.0743 6.794C86.2903 6.734 86.5063 6.692 86.7223 6.668C86.9503 6.644 87.1663 6.638 87.3703 6.65C87.5743 6.65 87.7423 6.668 87.8743 6.704C88.0663 6.764 88.2163 6.854 88.3243 6.974C88.4443 7.094 88.4923 7.238 88.4683 7.406ZM88.0543 13.4C88.1383 13.592 88.1803 13.802 88.1803 14.03C88.1923 14.246 88.1323 14.396 88.0003 14.48C87.8323 14.588 87.6523 14.582 87.4603 14.462C87.2683 14.342 87.1243 14.18 87.0283 13.976C86.8963 13.724 86.7943 13.418 86.7223 13.058C86.6503 12.686 86.5963 12.32 86.5603 11.96C86.5243 11.6 86.5003 11.264 86.4883 10.952C86.4883 10.64 86.4883 10.406 86.4883 10.25C86.5003 10.082 86.5483 9.926 86.6323 9.782C86.7163 9.638 86.8243 9.554 86.9563 9.53C87.1723 9.542 87.3463 9.644 87.4783 9.836C87.6103 10.016 87.6703 10.244 87.6583 10.52C87.6583 10.736 87.6643 10.976 87.6763 11.24C87.6883 11.504 87.7123 11.768 87.7483 12.032C87.7843 12.296 87.8263 12.554 87.8743 12.806C87.9223 13.046 87.9823 13.244 88.0543 13.4ZM90.5476 8.81C90.5836 8.99 90.6196 9.194 90.6556 9.422C90.7036 9.638 90.7516 9.866 90.7996 10.106C90.8476 10.334 90.8896 10.568 90.9256 10.808C90.9616 11.048 90.9916 11.276 91.0156 11.492C91.1596 11.18 91.3156 10.85 91.4836 10.502C91.6516 10.154 91.8316 9.836 92.0236 9.548C92.2276 9.248 92.4376 9.002 92.6536 8.81C92.8816 8.618 93.1276 8.522 93.3916 8.522C93.7876 8.522 94.1176 8.666 94.3816 8.954C94.6576 9.242 94.8856 9.602 95.0656 10.034C95.2576 10.454 95.4076 10.898 95.5156 11.366C95.6236 11.834 95.7136 12.248 95.7856 12.608C95.8576 12.932 95.7136 13.172 95.3536 13.328C95.1856 13.412 95.0596 13.424 94.9756 13.364C94.8916 13.304 94.8436 13.244 94.8316 13.184C94.7716 13.04 94.6936 12.788 94.5976 12.428C94.5136 12.068 94.4116 11.702 94.2916 11.33C94.1836 10.958 94.0576 10.634 93.9136 10.358C93.7696 10.082 93.6076 9.956 93.4276 9.98C93.2116 9.992 93.0196 10.154 92.8516 10.466C92.7076 10.718 92.5576 11 92.4016 11.312C92.2576 11.612 92.1136 11.924 91.9696 12.248C91.8256 12.56 91.6816 12.878 91.5376 13.202C91.4056 13.514 91.2796 13.802 91.1596 14.066C91.0756 14.15 90.9676 14.21 90.8356 14.246C90.7156 14.27 90.5896 14.258 90.4576 14.21C90.3376 14.174 90.2416 14.114 90.1696 14.03C90.0976 13.946 90.0616 13.862 90.0616 13.778C89.9536 12.842 89.8396 11.99 89.7196 11.222C89.6116 10.454 89.4676 9.668 89.2876 8.864C89.2036 8.588 89.1856 8.372 89.2336 8.216C89.2936 8.048 89.4736 7.982 89.7736 8.018C90.1936 8.09 90.4516 8.354 90.5476 8.81ZM99.8925 9.782C99.9885 9.914 100.079 10.082 100.163 10.286C100.259 10.478 100.331 10.676 100.379 10.88C100.451 11.204 100.529 11.558 100.613 11.942C100.709 12.314 100.799 12.704 100.883 13.112C100.979 13.52 101.063 13.934 101.135 14.354C101.219 14.774 101.291 15.176 101.351 15.56C101.423 16.088 101.381 16.592 101.225 17.072C101.081 17.564 100.835 18.002 100.487 18.386C100.139 18.77 99.7065 19.076 99.1905 19.304C98.6745 19.532 98.0925 19.658 97.4445 19.682C97.3005 19.67 97.1505 19.598 96.9945 19.466C96.8385 19.346 96.7605 19.22 96.7605 19.088C96.7485 18.956 96.8085 18.848 96.9405 18.764C97.0845 18.692 97.2285 18.644 97.3725 18.62C97.6245 18.596 97.8825 18.542 98.1465 18.458C98.4225 18.386 98.6805 18.278 98.9205 18.134C99.1605 17.99 99.3765 17.816 99.5685 17.612C99.7725 17.408 99.9285 17.168 100.037 16.892C100.121 16.676 100.163 16.412 100.163 16.1C100.163 15.776 100.139 15.458 100.091 15.146C100.055 14.834 100.001 14.54 99.9285 14.264C99.8685 13.976 99.8145 13.76 99.7665 13.616C99.6825 13.7 99.5745 13.79 99.4425 13.886C99.3225 13.982 99.1845 14.072 99.0285 14.156C98.8725 14.24 98.6985 14.306 98.5065 14.354C98.3265 14.402 98.1405 14.42 97.9485 14.408C97.7445 14.396 97.5525 14.324 97.3725 14.192C97.2045 14.06 97.0545 13.892 96.9225 13.688C96.7905 13.472 96.6825 13.226 96.5985 12.95C96.5265 12.674 96.4905 12.386 96.4905 12.086C96.5145 11.366 96.6945 10.73 97.0305 10.178C97.3785 9.614 97.9305 9.176 98.6865 8.864C98.7465 8.852 98.8245 8.84 98.9205 8.828C99.0285 8.816 99.1365 8.816 99.2445 8.828C99.3525 8.828 99.4545 8.84 99.5505 8.864C99.6585 8.888 99.7485 8.924 99.8205 8.972C99.9525 9.068 100.019 9.206 100.019 9.386C100.019 9.566 99.9765 9.698 99.8925 9.782ZM97.6245 12.248C97.6245 12.38 97.6365 12.53 97.6605 12.698C97.6845 12.854 97.7625 12.968 97.8945 13.04C98.0385 13.124 98.2125 13.136 98.4165 13.076C98.6325 13.016 98.8305 12.914 99.0105 12.77C99.1785 12.638 99.2865 12.494 99.3345 12.338C99.3945 12.17 99.3945 11.948 99.3345 11.672C99.2745 11.396 99.2085 11.108 99.1365 10.808C99.0645 10.508 99.0165 10.238 98.9925 9.998C98.8485 10.07 98.6925 10.172 98.5245 10.304C98.3685 10.436 98.2245 10.604 98.0925 10.808C97.9605 11 97.8465 11.216 97.7505 11.456C97.6665 11.696 97.6245 11.96 97.6245 12.248ZM105.152 5.318C105.044 5.846 104.93 6.368 104.81 6.884C104.702 7.4 104.6 7.916 104.504 8.432C104.408 8.948 104.336 9.464 104.288 9.98C104.24 10.496 104.234 11.012 104.27 11.528C104.294 11.66 104.27 11.786 104.198 11.906C104.138 12.026 104.066 12.104 103.982 12.14C103.718 12.236 103.526 12.17 103.406 11.942C103.262 11.33 103.184 10.724 103.172 10.124C103.172 9.524 103.214 8.93 103.298 8.342C103.394 7.754 103.514 7.172 103.658 6.596C103.814 6.008 103.97 5.426 104.126 4.85C104.186 4.61 104.282 4.478 104.414 4.454C104.546 4.43 104.672 4.442 104.792 4.49C104.972 4.55 105.086 4.67 105.134 4.85C105.182 5.03 105.188 5.186 105.152 5.318ZM104.432 15.002C104.432 15.134 104.414 15.314 104.378 15.542C104.354 15.758 104.306 15.962 104.234 16.154C104.174 16.346 104.084 16.502 103.964 16.622C103.856 16.742 103.718 16.766 103.55 16.694C103.454 16.634 103.358 16.52 103.262 16.352C103.166 16.184 103.124 16.028 103.136 15.884C103.16 15.596 103.22 15.314 103.316 15.038C103.412 14.762 103.538 14.594 103.694 14.534C103.766 14.51 103.844 14.51 103.928 14.534C104.024 14.558 104.108 14.6 104.18 14.66C104.252 14.708 104.312 14.768 104.36 14.84C104.408 14.9 104.432 14.954 104.432 15.002Z" fill="#EFEFEF"/>
<circle cx="79" cy="76" r="47" fill="#43444A"/>
<ellipse cx="69.4686" cy="69.7556" rx="3.28671" ry="3.94406" fill="#222222"/>
<ellipse cx="89.1883" cy="69.7556" rx="3.28671" ry="3.94406" fill="#222222"/>
<path d="M71 77C72 78.3333 75 81 80 81C85 81 88.1667 78.3333 89 77" stroke="#222222" stroke-width="2" stroke-linecap="round"/>
<path fill-rule="evenodd" clip-rule="evenodd" d="M23.2545 62.8912C22.1309 62.2491 19.3581 59.087 18.7802 57.3535C18.294 55.8949 18.4624 54.9726 18.6244 54.0849C18.703 53.6537 18.7802 53.2308 18.7802 52.7585C18.7802 51.3139 14.4077 49.3883 11.9999 52.9999C10.3001 55.5497 10.6931 57.9898 11.1398 59.6312C4.97145 59.6677 0.000110626 61.6409 0.000110626 70.4654C0.000110626 77.6996 5.06655 81.3 11.3163 81.3C14.1386 81.3 16.7196 80.3108 18.7016 78.6748L20.1529 79.1309C21.956 79.6976 23.8349 79.9859 25.7249 79.9859C26.6882 79.9859 27.4805 79.2269 27.5217 78.2645L28.0048 66.996C28.1118 64.4998 25.9295 62.5175 23.455 62.8632L23.2545 62.8912Z" fill="#43444A"/>
<path fill-rule="evenodd" clip-rule="evenodd" d="M134.751 62.9505C135.874 62.3088 138.645 59.1486 139.223 57.4161C139.709 55.9584 139.54 55.0366 139.378 54.1494C139.3 53.7185 139.223 53.2958 139.223 52.8239C139.223 51.3801 143.593 49.4557 145.999 53.0651C147.698 55.6133 147.305 58.052 146.858 59.6925C153.023 59.7289 157.992 61.7009 157.992 70.5202C157.992 77.7501 152.928 81.3483 146.682 81.3483C143.862 81.3483 141.282 80.3597 139.301 78.7246L137.851 79.1805C136.049 79.7468 134.171 80.0349 132.282 80.0349C131.319 80.0349 130.528 79.2764 130.486 78.3145L130.004 67.0557C129.897 64.5595 132.079 62.5772 134.554 62.9229L134.751 62.9505Z" fill="#43444A"/>
</svg>
