<svg width="24" height="24" viewBox="0 0 24 24" fill="none" xmlns="http://www.w3.org/2000/svg">
<g clip-path="url(#clip0_1067_21181)">
<circle cx="12" cy="12" r="12" fill="#EF4444"/>
<path d="M10.5833 14.625L10.5833 12.5" stroke="white" stroke-width="1.7" stroke-linecap="round"/>
<path d="M13.4167 14.625L13.4167 12.5" stroke="white" stroke-width="1.7" stroke-linecap="round"/>
<path d="M5.625 8.9585H18.375V8.9585C17.7149 8.9585 17.3849 8.9585 17.1245 9.06633C16.7774 9.21012 16.5016 9.4859 16.3578 9.83303C16.25 10.0934 16.25 10.4234 16.25 11.0835V15.3335C16.25 16.6691 16.25 17.337 15.8351 17.7519C15.4201 18.1668 14.7523 18.1668 13.4167 18.1668H10.5833C9.24769 18.1668 8.57986 18.1668 8.16493 17.7519C7.75 17.337 7.75 16.6691 7.75 15.3335V11.0835C7.75 10.4234 7.75 10.0934 7.64216 9.83303C7.49838 9.4859 7.22259 9.21012 6.87547 9.06633C6.61513 8.9585 6.28508 8.9585 5.625 8.9585V8.9585Z" stroke="white" stroke-width="1.7" stroke-linecap="round"/>
<path d="M10.6317 6.3875C10.7124 6.31219 10.8903 6.24565 11.1377 6.19819C11.3851 6.15073 11.6882 6.125 12.0001 6.125C12.3119 6.125 12.6151 6.15073 12.8625 6.19819C13.1099 6.24565 13.2878 6.31219 13.3685 6.3875" stroke="white" stroke-width="1.7" stroke-linecap="round"/>
</g>
<defs>
<clipPath id="clip0_1067_21181">
<rect width="24" height="24" fill="white"/>
</clipPath>
</defs>
</svg>
