<svg width="209" height="222" viewBox="0 0 209 222" fill="none" xmlns="http://www.w3.org/2000/svg">
<circle cx="105" cy="60" r="60" fill="#FFAE74"/>
<ellipse cx="92.8311" cy="52.0272" rx="4.1958" ry="5.03497" fill="#4F4E57"/>
<ellipse cx="118.007" cy="52.0272" rx="4.1958" ry="5.03497" fill="#4F4E57"/>
<path fill-rule="evenodd" clip-rule="evenodd" d="M96.3159 67.8965C96.3168 72.2559 99.8511 75.7896 104.211 75.7896C108.57 75.7896 112.105 72.2559 112.105 67.8965H96.3159Z" fill="#FF5934"/>
<rect x="76.5796" y="44.2114" width="23.6842" height="15.7895" rx="3.15789" fill="#252525"/>
<rect x="108.157" y="44.2114" width="23.6842" height="15.7895" rx="3.15789" fill="#252525"/>
<rect x="100.264" y="52.1045" width="7.89474" height="3.94737" fill="#252525"/>
<path d="M71.5655 162H74.7575V154.584C74.7575 152.928 74.4935 150.408 74.3015 148.752H74.3975L75.8135 152.928L78.5735 160.392H80.6135L83.3495 152.928L84.7895 148.752H84.8855C84.6935 150.408 84.4535 152.928 84.4535 154.584V162H87.6935V144.24H83.7575L80.8055 152.544C80.4215 153.672 80.1095 154.824 79.7255 155.976H79.6055C79.2455 154.824 78.9095 153.672 78.5255 152.544L75.5015 144.24H71.5655V162ZM98.6979 162.336C103.402 162.336 106.642 158.808 106.642 153.048C106.642 147.288 103.402 143.904 98.6979 143.904C93.9939 143.904 90.7539 147.264 90.7539 153.048C90.7539 158.808 93.9939 162.336 98.6979 162.336ZM98.6979 159.264C96.0579 159.264 94.3779 156.816 94.3779 153.048C94.3779 149.184 95.9859 146.952 98.6979 146.952C101.41 146.952 103.018 149.184 103.018 153.048C103.018 156.816 101.338 159.264 98.6979 159.264ZM109.703 162H114.767C119.999 162 123.359 159 123.359 153.048C123.359 147.024 119.999 144.24 114.575 144.24H109.703V162ZM113.255 159.144V147.072H114.359C117.695 147.072 119.735 148.704 119.735 153.048C119.735 157.368 117.695 159.144 114.359 159.144H113.255ZM136.003 162H139.723L134.011 144.24H129.835L124.147 162H127.747L128.995 157.44H134.755L136.003 162ZM129.763 154.68L130.291 152.736C130.843 150.888 131.347 148.872 131.803 146.928H131.899C132.451 148.848 132.907 150.888 133.459 152.736L133.987 154.68H129.763Z" fill="#534236"/>
<path d="M10.5822 180.194H6.89219V178.844H4.49819V180.194H0.808185V181.976H10.5822V180.194ZM13.8762 182.48V178.952H11.5002V187.916H13.8762V184.424H16.0722V182.48H13.8762ZM9.77219 185.09C9.77219 183.416 8.17019 182.372 5.70419 182.372C3.25619 182.372 1.63619 183.416 1.63619 185.09C1.63619 186.746 3.25619 187.79 5.70419 187.79C8.17019 187.79 9.77219 186.746 9.77219 185.09ZM3.90419 185.09C3.90419 184.388 4.60619 184.046 5.70419 184.046C6.80219 184.046 7.50419 184.388 7.50419 185.09C7.50419 185.792 6.80219 186.116 5.70419 186.116C4.60619 186.116 3.90419 185.792 3.90419 185.09ZM5.30819 192.776H13.8762V188.564H2.93219V190.292H11.5362V191.156H2.95019V195.422H14.3442V193.694H5.30819V192.776ZM34.4169 178.97H32.0229V187.268H34.4169V178.97ZM29.7369 183.236C29.7369 181.022 27.8469 179.456 25.3269 179.456C22.8069 179.456 20.8809 181.022 20.8809 183.236C20.8809 185.468 22.8069 187.034 25.3269 187.034C27.8469 187.034 29.7369 185.468 29.7369 183.236ZM23.1849 183.236C23.1849 182.066 24.1029 181.364 25.3269 181.364C26.5509 181.364 27.4329 182.066 27.4329 183.236C27.4329 184.46 26.5509 185.108 25.3269 185.108C24.1029 185.108 23.1849 184.46 23.1849 183.236ZM25.7409 193.514V192.47H34.4169V187.952H23.3649V189.77H32.0589V190.778H23.3829V195.368H34.8309V193.514H25.7409ZM44.2855 184.856C48.2275 184.856 50.2975 183.902 50.2975 182.03C50.2975 180.212 48.2275 179.204 44.2855 179.204C40.3795 179.204 38.2915 180.212 38.2915 182.03C38.2915 183.902 40.3795 184.856 44.2855 184.856ZM44.2855 180.95C46.7515 180.95 47.8315 181.292 47.8315 182.03C47.8315 182.804 46.7515 183.128 44.2855 183.128C41.8915 183.128 40.7575 182.804 40.7575 182.03C40.7575 181.292 41.8915 180.95 44.2855 180.95ZM36.7975 185.648V187.502H51.7735V185.648H36.7975ZM40.8835 192.704H49.9555V188.438H38.5075V190.184H47.6155V191.066H38.5255V195.422H50.3875V193.64H40.8835V192.704ZM71.9362 185.45H69.7942V178.952H67.4002V195.53H69.7942V187.412H71.9362V185.45ZM57.0142 180.662V182.57H59.2462C59.1022 185.9 58.4902 188.276 56.2762 190.724L58.1302 192.074C61.0642 188.798 61.4962 185.234 61.4962 180.662H57.0142ZM62.0542 180.662V182.57H63.8362C63.6922 186.26 63.1342 189.014 60.9202 191.804L62.7922 193.118C65.6722 189.518 66.0682 185.468 66.0682 180.662H62.0542ZM84.2528 178.97V182.912H81.2648V180.176H73.4528V187.88H81.2648V184.82H84.2528V188.78H86.6288V178.97H84.2528ZM78.9428 186.026H75.7928V182.03H78.9428V186.026ZM75.3428 191.408H84.2528V195.566H86.6288V189.536H75.3428V191.408ZM102.275 183.452H93.1494V179.564H90.7734V185.342H102.275V183.452ZM88.9194 187.034V188.942H103.931V187.034H88.9194ZM93.0054 190.256H90.6114V195.206H102.365V193.298H93.0054V190.256ZM124.13 185.342H121.718V178.97H119.342V195.548H121.718V187.322H124.13V185.342ZM114.842 180.248H112.448V182.66C112.448 185.738 111.188 188.924 108.398 190.22L109.82 192.146C111.692 191.228 112.934 189.482 113.654 187.376C114.356 189.41 115.508 190.958 117.236 191.84L118.676 189.968C116.012 188.672 114.842 185.648 114.842 182.66V180.248ZM140.137 182.876H137.941V178.97H135.565V188.834H137.941V184.82H140.137V182.876ZM134.431 185.828C132.361 186.206 130.525 186.332 127.843 186.332V184.838H133.027V179.798H125.467V181.688H130.687V183.074H125.485V188.24H126.907C130.201 188.24 132.343 188.168 134.629 187.736L134.431 185.828ZM127.141 195.368H137.941V189.518H127.141V195.368ZM129.481 191.39H135.619V193.496H129.481V191.39ZM154.271 182.642H145.271V181.184H154.145V179.294H142.913V184.514H154.271V182.642ZM141.059 185.396V187.268H156.053V185.396H141.059ZM145.127 192.596H154.199V188.204H142.751V189.986H151.859V190.922H142.769V195.404H154.631V193.586H145.127V192.596ZM164.68 184.856C168.622 184.856 170.692 183.902 170.692 182.03C170.692 180.212 168.622 179.204 164.68 179.204C160.774 179.204 158.686 180.212 158.686 182.03C158.686 183.902 160.774 184.856 164.68 184.856ZM164.68 180.95C167.146 180.95 168.226 181.292 168.226 182.03C168.226 182.804 167.146 183.128 164.68 183.128C162.286 183.128 161.152 182.804 161.152 182.03C161.152 181.292 162.286 180.95 164.68 180.95ZM157.192 185.648V187.502H172.168V185.648H157.192ZM161.278 192.704H170.35V188.438H158.902V190.184H168.01V191.066H158.92V195.422H170.782V193.64H161.278V192.704ZM188.515 178.97V195.53H190.891V178.97H188.515ZM182.395 186.71C184.897 186.71 186.733 185.252 186.733 183.182C186.733 181.094 184.897 179.636 182.395 179.636C179.893 179.636 178.039 181.094 178.039 183.182C178.039 185.252 179.893 186.71 182.395 186.71ZM182.395 181.562C183.619 181.562 184.465 182.102 184.465 183.182C184.465 184.19 183.619 184.766 182.395 184.766C181.171 184.766 180.325 184.19 180.325 183.182C180.325 182.102 181.171 181.562 182.395 181.562ZM187.579 187.124C184.069 187.646 179.947 187.682 177.067 187.682L177.337 189.626C178.507 189.626 179.839 189.608 181.279 189.554V195.044H183.655V189.41C185.023 189.284 186.355 189.122 187.723 188.852L187.579 187.124ZM202.937 180.716H199.229V178.952H196.835V180.716H193.163V182.57H202.919L202.937 180.716ZM206.213 184.028V178.97H203.837V191.372H206.213V185.99H208.409V184.028H206.213ZM202.109 186.35C202.109 184.478 200.399 183.164 198.041 183.164C195.647 183.164 193.973 184.478 193.973 186.35C193.973 188.258 195.647 189.554 198.041 189.554C200.399 189.554 202.109 188.258 202.109 186.35ZM196.241 186.35C196.241 185.432 196.961 184.964 198.041 184.964C199.121 184.964 199.841 185.432 199.841 186.35C199.841 187.268 199.121 187.754 198.041 187.754C196.961 187.754 196.241 187.268 196.241 186.35ZM197.897 190.454H195.521V195.26H206.807V193.37H197.897V190.454ZM40.9253 207.252H43.9133V213.048H46.2893V200.97H43.9133V205.344H40.9253V202.302H33.1133V210.294H40.9253V207.252ZM38.6033 208.44H35.4533V204.156H38.6033V208.44ZM37.7393 215.37V211.896H35.3633V217.26H46.6673V215.37H37.7393ZM63.3579 205.092C61.3059 204.516 60.4239 203.058 60.4239 201.636V201.204H58.0299V201.636C58.0299 202.806 57.4359 204.048 56.0679 204.822C54.6819 204.03 54.0879 202.788 54.0879 201.636V201.204H51.7299V201.636C51.7299 203.04 50.8479 204.462 48.7779 205.092L49.8399 206.82C51.3519 206.334 52.3239 205.488 52.8999 204.336C53.4579 205.56 54.4119 206.532 56.0679 207.036C57.7059 206.55 58.6779 205.542 59.2359 204.336C59.7939 205.488 60.7839 206.37 62.3139 206.82L63.3579 205.092ZM48.5799 207.558V209.394H63.5559V207.558H48.5799ZM52.6659 214.614H61.7379V210.294H50.2899V212.04H59.3979V212.994H50.3079V217.422H62.1699V215.64H52.6659V214.614ZM76.1425 200.952V217.584H78.5185V200.952H76.1425ZM68.0425 208.782H73.4245V202.374H65.5945V204.264H70.9945V206.91H65.6125V213.732H67.1065C70.1305 213.732 72.5065 213.642 75.2425 213.156L74.9905 211.23C72.6685 211.608 70.5625 211.77 68.0425 211.77V208.782ZM80.7371 212.544C80.8091 215.082 82.4651 216.324 85.6151 216.198C86.9291 216.144 88.1531 215.676 89.0711 214.902L89.9351 215.838H92.7251L90.4931 213.372C91.2671 212.22 91.8431 210.798 91.9691 209.286L90.0431 209.34C89.9711 210.258 89.7011 211.104 89.2511 211.914L86.5691 208.89C88.1531 208.08 89.4311 207.072 89.3411 205.308C89.2691 203.49 87.9191 202.41 85.8131 202.5C83.8151 202.554 82.1771 203.67 82.2671 205.848C82.2851 206.802 82.6451 207.63 83.4191 208.566C81.7811 209.376 80.6471 210.6 80.7371 212.544ZM85.3991 207.576C84.8411 206.946 84.5171 206.334 84.4991 205.632C84.4451 204.552 85.0571 204.102 85.9211 204.048C86.6411 204.03 87.2531 204.552 87.2711 205.47C87.2891 206.532 86.4791 207.288 85.5611 207.792L85.3991 207.576ZM87.9911 213.66C87.3431 214.164 86.6231 214.47 85.7051 214.488C83.9591 214.56 83.0411 213.678 82.9871 212.166C82.9331 210.996 83.5811 210.312 84.4991 209.718L87.9911 213.66ZM105.276 200.952V217.53H107.526V200.952H105.276ZM101.838 207.018H98.9576V208.944H101.838V216.81H104.052V201.276H101.838V207.018ZM96.1136 204.732H100.092V202.842H93.7736V213.858H94.9076C97.3376 213.858 98.9756 213.804 100.83 213.426L100.632 211.482C99.1736 211.77 97.8416 211.86 96.1136 211.914V204.732ZM123.208 200.97H120.814V209.268H123.208V200.97ZM118.528 205.236C118.528 203.022 116.638 201.456 114.118 201.456C111.598 201.456 109.672 203.022 109.672 205.236C109.672 207.468 111.598 209.034 114.118 209.034C116.638 209.034 118.528 207.468 118.528 205.236ZM111.976 205.236C111.976 204.066 112.894 203.364 114.118 203.364C115.342 203.364 116.224 204.066 116.224 205.236C116.224 206.46 115.342 207.108 114.118 207.108C112.894 207.108 111.976 206.46 111.976 205.236ZM114.532 215.514V214.47H123.208V209.952H112.156V211.77H120.85V212.778H112.174V217.368H123.622V215.514H114.532ZM137.001 200.952V217.584H139.377V200.952H137.001ZM128.901 208.782H134.283V202.374H126.453V204.264H131.853V206.91H126.471V213.732H127.965C130.989 213.732 133.365 213.642 136.101 213.156L135.849 211.23C133.527 211.608 131.421 211.77 128.901 211.77V208.782ZM158.837 207.738H149.621V206.496H158.315V204.696H149.621V203.49H158.675V201.618H147.263V209.61H158.837V207.738ZM160.403 210.798H145.391V212.724H151.691V217.566H154.067V212.724H160.403V210.798ZM174.844 206.838H165.88V203.742H174.664V201.852H163.45V208.728H174.844V206.838ZM176.572 210.348H161.542V212.274H167.824V217.53H170.2V212.274H176.572V210.348Z" fill="#A09994"/>
</svg>
