<svg width="24" height="24" viewBox="0 0 24 24" fill="none" xmlns="http://www.w3.org/2000/svg">
<path fill-rule="evenodd" clip-rule="evenodd" d="M20.0999 15.3752C20.0999 15.7202 19.9649 16.0652 19.7099 16.3352C19.4569 16.5871 19.1145 16.7285 18.7574 16.7285C18.4004 16.7285 18.0579 16.5871 17.8049 16.3352L11.9999 10.5302L6.20994 16.3352C5.95694 16.5871 5.61445 16.7285 5.25744 16.7285C4.90042 16.7285 4.55794 16.5871 4.30494 16.3352C4.05304 16.0822 3.91162 15.7397 3.91162 15.3827C3.91162 15.0257 4.05304 14.6832 4.30494 14.4302L11.0549 7.6802C11.3079 7.4283 11.6504 7.28688 12.0074 7.28688C12.3645 7.28688 12.7069 7.4283 12.9599 7.6802L19.7099 14.4302C19.9649 14.6852 20.0999 15.0302 20.0999 15.3752Z" fill="#686360"/>
</svg>
