<svg width="32" height="32" viewBox="0 0 32 32" fill="none" xmlns="http://www.w3.org/2000/svg">
<path d="M16.1373 9.87827C16.1373 9.87827 16.1373 11.2064 17.4655 12.5345C18.7936 13.8627 20.1217 13.8627 20.1217 13.8627M10.0722 20.9903L12.8613 20.5919C13.2636 20.5344 13.6364 20.348 13.9238 20.0606L21.4499 12.5345C22.1834 11.801 22.1834 10.6118 21.4499 9.87826L20.1217 8.55013C19.3882 7.81662 18.199 7.81662 17.4655 8.55013L9.93938 16.0762C9.65201 16.3636 9.4656 16.7364 9.40813 17.1387L9.00969 19.9278C8.92115 20.5476 9.4524 21.0789 10.0722 20.9903Z" stroke="#94A3B8" stroke-width="2" stroke-linecap="round"/>
<path d="M13.5 24H23" stroke="#94A3B8" stroke-width="2" stroke-linecap="round"/>
</svg>
