<svg width="24" height="24" viewBox="0 0 24 24" fill="none" xmlns="http://www.w3.org/2000/svg">
<circle cx="12" cy="12" r="12" fill="#FF9950"/>
<ellipse cx="9.56621" cy="10.4054" rx="0.839161" ry="1.00699" fill="#4F4E57"/>
<ellipse cx="14.6014" cy="10.4054" rx="0.839161" ry="1.00699" fill="#4F4E57"/>
<circle cx="12" cy="12" r="12" fill="#FF9950"/>
<ellipse cx="9.56621" cy="10.4054" rx="0.839161" ry="1.00699" fill="#4F4E57"/>
<ellipse cx="14.6014" cy="10.4054" rx="0.839161" ry="1.00699" fill="#4F4E57"/>
<path fill-rule="evenodd" clip-rule="evenodd" d="M12.905 9.74775C12.905 9.30593 13.2632 8.94775 13.705 8.94775H17.2841C17.7259 8.94775 18.0841 9.30593 18.0841 9.74775V11.6005C18.0841 12.0423 17.7259 12.4005 17.2841 12.4005H13.705C13.2632 12.4005 12.905 12.0423 12.905 11.6005V11.5255H11.1791V11.6006C11.1791 12.0424 10.8209 12.4006 10.3791 12.4006H6.8C6.35817 12.4006 6 12.0424 6 11.6006V9.74785C6 9.30602 6.35817 8.94785 6.8 8.94785H10.3791C10.8209 8.94785 11.1791 9.30602 11.1791 9.74785V10.4321H12.905V9.74775Z" fill="#252525"/>
<path d="M13.6 14H10.4266C10.1956 14 10.0101 14.1963 10.0604 14.4218C10.2141 15.1109 10.6948 16 12.0645 16C13.344 16 13.8305 15.0896 13.9609 14.3972C14.0018 14.1801 13.8209 14 13.6 14Z" fill="#FF5934"/>
</svg>
