<svg width="240" height="240" viewBox="0 0 240 240" fill="none" xmlns="http://www.w3.org/2000/svg">
<path fill-rule="evenodd" clip-rule="evenodd" d="M42.8335 126.177V187.25C42.8335 197.07 52.1627 202.676 58.7002 196.784L76.5502 180.696C80.0761 177.518 84.9242 177.518 88.4502 180.696L106.3 196.784C112.838 202.676 122.167 197.07 122.167 187.25V126.177H42.8335ZM42.8335 117.24H122.167V103.834C122.167 97.2523 117.727 91.917 112.25 91.917H52.7502C47.2733 91.917 42.8335 97.2523 42.8335 103.834V117.24Z" fill="#334155"/>
<path d="M125.029 48.9025L130.171 43.7608C131.389 42.543 133.474 43.3314 133.581 45.0503L134.663 62.3536C134.699 62.9263 134.487 63.4868 134.081 63.8926L132.708 65.265C131.671 66.3025 129.907 65.9068 129.412 64.5256L124.561 50.9915C124.3 50.2631 124.482 49.4496 125.029 48.9025Z" fill="#475569"/>
<path d="M122.201 46.0744L127.343 40.9327C128.561 39.7149 127.772 37.6298 126.053 37.5224L108.75 36.4409C108.177 36.4051 107.617 36.617 107.211 37.0228L105.838 38.3953C104.801 39.4328 105.197 41.1972 106.578 41.6922L120.112 46.5429C120.84 46.8039 121.654 46.6214 122.201 46.0744Z" fill="#475569"/>
<path d="M112.741 68.1349L111.031 60.0728L114.213 56.8908C114.994 56.1097 116.26 56.1097 117.041 56.8908L118.466 58.3157C118.905 58.7548 119.116 59.3729 119.035 59.9886L118.19 66.4693C118.133 66.9067 117.933 67.3129 117.621 67.6248L116.112 69.1341C114.99 70.2562 113.07 69.6872 112.741 68.1349Z" fill="#334155"/>
<path d="M102.969 58.3626L111.031 60.0728L114.213 56.8908C114.994 56.1097 114.994 54.8434 114.213 54.0623L112.788 52.6374C112.349 52.1983 111.731 51.9881 111.115 52.0684L104.634 52.9137C104.197 52.9708 103.791 53.1708 103.479 53.4827L101.97 54.9919C100.848 56.114 101.417 58.0333 102.969 58.3626Z" fill="#334155"/>
<path d="M132.598 31.4349C134.55 29.4823 137.716 29.4823 139.669 31.4349C141.621 33.3876 141.621 36.5534 139.669 38.506L114.92 63.2548L107.849 56.1837L132.598 31.4349Z" fill="#334155"/>
<ellipse cx="174.002" cy="166" rx="32.0017" ry="32" fill="#334155"/>
<path d="M159.348 158.852C159.348 160.025 158.543 160.88 157.66 160.88C156.777 160.88 155.971 160.025 155.971 158.852C155.971 157.678 156.777 156.823 157.66 156.823C158.543 156.823 159.348 157.678 159.348 158.852Z" fill="#1E293B" stroke="#1E293B" stroke-width="0.708625"/>
<path d="M170.242 158.852C170.242 160.025 169.437 160.88 168.554 160.88C167.67 160.88 166.865 160.025 166.865 158.852C166.865 157.678 167.67 156.823 168.554 156.823C169.437 156.823 170.242 157.678 170.242 158.852Z" fill="#1E293B" stroke="#1E293B" stroke-width="0.708625"/>
<path d="M160.383 162.597C160.383 163.278 161.671 164.639 163.447 164.639C165.223 164.639 165.83 163.278 165.83 162.597" stroke="#1E293B" stroke-width="1.3617"/>
<path fill-rule="evenodd" clip-rule="evenodd" d="M157.848 135.12L194.837 139.216C194.821 131.965 187.472 125.459 177.758 124.384C168.043 123.308 159.449 128.048 157.848 135.12Z" fill="#334155"/>
<rect width="49.621" height="6.20263" rx="2.06754" transform="matrix(-0.993925 -0.110063 -0.110063 0.993925 201.002 139.901)" fill="#334155"/>
<path d="M177.424 128.914C177.801 125.509 175.347 122.443 171.942 122.066C168.537 121.689 165.471 124.144 165.094 127.549L164.184 135.769L176.514 137.134L177.424 128.914Z" fill="#475569"/>
<rect x="151" y="67" width="55" height="34" rx="8" fill="#334155"/>
<path d="M186.466 81.7149C187.931 82.4546 187.931 84.5454 186.466 85.2851L174.902 91.1273C173.572 91.7993 172 90.8326 172 89.3422L172 77.6578C172 76.1674 173.572 75.2007 174.902 75.8727L186.466 81.7149Z" fill="#475569"/>
<path fill-rule="evenodd" clip-rule="evenodd" d="M49.0729 50.0526C48.388 46.2218 50.5592 42.4538 54.217 41.1253L67.3308 36.3623C70.9886 35.0338 75.0718 36.5302 77.005 39.9077L78.5174 42.5501C78.8391 43.1121 79.0846 43.6943 79.2579 44.2855L81.6797 46.3204C84.6395 48.8075 85.0228 53.223 82.5358 56.1828C80.0488 59.1427 75.6332 59.526 72.6734 57.0389L70.6769 55.3614L63.8455 57.8426L63.391 60.4103C62.717 64.2171 59.0847 66.7568 55.2779 66.0829C51.4711 65.409 48.9314 61.7767 49.6053 57.9699L50.156 54.8593C49.9087 54.2936 49.7229 53.6885 49.6087 53.0497L49.0729 50.0526Z" fill="#334155"/>
<path fill-rule="evenodd" clip-rule="evenodd" d="M56.9966 47.5627C56.808 47.0436 56.2344 46.7756 55.7153 46.9641C55.1962 47.1527 54.9282 47.7263 55.1167 48.2454L55.4581 49.1854L54.5182 49.5267C53.9991 49.7153 53.7311 50.2889 53.9197 50.8081C54.1082 51.3272 54.6819 51.5951 55.201 51.4066L56.1409 51.0652L56.4823 52.0051C56.6708 52.5242 57.2445 52.7922 57.7636 52.6037C58.2827 52.4151 58.5507 51.8415 58.3621 51.3224L58.0207 50.3825L58.9607 50.0411C59.4798 49.8525 59.7477 49.2789 59.5592 48.7598C59.3707 48.2407 58.797 47.9727 58.2779 48.1612L57.338 48.5026L56.9966 47.5627Z" fill="#64748B"/>
<circle cx="70.8383" cy="44.6638" r="3" transform="rotate(-19.9611 70.8383 44.6638)" fill="#64748B"/>
<circle cx="70.8382" cy="44.6639" r="2" transform="rotate(-19.9611 70.8382 44.6639)" fill="#475569"/>
<rect x="155.926" y="37.0684" width="21.5298" height="25.4958" rx="4" transform="rotate(-49.6729 155.926 37.0684)" fill="#334155"/>
<path d="M158.607 33.9092L162.461 29.3697L166.504 32.8024C167.129 33.3325 166.886 34.3474 166.089 34.5374L165.131 34.7661C164.706 34.8674 164.397 35.2324 164.366 35.6678L164.296 36.6506C164.237 37.4676 163.275 37.872 162.651 37.3419L158.607 33.9092Z" fill="#475569"/>
</svg>
