<svg width="25" height="24" viewBox="0 0 25 24" fill="none" xmlns="http://www.w3.org/2000/svg">
<path d="M3.5 5H16.5" stroke="#94A3B8" stroke-width="2" stroke-linecap="round"/>
<path d="M3.5 10H9" stroke="#94A3B8" stroke-width="2" stroke-linecap="round"/>
<path d="M3.5 15H8.5" stroke="#94A3B8" stroke-width="2" stroke-linecap="round"/>
<path d="M16.9903 11.4448C16.9903 11.4448 16.9903 12.4665 18.0119 13.4881C19.0335 14.5097 20.0552 14.5097 20.0552 14.5097M12.3248 19.9925L14.4702 19.6861C14.7797 19.6418 15.0665 19.4985 15.2875 19.2774L21.0768 13.4881C21.6411 12.9239 21.6411 12.0091 21.0768 11.4448L20.0552 10.4232C19.4909 9.85894 18.5761 9.85894 18.0119 10.4232L12.2226 16.2125C12.0015 16.4335 11.8582 16.7203 11.8139 17.0298L11.5075 19.1752C11.4393 19.652 11.848 20.0607 12.3248 19.9925Z" stroke="#94A3B8" stroke-width="2" stroke-linecap="round"/>
</svg>
