<svg width="186" height="78" viewBox="0 0 186 78" fill="none" xmlns="http://www.w3.org/2000/svg">
<circle cx="103.837" cy="41.9043" r="22.331" fill="#FFA15E"/>
<ellipse cx="99.3087" cy="38.9374" rx="1.56161" ry="1.87393" fill="#4F4E57"/>
<ellipse cx="108.678" cy="38.9374" rx="1.56161" ry="1.87393" fill="#4F4E57"/>
<path fill-rule="evenodd" clip-rule="evenodd" d="M100.605 44.8428C100.606 46.4651 101.921 47.78 103.543 47.78C105.166 47.78 106.481 46.4651 106.482 44.8428H100.605Z" fill="#FF5934"/>
<rect x="93.2598" y="36.0264" width="8.81488" height="5.87659" rx="1.17532" fill="#252525"/>
<rect x="105.012" y="36.0264" width="8.81488" height="5.87659" rx="1.17532" fill="#252525"/>
<rect x="102.075" y="38.9648" width="2.93829" height="1.46915" fill="#252525"/>
<ellipse cx="75.7685" cy="42.4827" rx="4.21752" ry="3.47051" transform="rotate(-87.732 75.7685 42.4827)" fill="#FFA15E"/>
<path fill-rule="evenodd" clip-rule="evenodd" d="M73.1697 39.6529C73.3189 39.529 73.4853 39.4252 73.6684 39.3448C75.1285 38.7031 77.0954 39.7878 78.0617 41.7676C78.6764 43.0269 78.7381 44.345 78.3257 45.3027C77.7306 46.0761 76.9044 46.5885 75.9893 46.6833C74.7783 46.5511 73.4966 45.5713 72.7742 44.0912C72.4244 43.3745 72.2537 42.6387 72.2476 41.9611C72.3528 41.0754 72.6855 40.2781 73.1697 39.6529Z" fill="#FB8B3A"/>
<path fill-rule="evenodd" clip-rule="evenodd" d="M73.476 36.4328L71.1651 37.0011L76.6312 59.229L72.5617 67.9034L86.5712 64.4583L78.942 58.6599L73.476 36.4328Z" fill="#DBEAFE"/>
<path d="M80.7496 12.5877L53.4841 19.2927C52.1973 19.6091 51.5464 21.0469 52.1578 22.2226L59.6435 36.6167C60.5142 38.2909 62.4172 39.1523 64.2497 38.7017L80.0005 34.8283C81.8136 34.3825 83.0948 32.7654 83.1142 30.8984L83.2833 14.5952C83.2972 13.2591 82.0471 12.2687 80.7496 12.5877Z" fill="#DBEAFE"/>
<g filter="url(#filter0_b_935_11060)">
<path d="M83.2555 18.7096L54.1375 25.8701L59.9938 38.5428C60.8154 40.3208 62.782 41.2669 64.684 40.7991L80.6364 36.8762C82.5169 36.4138 83.8156 34.696 83.7478 32.7606L83.2555 18.7096Z" fill="#FBEC9C"/>
</g>
<path fill-rule="evenodd" clip-rule="evenodd" d="M79.3793 45.7111C79.5802 44.9423 79.5655 44.1481 79.2942 43.3934C78.418 40.9564 75.1978 39.8543 72.1017 40.9319C72.0005 40.9671 71.9007 41.0042 71.8023 41.0431C68.6106 41.5626 63.0696 44.2764 64.7257 52.5559C65.9935 58.8945 71.1589 60.1885 75.0716 59.5283C75.9057 59.5506 76.7845 59.4199 77.6536 59.1174C80.7498 58.0398 82.5494 55.1906 81.6733 52.7536C81.5454 52.398 81.3677 52.0708 81.1477 51.7747C81.8794 50.6211 82.1124 49.2961 81.6733 48.0746C81.2894 47.0068 80.4556 46.1953 79.3793 45.7111Z" fill="#FFA15E"/>
<path d="M46.5987 19.5854L40.9999 18.8291" stroke="#74E099" stroke-width="2.90283" stroke-linecap="round"/>
<path d="M49.227 14.0078L45.7432 8.23997" stroke="#FFE350" stroke-width="2.90283" stroke-linecap="round"/>
<path d="M55.936 8.11035L55.936 13.0891" stroke="#74E099" stroke-width="2.90283" stroke-linecap="round"/>
<path d="M129.272 24.4449C129.136 24.3901 129.136 24.0162 129.272 23.9614C130.116 23.6203 131.532 22.9041 132.273 21.7231C133.01 20.5494 133.451 18.3225 133.658 17.0257C133.691 16.8148 133.921 16.8097 133.958 17.0192C134.189 18.316 134.674 20.5508 135.43 21.7231C136.18 22.8868 137.6 23.6261 138.407 23.9721C138.539 24.0287 138.539 24.3776 138.407 24.4342C137.6 24.7802 136.18 25.5194 135.43 26.6831C134.674 27.8554 134.189 30.0903 133.958 31.3871C133.921 31.5965 133.691 31.5915 133.658 31.3805C133.451 30.0838 133.01 27.8568 132.273 26.6831C131.532 25.5021 130.116 24.7859 129.272 24.4449Z" fill="#FFE350"/>
<g clip-path="url(#clip0_935_11060)">
<path d="M138.499 17.023C138.418 16.9901 138.418 16.7658 138.499 16.7329C139.005 16.5282 139.855 16.0985 140.3 15.3899C140.742 14.6857 141.007 13.3495 141.131 12.5715C141.151 12.4449 141.288 12.4419 141.311 12.5676C141.449 13.3457 141.74 14.6865 142.194 15.3899C142.644 16.0882 143.496 16.5317 143.98 16.7393C144.059 16.7733 144.059 16.9826 143.98 17.0165C143.496 17.2241 142.644 17.6677 142.194 18.3659C141.74 19.0693 141.449 20.4102 141.311 21.1883C141.288 21.314 141.151 21.3109 141.131 21.1844C141.007 20.4063 140.742 19.0702 140.3 18.3659C139.855 17.6573 139.005 17.2276 138.499 17.023Z" fill="#9DE8B7"/>
</g>
<defs>
<filter id="filter0_b_935_11060" x="45.9559" y="10.5285" width="45.9758" height="38.571" filterUnits="userSpaceOnUse" color-interpolation-filters="sRGB">
<feFlood flood-opacity="0" result="BackgroundImageFix"/>
<feGaussianBlur in="BackgroundImageFix" stdDeviation="4.09075"/>
<feComposite in2="SourceAlpha" operator="in" result="effect1_backgroundBlur_935_11060"/>
<feBlend mode="normal" in="SourceGraphic" in2="effect1_backgroundBlur_935_11060" result="shape"/>
</filter>
<clipPath id="clip0_935_11060">
<rect width="6.94394" height="10.9119" fill="white" transform="translate(138.215 11.4717)"/>
</clipPath>
</defs>
</svg>
