<svg width="24" height="24" viewBox="0 0 24 24" fill="none" xmlns="http://www.w3.org/2000/svg">
<path fill-rule="evenodd" clip-rule="evenodd" d="M3.89994 8.6248C3.89994 8.2798 4.03494 7.9348 4.28994 7.6648C4.54294 7.4129 4.88542 7.27148 5.24244 7.27148C5.59946 7.27148 5.94194 7.4129 6.19494 7.6648L11.9999 13.4698L17.7899 7.6648C18.0429 7.41291 18.3854 7.27148 18.7424 7.27148C19.0995 7.27148 19.4419 7.41291 19.6949 7.6648C19.9468 7.9178 20.0883 8.26028 20.0883 8.6173C20.0883 8.97432 19.9468 9.3168 19.6949 9.5698L12.9449 16.3198C12.6919 16.5717 12.3495 16.7131 11.9924 16.7131C11.6354 16.7131 11.2929 16.5717 11.0399 16.3198L4.28994 9.5698C4.03494 9.3148 3.89994 8.9698 3.89994 8.6248Z" fill="#EA7E44"/>
</svg>
