<svg width="288" height="112" viewBox="0 0 288 112" fill="none" xmlns="http://www.w3.org/2000/svg">
<g clip-path="url(#clip0_1067_23437)">
<rect width="288" height="112" rx="12" fill="#F1F5F9"/>
<circle cx="29.0001" cy="28.3066" r="12" fill="white"/>
<ellipse cx="26.5668" cy="27.7121" rx="0.839161" ry="1.00699" fill="#828282"/>
<ellipse cx="31.6014" cy="27.7121" rx="0.839161" ry="1.00699" fill="#828282"/>
<path fill-rule="evenodd" clip-rule="evenodd" d="M38.6918 20.7665L19.2681 20.5826C19.7284 16.8261 23.9423 13.9133 29.0435 13.9615C34.1447 14.0098 38.3027 17.0019 38.6918 20.7665Z" fill="#FDE047"/>
<rect x="16.0306" y="20.5537" width="25.8997" height="3.23746" rx="1.07915" transform="rotate(0.542194 16.0306 20.5537)" fill="#FDE047"/>
<path d="M25.7832 16.3291C25.8001 14.5412 27.2632 13.1055 29.0512 13.1224C30.8391 13.1394 32.2748 14.6025 32.2578 16.3904L32.217 20.7068L25.7424 20.6455L25.7832 16.3291Z" fill="#FACC15"/>
<path fill-rule="evenodd" clip-rule="evenodd" d="M56.0001 24.5851C53.8189 24.576 51.7934 24.9933 50.2326 26.0849C43.9302 30.4926 49.1158 18.5237 55.6974 16.0063C55.862 15.9342 56.0238 15.8658 56.1829 15.801C56.6923 14.1776 58.2086 13 60.0001 13H262C264.209 13 266 14.7909 266 17V35C266 37.2091 264.209 39 262 39H60.0001C57.7909 39 56.0001 37.2091 56.0001 35V24.5851Z" fill="white"/>
<rect x="94" y="52" width="96" height="100.544" rx="5.9645" fill="#FFC6A7"/>
<path d="M165 61H178" stroke="#EC986B" stroke-width="2" stroke-linecap="round"/>
<path d="M165 66H170.5" stroke="#EC986B" stroke-width="2" stroke-linecap="round"/>
<path d="M165 71H170" stroke="#EC986B" stroke-width="2" stroke-linecap="round"/>
<path d="M178.49 67.4448C178.49 67.4448 178.49 68.4665 179.512 69.4881C180.534 70.5097 181.555 70.5097 181.555 70.5097M173.825 75.9925L175.97 75.6861C176.28 75.6418 176.566 75.4985 176.788 75.2774L182.577 69.4881C183.141 68.9239 183.141 68.0091 182.577 67.4448L181.555 66.4232C180.991 65.8589 180.076 65.8589 179.512 66.4232L173.723 72.2125C173.502 72.4335 173.358 72.7203 173.314 73.0298L173.007 75.1752C172.939 75.652 173.348 76.0607 173.825 75.9925Z" stroke="#EC986B" stroke-width="2" stroke-linecap="round"/>
<path d="M100.118 59.8338V57.4377H102.46V58.3497H103.355V57.0384H104.068V60.6594H103.355V58.9218H102.46V59.8338H100.118ZM100.819 57.9936V59.2779H101.763V57.9936H100.819ZM104.181 61.9222H100.792V60.314H101.504V61.3556H104.181V61.9222ZM108.878 58.7922C108.42 58.6573 108.123 58.3929 107.956 58.0475C107.788 58.4091 107.497 58.7113 107.006 58.857C106.509 58.7059 106.223 58.4145 106.056 58.0475C105.883 58.3929 105.592 58.6465 105.139 58.7922L104.82 58.2742C105.441 58.0853 105.705 57.659 105.705 57.2381V57.1086H106.412V57.2381C106.412 57.5834 106.59 57.9558 107.006 58.1932C107.416 57.9612 107.594 57.5888 107.594 57.2381V57.1086H108.312V57.2381C108.312 57.6644 108.576 58.1015 109.191 58.2742L108.878 58.7922ZM109.251 59.5639H104.761V59.0135H109.251V59.5639ZM108.835 61.4365V61.9708H105.279V60.6432H108.004V60.3572H105.274V59.8338H108.706V61.1289H105.986V61.4365H108.835ZM113.743 62.0193H113.031V57.033H113.743V62.0193ZM110.602 60.2763C111.358 60.2763 111.989 60.2277 112.685 60.1144L112.761 60.6918C111.941 60.8375 111.228 60.8645 110.322 60.8645H109.874V58.8192H111.487V58.0259H109.868V57.4593H112.216V59.3805H110.602V60.2763ZM116.12 59.6287V57.2327H119.542V57.7939H116.827V58.1555H119.434V58.6951H116.827V59.0675H119.59V59.6287H116.12ZM118.16 60.5623V62.0139H117.448V60.5623H115.559V59.9849H120.06V60.5623H118.16ZM120.98 59.3643V57.3028H124.342V57.8695H121.708V58.7976H124.396V59.3643H120.98ZM123.003 60.4274V62.0031H122.291V60.4274H120.408V59.8499H124.914V60.4274H123.003Z" fill="#0F172A"/>
<circle cx="103.089" cy="70.3824" r="3.40828" fill="white"/>
<ellipse cx="102.398" cy="69.9286" rx="0.238342" ry="0.28601" fill="#828282"/>
<ellipse cx="103.828" cy="69.9286" rx="0.238342" ry="0.28601" fill="#828282"/>
<rect x="109.219" y="68.1475" width="44.4878" height="4.68293" rx="2.34146" fill="#FFAB7D"/>
<circle cx="103.089" cy="80.0431" r="3.40828" fill="white"/>
<ellipse cx="102.398" cy="79.5902" rx="0.238342" ry="0.28601" fill="#828282"/>
<ellipse cx="103.828" cy="79.5902" rx="0.238342" ry="0.28601" fill="#828282"/>
<rect x="109.219" y="77.7559" width="23.4146" height="4.68293" rx="2.34146" fill="#FFAB7D"/>
<circle cx="103.089" cy="89.6993" r="3.40828" fill="white"/>
<ellipse cx="102.398" cy="89.245" rx="0.238342" ry="0.28601" fill="#828282"/>
<ellipse cx="103.828" cy="89.245" rx="0.238342" ry="0.28601" fill="#828282"/>
<rect x="109.219" y="87.1221" width="16.3902" height="4.68293" rx="2.34146" fill="#FFAB7D"/>
<circle cx="103.089" cy="99.3556" r="3.40828" fill="white"/>
<ellipse cx="102.398" cy="98.9012" rx="0.238342" ry="0.28601" fill="#828282"/>
<ellipse cx="103.828" cy="98.9012" rx="0.238342" ry="0.28601" fill="#828282"/>
<rect x="109.219" y="97.1191" width="37.4634" height="4.68293" rx="2.34146" fill="#FFAB7D"/>
<path d="M95.3452 25.28C93.4602 24.981 91.9132 24.058 91.1332 22.758C90.3922 24.058 88.8712 25.02 86.9342 25.319L86.4142 24.253C88.7282 23.941 90.4442 22.524 90.4442 21.042V20.561H91.8222V21.042C91.8222 22.485 93.5512 23.915 95.8522 24.227L95.3452 25.28ZM96.4632 26.151V27.23H91.9132V29.427H90.5742V27.23H85.8162V26.151H96.4632ZM88.4552 30.688H95.2802V31.78H87.1162V28.361H88.4552V30.688ZM107.13 20.236V32.014H105.778V25.189H103.269V24.097H105.778V20.236H107.13ZM101.631 23.148C101.631 25.319 102.736 27.464 104.543 28.296L103.75 29.375C102.398 28.712 101.475 27.425 100.968 25.852C100.448 27.529 99.4992 28.881 98.1472 29.57L97.3022 28.504C99.1352 27.607 100.279 25.345 100.279 23.148V21.211H101.631V23.148ZM121.505 20.249V32.001H120.231V25.995H118.944V31.455H117.683V20.47H118.944V24.89H120.231V20.249H121.505ZM115.005 23.304C115.005 25.436 115.746 27.334 117.449 28.231L116.669 29.258C115.525 28.647 114.823 27.581 114.394 26.281C113.991 27.802 113.237 28.972 112.08 29.661L111.261 28.66C112.964 27.659 113.705 25.631 113.705 23.304V22.654H111.586V21.549H116.968V22.654H115.005V23.304ZM131.366 23.213V20.262H132.705V27.256H131.366V24.305H129.286V23.213H131.366ZM129.299 26.879C127.999 26.424 127.076 25.514 126.569 24.37C126.049 25.67 125.074 26.684 123.67 27.191L122.981 26.125C124.801 25.475 125.854 23.915 125.854 22.303V22.134H123.371V21.055H129.65V22.134H127.206V22.29C127.206 23.785 128.194 25.202 129.962 25.826L129.299 26.879ZM128.805 27.568C131.249 27.568 132.757 28.387 132.757 29.791C132.757 31.195 131.249 32.014 128.805 32.014C126.348 32.014 124.84 31.195 124.84 29.791C124.84 28.387 126.348 27.568 128.805 27.568ZM128.805 30.974C130.482 30.974 131.418 30.571 131.418 29.791C131.418 29.011 130.482 28.608 128.805 28.608C127.128 28.608 126.179 29.011 126.179 29.791C126.179 30.571 127.128 30.974 128.805 30.974ZM142.917 24.838H140.811V23.759H142.917V22.68H140.811V21.601H142.917V20.262H144.256V26.398H142.917V24.838ZM140.733 25.826C139.069 26.073 137.717 26.086 135.845 26.086H135V22.914H138.744V21.835H134.974V20.808H140.07V23.889H136.313V25.046C137.938 25.046 139.147 24.994 140.629 24.786L140.733 25.826ZM144.672 30.896V31.923H136.56V28.894H142.93V27.945H136.534V26.931H144.256V29.856H137.873V30.896H144.672ZM158.268 20.262V32.001H156.929V20.262H158.268ZM154.81 21.497C154.81 24.994 153.406 27.958 149.376 29.908L148.661 28.842C151.742 27.347 153.211 25.293 153.432 22.589H149.246V21.497H154.81ZM169.546 24.461H161.525V20.483H162.864V23.382H169.546V24.461ZM170.755 25.644V26.736H160.134V25.644H170.755ZM165.412 27.646C167.999 27.646 169.455 28.413 169.455 29.817C169.455 31.182 167.934 31.975 165.412 31.975C162.903 31.975 161.369 31.182 161.369 29.817C161.369 28.426 162.903 27.646 165.412 27.646ZM165.412 30.935C167.141 30.935 168.103 30.545 168.103 29.817C168.103 29.076 167.141 28.699 165.412 28.699C163.683 28.699 162.734 29.076 162.734 29.817C162.734 30.545 163.683 30.935 165.412 30.935ZM181.344 20.249V32.027H179.992V20.249H181.344ZM175.091 21.12C176.846 21.12 178.12 22.732 178.12 25.254C178.12 27.802 176.846 29.401 175.091 29.401C173.362 29.401 172.075 27.802 172.075 25.254C172.075 22.732 173.362 21.12 175.091 21.12ZM175.091 22.329C174.051 22.329 173.362 23.421 173.362 25.254C173.362 27.139 174.051 28.205 175.091 28.205C176.131 28.205 176.833 27.139 176.833 25.254C176.833 23.421 176.131 22.329 175.091 22.329ZM186.346 25.501C188.621 25.228 190.246 23.993 190.35 22.732H186.736V21.653H190.363V20.262H191.702V21.653H195.342V22.732H191.715C191.819 23.993 193.444 25.228 195.719 25.501L195.238 26.554C193.301 26.307 191.806 25.462 191.026 24.266C190.246 25.462 188.751 26.294 186.814 26.554L186.346 25.501ZM196.343 28.426H191.702V32.027H190.363V28.426H185.735V27.321H196.343V28.426ZM208.154 26.008H206.373V31.988H205.034V20.249H206.373V24.89H208.154V26.008ZM203.305 21.497C203.305 24.903 201.849 27.919 198.014 29.856L197.273 28.829C200.12 27.36 201.693 25.28 201.966 22.589H197.858V21.497H203.305ZM218.496 20.236V32.027H217.144V20.236H218.496ZM213.374 28.387C214.414 28.348 215.441 28.283 216.429 28.166L216.533 29.154C213.998 29.57 211.281 29.583 209.058 29.583L208.889 28.478C209.89 28.478 210.93 28.465 212.035 28.439V26.268H209.708V21.328H215.714V22.42H211.047V25.189H215.766V26.268H213.374V28.387ZM226.589 24.214C226.342 25.54 225.159 26.45 223.612 26.45C221.844 26.45 220.557 25.306 220.557 23.681C220.557 22.043 221.844 20.899 223.612 20.899C225.146 20.899 226.303 21.783 226.589 23.109H228.773V20.262H230.112V26.905H228.773V24.214H226.589ZM223.612 22.004C222.585 22.004 221.831 22.693 221.831 23.681C221.831 24.669 222.585 25.345 223.612 25.345C224.626 25.345 225.367 24.669 225.367 23.681C225.367 22.68 224.652 22.004 223.612 22.004ZM228.916 27.932C228.916 29.141 229.683 30.389 231.204 30.87L230.541 31.858C229.397 31.455 228.643 30.675 228.24 29.726C227.863 30.662 227.187 31.507 226.095 31.962C225.003 31.533 224.301 30.714 223.937 29.765C223.521 30.701 222.767 31.442 221.675 31.858L221.012 30.87C222.52 30.35 223.3 29.076 223.3 27.932V27.36H224.6V27.932C224.6 28.972 225.042 29.999 226.082 30.662C227.135 29.921 227.603 28.868 227.603 27.932V27.36H228.916V27.932ZM241.689 20.249V32.027H240.337V25.722H238.062C237.919 27.997 236.697 29.401 235.098 29.401C233.369 29.401 232.134 27.802 232.134 25.254C232.134 22.732 233.369 21.12 235.098 21.12C236.671 21.12 237.88 22.485 238.049 24.63H240.337V20.249H241.689ZM235.098 28.205C236.138 28.205 236.801 27.139 236.801 25.254C236.801 23.421 236.138 22.329 235.098 22.329C234.097 22.329 233.408 23.421 233.408 25.254C233.408 27.139 234.097 28.205 235.098 28.205ZM254.124 29.466V30.558H243.49V29.466H245.973V26.411C245.037 25.891 244.478 25.046 244.478 24.006C244.478 22.134 246.285 20.938 248.794 20.938C251.29 20.938 253.11 22.134 253.11 24.006C253.11 25.046 252.551 25.878 251.615 26.411V29.466H254.124ZM248.794 21.991C247.013 21.991 245.778 22.771 245.778 24.006C245.778 25.254 247.013 26.034 248.794 26.034C250.562 26.034 251.797 25.254 251.797 24.006C251.797 22.771 250.562 21.991 248.794 21.991ZM247.312 29.466H250.276V26.905C249.821 27.022 249.314 27.074 248.794 27.074C248.261 27.074 247.767 27.022 247.312 26.918V29.466ZM257.108 28.322H256.107L255.899 22.745L255.86 21.211H257.368L257.108 28.322ZM255.847 31.169V29.557H257.381V31.169H255.847Z" fill="black"/>
<path d="M202.305 64.4519C202.164 64.3951 202.164 64.0073 202.305 63.9505C203.18 63.5968 204.649 62.8541 205.418 61.6293C206.182 60.4121 206.64 58.1026 206.853 56.7579C206.888 56.5391 207.126 56.5338 207.165 56.751C207.405 58.0959 207.907 60.4135 208.691 61.6293C209.47 62.8361 210.942 63.6028 211.779 63.9616C211.916 64.0203 211.916 64.3821 211.779 64.4408C210.942 64.7996 209.47 65.5662 208.691 66.773C207.907 67.9888 207.405 70.3064 207.165 71.6513C207.126 71.8685 206.888 71.8633 206.853 71.6445C206.64 70.2997 206.182 67.9903 205.418 66.773C204.649 65.5483 203.18 64.8056 202.305 64.4519Z" fill="#FDE047"/>
<g clip-path="url(#clip1_1067_23437)">
<path d="M212.983 56.7569C212.899 56.7228 212.899 56.4901 212.983 56.456C213.508 56.2438 214.39 55.7982 214.851 55.0633C215.309 54.333 215.584 52.9473 215.712 52.1405C215.733 52.0092 215.876 52.0061 215.899 52.1364C216.043 52.9433 216.344 54.3339 216.815 55.0633C217.282 55.7874 218.165 56.2474 218.667 56.4627C218.749 56.4979 218.749 56.715 218.667 56.7502C218.165 56.9655 217.282 57.4255 216.815 58.1496C216.344 58.879 216.043 60.2696 215.899 61.0765C215.876 61.2068 215.733 61.2037 215.712 61.0724C215.584 60.2656 215.309 58.8799 214.851 58.1496C214.39 57.4147 213.508 56.9691 212.983 56.7569Z" fill="#10B981"/>
</g>
<circle cx="71" cy="26" r="8" fill="#1E293B"/>
<path d="M72.1015 28.39H73.3915V29.5H69.2715V28.39H70.7315V24.32L70.7715 23.67L69.5515 24.78L68.7615 23.88L70.9215 22.02H72.1015V28.39Z" fill="white"/>
</g>
<defs>
<clipPath id="clip0_1067_23437">
<rect width="288" height="112" fill="white"/>
</clipPath>
<clipPath id="clip1_1067_23437">
<rect width="7.20121" height="11.3162" fill="white" transform="translate(211.8 51)"/>
</clipPath>
</defs>
</svg>
