<svg width="24" height="24" viewBox="0 0 24 24" fill="none" xmlns="http://www.w3.org/2000/svg">
<path d="M3 5H16" stroke="#EC986B" stroke-width="2" stroke-linecap="round"/>
<path d="M3 10H8.5" stroke="#EC986B" stroke-width="2" stroke-linecap="round"/>
<path d="M3 15H8" stroke="#EC986B" stroke-width="2" stroke-linecap="round"/>
<path d="M16.4903 11.4448C16.4903 11.4448 16.4903 12.4665 17.5119 13.4881C18.5335 14.5097 19.5552 14.5097 19.5552 14.5097M11.8248 19.9925L13.9702 19.6861C14.2797 19.6418 14.5665 19.4985 14.7875 19.2774L20.5768 13.4881C21.1411 12.9239 21.1411 12.0091 20.5768 11.4448L19.5552 10.4232C18.9909 9.85894 18.0761 9.85894 17.5119 10.4232L11.7226 16.2125C11.5015 16.4335 11.3582 16.7203 11.3139 17.0298L11.0075 19.1752C10.9393 19.652 11.348 20.0607 11.8248 19.9925Z" stroke="#EC986B" stroke-width="2" stroke-linecap="round"/>
</svg>
