<svg width="24" height="24" viewBox="0 0 24 24" fill="none" xmlns="http://www.w3.org/2000/svg">
<path d="M20 10V10C20 8.89543 19.1046 8 18 8H14.6569C13.8394 8 13.4306 8 13.0631 7.84776C12.6955 7.69552 12.4065 7.40649 11.8284 6.82843L11.1716 6.17157C10.5935 5.59351 10.3045 5.30448 9.93694 5.15224C9.5694 5 9.16065 5 8.34315 5H8C6.11438 5 5.17157 5 4.58579 5.58579C4 6.17157 4 7.11438 4 9V15C4 16.8856 4 17.8284 4.58579 18.4142C5.17157 19 6.11438 19 8 19H11" stroke="#94A3B8" stroke-width="2"/>
<path d="M17.9412 13.3003C17.9412 13.3003 17.9412 14.2198 18.8607 15.1393C19.7802 16.0588 20.6997 16.0588 20.6997 16.0588M13.7423 20.9933L15.6732 20.7174C15.9517 20.6777 16.2098 20.5486 16.4088 20.3497L21.6191 15.1393C22.127 14.6315 22.127 13.8081 21.6191 13.3003L20.6997 12.3809C20.1919 11.873 19.3685 11.873 18.8607 12.3809L13.6503 17.5912C13.4514 17.7902 13.3223 18.0483 13.2826 18.3268L13.0067 20.2577C12.9454 20.6868 13.3132 21.0546 13.7423 20.9933Z" stroke="#94A3B8" stroke-width="2" stroke-linecap="round"/>
</svg>
