<svg width="159" height="123" viewBox="0 0 159 123" fill="none" xmlns="http://www.w3.org/2000/svg">
<path d="M61.3261 6.992C61.3021 7.064 61.2181 7.148 61.0741 7.244C60.9301 7.34 60.8101 7.388 60.7141 7.388C60.1981 7.34 59.6821 7.298 59.1661 7.262C58.6621 7.226 58.1461 7.202 57.6181 7.19C57.6901 7.61 57.7561 8.03 57.8161 8.45C57.8881 8.87 57.9541 9.29 58.0141 9.71C59.0341 9.674 60.0421 9.62 61.0381 9.548C61.2061 9.548 61.3741 9.602 61.5421 9.71C61.7101 9.818 61.7941 9.92 61.7941 10.016C61.7941 10.148 61.7401 10.268 61.6321 10.376C61.5241 10.472 61.3921 10.532 61.2361 10.556C60.7321 10.64 60.2221 10.706 59.7061 10.754C59.2021 10.79 58.6861 10.82 58.1581 10.844C58.2181 11.264 58.2661 11.684 58.3021 12.104C58.3501 12.512 58.3921 12.92 58.4281 13.328C58.4521 13.496 58.4341 13.676 58.3741 13.868C58.3261 14.048 58.2421 14.138 58.1221 14.138C58.0141 14.138 57.9121 14.108 57.8161 14.048C57.7201 13.988 57.6301 13.922 57.5461 13.85C57.4741 13.766 57.4141 13.676 57.3661 13.58C57.3181 13.484 57.2881 13.4 57.2761 13.328C57.1561 12.296 57.0241 11.27 56.8801 10.25C56.7481 9.23 56.5981 8.204 56.4301 7.172H55.8361C55.6681 7.172 55.5121 7.154 55.3681 7.118C55.2241 7.082 55.1161 6.992 55.0441 6.848C55.0201 6.812 55.0021 6.752 54.9901 6.668C54.9901 6.584 54.9961 6.5 55.0081 6.416C55.0321 6.332 55.0681 6.254 55.1161 6.182C55.1641 6.11 55.2301 6.062 55.3141 6.038C55.7821 5.966 56.2801 5.936 56.8081 5.948C57.3481 5.96 57.8701 5.996 58.3741 6.056C58.8901 6.104 59.3701 6.176 59.8141 6.272C60.2701 6.368 60.6601 6.47 60.9841 6.578C61.1881 6.698 61.3021 6.836 61.3261 6.992ZM65.3578 7.406C65.3338 7.526 65.2498 7.592 65.1058 7.604C64.9618 7.616 64.8418 7.622 64.7458 7.622C64.4458 7.634 64.1338 7.664 63.8098 7.712C63.4978 7.76 63.1678 7.832 62.8198 7.928C62.6758 7.976 62.5198 7.958 62.3518 7.874C62.1838 7.79 62.0818 7.622 62.0458 7.37C62.0458 7.274 62.0818 7.196 62.1538 7.136C62.2258 7.076 62.3098 7.022 62.4058 6.974C62.5618 6.902 62.7478 6.842 62.9638 6.794C63.1798 6.734 63.3958 6.692 63.6118 6.668C63.8398 6.644 64.0558 6.638 64.2598 6.65C64.4638 6.65 64.6318 6.668 64.7638 6.704C64.9558 6.764 65.1058 6.854 65.2138 6.974C65.3338 7.094 65.3818 7.238 65.3578 7.406ZM64.9438 13.4C65.0278 13.592 65.0698 13.802 65.0698 14.03C65.0818 14.246 65.0218 14.396 64.8898 14.48C64.7218 14.588 64.5418 14.582 64.3498 14.462C64.1578 14.342 64.0138 14.18 63.9178 13.976C63.7858 13.724 63.6838 13.418 63.6118 13.058C63.5398 12.686 63.4858 12.32 63.4498 11.96C63.4138 11.6 63.3898 11.264 63.3778 10.952C63.3778 10.64 63.3778 10.406 63.3778 10.25C63.3898 10.082 63.4378 9.926 63.5218 9.782C63.6058 9.638 63.7138 9.554 63.8458 9.53C64.0618 9.542 64.2358 9.644 64.3678 9.836C64.4998 10.016 64.5598 10.244 64.5478 10.52C64.5478 10.736 64.5538 10.976 64.5658 11.24C64.5778 11.504 64.6018 11.768 64.6378 12.032C64.6738 12.296 64.7158 12.554 64.7638 12.806C64.8118 13.046 64.8718 13.244 64.9438 13.4ZM69.5612 9.782C69.6572 9.914 69.7472 10.082 69.8312 10.286C69.9272 10.478 69.9992 10.676 70.0472 10.88C70.1192 11.204 70.1972 11.558 70.2812 11.942C70.3772 12.314 70.4672 12.704 70.5512 13.112C70.6472 13.52 70.7312 13.934 70.8032 14.354C70.8872 14.774 70.9592 15.176 71.0192 15.56C71.0912 16.088 71.0492 16.592 70.8932 17.072C70.7492 17.564 70.5032 18.002 70.1552 18.386C69.8072 18.77 69.3752 19.076 68.8592 19.304C68.3432 19.532 67.7612 19.658 67.1132 19.682C66.9692 19.67 66.8192 19.598 66.6632 19.466C66.5072 19.346 66.4292 19.22 66.4292 19.088C66.4172 18.956 66.4772 18.848 66.6092 18.764C66.7532 18.692 66.8972 18.644 67.0412 18.62C67.2932 18.596 67.5512 18.542 67.8152 18.458C68.0912 18.386 68.3492 18.278 68.5892 18.134C68.8292 17.99 69.0452 17.816 69.2372 17.612C69.4412 17.408 69.5972 17.168 69.7052 16.892C69.7892 16.676 69.8312 16.412 69.8312 16.1C69.8312 15.776 69.8072 15.458 69.7592 15.146C69.7232 14.834 69.6692 14.54 69.5972 14.264C69.5372 13.976 69.4832 13.76 69.4352 13.616C69.3512 13.7 69.2432 13.79 69.1112 13.886C68.9912 13.982 68.8532 14.072 68.6972 14.156C68.5412 14.24 68.3672 14.306 68.1752 14.354C67.9952 14.402 67.8092 14.42 67.6172 14.408C67.4132 14.396 67.2212 14.324 67.0412 14.192C66.8732 14.06 66.7232 13.892 66.5912 13.688C66.4592 13.472 66.3512 13.226 66.2672 12.95C66.1952 12.674 66.1592 12.386 66.1592 12.086C66.1832 11.366 66.3632 10.73 66.6992 10.178C67.0472 9.614 67.5992 9.176 68.3552 8.864C68.4152 8.852 68.4932 8.84 68.5892 8.828C68.6972 8.816 68.8052 8.816 68.9132 8.828C69.0212 8.828 69.1232 8.84 69.2192 8.864C69.3272 8.888 69.4172 8.924 69.4892 8.972C69.6212 9.068 69.6872 9.206 69.6872 9.386C69.6872 9.566 69.6452 9.698 69.5612 9.782ZM67.2932 12.248C67.2932 12.38 67.3052 12.53 67.3292 12.698C67.3532 12.854 67.4312 12.968 67.5632 13.04C67.7072 13.124 67.8812 13.136 68.0852 13.076C68.3012 13.016 68.4992 12.914 68.6792 12.77C68.8472 12.638 68.9552 12.494 69.0032 12.338C69.0632 12.17 69.0632 11.948 69.0032 11.672C68.9432 11.396 68.8772 11.108 68.8052 10.808C68.7332 10.508 68.6852 10.238 68.6612 9.998C68.5172 10.07 68.3612 10.172 68.1932 10.304C68.0372 10.436 67.8932 10.604 67.7612 10.808C67.6292 11 67.5152 11.216 67.4192 11.456C67.3352 11.696 67.2932 11.96 67.2932 12.248ZM73.2368 6.776C73.2368 7.064 73.2308 7.388 73.2188 7.748C73.2188 8.108 73.2188 8.48 73.2188 8.864C73.2308 9.248 73.2368 9.644 73.2368 10.052C73.2488 10.46 73.2608 10.85 73.2728 11.222C73.3928 10.982 73.5368 10.748 73.7048 10.52C73.8728 10.28 74.0588 10.07 74.2628 9.89C74.4788 9.71 74.7008 9.566 74.9288 9.458C75.1688 9.35 75.4268 9.296 75.7028 9.296C76.0028 9.296 76.2668 9.392 76.4948 9.584C76.7348 9.776 76.9388 10.034 77.1068 10.358C77.2868 10.67 77.4368 11.024 77.5568 11.42C77.6768 11.804 77.7728 12.2 77.8448 12.608C77.9288 13.004 77.9888 13.388 78.0248 13.76C78.0608 14.12 78.0908 14.432 78.1148 14.696C78.1148 14.888 78.0668 15.044 77.9708 15.164C77.8748 15.284 77.7608 15.344 77.6288 15.344C77.5328 15.344 77.4128 15.284 77.2688 15.164C77.1368 15.032 77.0408 14.876 76.9808 14.696C76.9448 14.552 76.9088 14.342 76.8728 14.066C76.8368 13.79 76.7948 13.496 76.7468 13.184C76.6988 12.86 76.6388 12.536 76.5668 12.212C76.4948 11.888 76.4048 11.6 76.2968 11.348C76.2008 11.084 76.0808 10.88 75.9368 10.736C75.7928 10.592 75.6248 10.538 75.4328 10.574C75.1328 10.634 74.8688 10.844 74.6408 11.204C74.4248 11.564 74.2328 11.972 74.0648 12.428C73.9088 12.884 73.7768 13.346 73.6688 13.814C73.5728 14.282 73.5008 14.66 73.4528 14.948C73.4048 15.164 73.3388 15.314 73.2548 15.398C73.1828 15.47 73.0988 15.506 73.0028 15.506C72.9068 15.506 72.8168 15.458 72.7328 15.362C72.6608 15.266 72.5888 15.152 72.5168 15.02C72.4568 14.876 72.4028 14.732 72.3548 14.588C72.3068 14.432 72.2768 14.3 72.2648 14.192C72.2048 13.544 72.1568 12.926 72.1208 12.338C72.0848 11.738 72.0548 11.138 72.0308 10.538C72.0188 9.938 72.0128 9.326 72.0128 8.702C72.0128 8.066 72.0248 7.388 72.0488 6.668C72.0488 6.068 72.2648 5.798 72.6968 5.858C72.8408 5.882 72.9668 5.99 73.0748 6.182C73.1828 6.362 73.2368 6.56 73.2368 6.776ZM83.0903 9.926C83.3183 9.914 83.5463 9.968 83.7743 10.088C84.0023 10.208 84.1163 10.394 84.1163 10.646C84.0923 10.85 83.9783 10.982 83.7743 11.042C83.5823 11.09 83.4263 11.114 83.3063 11.114C83.0663 11.114 82.8083 11.12 82.5323 11.132C82.2563 11.144 81.9743 11.162 81.6863 11.186C81.6623 11.582 81.6383 11.954 81.6143 12.302C81.6023 12.65 81.5903 12.962 81.5783 13.238C81.5663 13.502 81.5603 13.718 81.5603 13.886C81.5603 14.054 81.5663 14.144 81.5783 14.156C81.8423 14.108 82.1243 14.03 82.4243 13.922C82.7363 13.802 83.0423 13.676 83.3423 13.544C83.6543 13.4 83.9543 13.256 84.2423 13.112C84.5423 12.956 84.8243 12.812 85.0883 12.68C85.2083 12.62 85.3163 12.602 85.4123 12.626C85.5203 12.65 85.5863 12.704 85.6103 12.788C85.6343 12.92 85.6163 13.082 85.5563 13.274C85.4963 13.466 85.3883 13.64 85.2323 13.796C85.0523 13.94 84.8123 14.108 84.5123 14.3C84.2243 14.48 83.9123 14.654 83.5763 14.822C83.2403 14.99 82.8983 15.14 82.5503 15.272C82.2143 15.392 81.9143 15.464 81.6503 15.488C81.2543 15.524 80.9543 15.416 80.7503 15.164C80.5463 14.912 80.4323 14.594 80.4083 14.21C80.3843 13.826 80.3783 13.382 80.3903 12.878C80.4143 12.374 80.4383 11.84 80.4623 11.276C80.2343 11.3 80.0123 11.324 79.7963 11.348C79.5923 11.36 79.3943 11.378 79.2023 11.402C79.0463 11.402 78.8723 11.366 78.6803 11.294C78.5003 11.222 78.4103 11.084 78.4103 10.88C78.4103 10.808 78.4403 10.712 78.5003 10.592C78.5603 10.472 78.6923 10.382 78.8963 10.322C79.3883 10.238 79.9343 10.166 80.5343 10.106C80.5703 9.542 80.6123 8.996 80.6603 8.468C80.7083 7.94 80.7503 7.46 80.7863 7.028C80.7983 6.884 80.8403 6.758 80.9123 6.65C80.9843 6.542 81.0623 6.488 81.1463 6.488C81.3503 6.476 81.5423 6.53 81.7223 6.65C81.9143 6.758 82.0103 6.884 82.0103 7.028C81.9623 7.436 81.9143 7.898 81.8663 8.414C81.8303 8.93 81.7943 9.458 81.7583 9.998C81.9983 9.974 82.2263 9.962 82.4423 9.962C82.6703 9.95 82.8863 9.938 83.0903 9.926ZM88.968 7.406C88.944 7.526 88.86 7.592 88.716 7.604C88.572 7.616 88.452 7.622 88.356 7.622C88.056 7.634 87.744 7.664 87.42 7.712C87.108 7.76 86.778 7.832 86.43 7.928C86.286 7.976 86.13 7.958 85.962 7.874C85.794 7.79 85.692 7.622 85.656 7.37C85.656 7.274 85.692 7.196 85.764 7.136C85.836 7.076 85.92 7.022 86.016 6.974C86.172 6.902 86.358 6.842 86.574 6.794C86.79 6.734 87.006 6.692 87.222 6.668C87.45 6.644 87.666 6.638 87.87 6.65C88.074 6.65 88.242 6.668 88.374 6.704C88.566 6.764 88.716 6.854 88.824 6.974C88.944 7.094 88.992 7.238 88.968 7.406ZM88.554 13.4C88.638 13.592 88.68 13.802 88.68 14.03C88.692 14.246 88.632 14.396 88.5 14.48C88.332 14.588 88.152 14.582 87.96 14.462C87.768 14.342 87.624 14.18 87.528 13.976C87.396 13.724 87.294 13.418 87.222 13.058C87.15 12.686 87.096 12.32 87.06 11.96C87.024 11.6 87 11.264 86.988 10.952C86.988 10.64 86.988 10.406 86.988 10.25C87 10.082 87.048 9.926 87.132 9.782C87.216 9.638 87.324 9.554 87.456 9.53C87.672 9.542 87.846 9.644 87.978 9.836C88.11 10.016 88.17 10.244 88.158 10.52C88.158 10.736 88.164 10.976 88.176 11.24C88.188 11.504 88.212 11.768 88.248 12.032C88.284 12.296 88.326 12.554 88.374 12.806C88.422 13.046 88.482 13.244 88.554 13.4ZM91.0473 8.81C91.0833 8.99 91.1193 9.194 91.1553 9.422C91.2033 9.638 91.2513 9.866 91.2993 10.106C91.3473 10.334 91.3893 10.568 91.4253 10.808C91.4613 11.048 91.4913 11.276 91.5153 11.492C91.6593 11.18 91.8153 10.85 91.9833 10.502C92.1513 10.154 92.3313 9.836 92.5233 9.548C92.7273 9.248 92.9373 9.002 93.1533 8.81C93.3813 8.618 93.6273 8.522 93.8913 8.522C94.2873 8.522 94.6173 8.666 94.8813 8.954C95.1573 9.242 95.3853 9.602 95.5653 10.034C95.7573 10.454 95.9073 10.898 96.0153 11.366C96.1233 11.834 96.2133 12.248 96.2853 12.608C96.3573 12.932 96.2133 13.172 95.8533 13.328C95.6853 13.412 95.5593 13.424 95.4753 13.364C95.3913 13.304 95.3433 13.244 95.3313 13.184C95.2713 13.04 95.1933 12.788 95.0973 12.428C95.0133 12.068 94.9113 11.702 94.7913 11.33C94.6833 10.958 94.5573 10.634 94.4133 10.358C94.2693 10.082 94.1073 9.956 93.9273 9.98C93.7113 9.992 93.5193 10.154 93.3513 10.466C93.2073 10.718 93.0573 11 92.9013 11.312C92.7573 11.612 92.6133 11.924 92.4693 12.248C92.3253 12.56 92.1813 12.878 92.0373 13.202C91.9053 13.514 91.7793 13.802 91.6593 14.066C91.5753 14.15 91.4673 14.21 91.3353 14.246C91.2153 14.27 91.0893 14.258 90.9573 14.21C90.8373 14.174 90.7413 14.114 90.6693 14.03C90.5973 13.946 90.5613 13.862 90.5613 13.778C90.4533 12.842 90.3393 11.99 90.2193 11.222C90.1113 10.454 89.9673 9.668 89.7873 8.864C89.7033 8.588 89.6853 8.372 89.7333 8.216C89.7933 8.048 89.9733 7.982 90.2733 8.018C90.6933 8.09 90.9513 8.354 91.0473 8.81ZM100.392 9.782C100.488 9.914 100.578 10.082 100.662 10.286C100.758 10.478 100.83 10.676 100.878 10.88C100.95 11.204 101.028 11.558 101.112 11.942C101.208 12.314 101.298 12.704 101.382 13.112C101.478 13.52 101.562 13.934 101.634 14.354C101.718 14.774 101.79 15.176 101.85 15.56C101.922 16.088 101.88 16.592 101.724 17.072C101.58 17.564 101.334 18.002 100.986 18.386C100.638 18.77 100.206 19.076 99.6903 19.304C99.1743 19.532 98.5923 19.658 97.9443 19.682C97.8003 19.67 97.6503 19.598 97.4943 19.466C97.3383 19.346 97.2603 19.22 97.2603 19.088C97.2483 18.956 97.3083 18.848 97.4403 18.764C97.5843 18.692 97.7283 18.644 97.8723 18.62C98.1243 18.596 98.3823 18.542 98.6463 18.458C98.9223 18.386 99.1803 18.278 99.4203 18.134C99.6603 17.99 99.8763 17.816 100.068 17.612C100.272 17.408 100.428 17.168 100.536 16.892C100.62 16.676 100.662 16.412 100.662 16.1C100.662 15.776 100.638 15.458 100.59 15.146C100.554 14.834 100.5 14.54 100.428 14.264C100.368 13.976 100.314 13.76 100.266 13.616C100.182 13.7 100.074 13.79 99.9423 13.886C99.8223 13.982 99.6843 14.072 99.5283 14.156C99.3723 14.24 99.1983 14.306 99.0063 14.354C98.8263 14.402 98.6403 14.42 98.4483 14.408C98.2443 14.396 98.0523 14.324 97.8723 14.192C97.7043 14.06 97.5543 13.892 97.4223 13.688C97.2903 13.472 97.1823 13.226 97.0983 12.95C97.0263 12.674 96.9903 12.386 96.9903 12.086C97.0143 11.366 97.1943 10.73 97.5303 10.178C97.8783 9.614 98.4303 9.176 99.1863 8.864C99.2463 8.852 99.3243 8.84 99.4203 8.828C99.5283 8.816 99.6363 8.816 99.7443 8.828C99.8523 8.828 99.9543 8.84 100.05 8.864C100.158 8.888 100.248 8.924 100.32 8.972C100.452 9.068 100.518 9.206 100.518 9.386C100.518 9.566 100.476 9.698 100.392 9.782ZM98.1243 12.248C98.1243 12.38 98.1363 12.53 98.1603 12.698C98.1843 12.854 98.2623 12.968 98.3943 13.04C98.5383 13.124 98.7123 13.136 98.9163 13.076C99.1323 13.016 99.3303 12.914 99.5103 12.77C99.6783 12.638 99.7863 12.494 99.8343 12.338C99.8943 12.17 99.8943 11.948 99.8343 11.672C99.7743 11.396 99.7083 11.108 99.6363 10.808C99.5643 10.508 99.5163 10.238 99.4923 9.998C99.3483 10.07 99.1923 10.172 99.0243 10.304C98.8683 10.436 98.7243 10.604 98.5923 10.808C98.4603 11 98.3463 11.216 98.2503 11.456C98.1663 11.696 98.1243 11.96 98.1243 12.248ZM105.652 5.318C105.544 5.846 105.43 6.368 105.31 6.884C105.202 7.4 105.1 7.916 105.004 8.432C104.908 8.948 104.836 9.464 104.788 9.98C104.74 10.496 104.734 11.012 104.77 11.528C104.794 11.66 104.77 11.786 104.698 11.906C104.638 12.026 104.566 12.104 104.482 12.14C104.218 12.236 104.026 12.17 103.906 11.942C103.762 11.33 103.684 10.724 103.672 10.124C103.672 9.524 103.714 8.93 103.798 8.342C103.894 7.754 104.014 7.172 104.158 6.596C104.314 6.008 104.47 5.426 104.626 4.85C104.686 4.61 104.782 4.478 104.914 4.454C105.046 4.43 105.172 4.442 105.292 4.49C105.472 4.55 105.586 4.67 105.634 4.85C105.682 5.03 105.688 5.186 105.652 5.318ZM104.932 15.002C104.932 15.134 104.914 15.314 104.878 15.542C104.854 15.758 104.806 15.962 104.734 16.154C104.674 16.346 104.584 16.502 104.464 16.622C104.356 16.742 104.218 16.766 104.05 16.694C103.954 16.634 103.858 16.52 103.762 16.352C103.666 16.184 103.624 16.028 103.636 15.884C103.66 15.596 103.72 15.314 103.816 15.038C103.912 14.762 104.038 14.594 104.194 14.534C104.266 14.51 104.344 14.51 104.428 14.534C104.524 14.558 104.608 14.6 104.68 14.66C104.752 14.708 104.812 14.768 104.86 14.84C104.908 14.9 104.932 14.954 104.932 15.002Z" fill="#94A3B8"/>
<ellipse cx="79.4996" cy="76" rx="47.0025" ry="47" fill="#1E293B"/>
<path d="M72.7339 69.7556C72.7339 71.7393 71.4106 73.1792 69.9676 73.1792C68.5246 73.1792 67.2013 71.7393 67.2013 69.7556C67.2013 67.7719 68.5246 66.3319 69.9676 66.3319C71.4106 66.3319 72.7339 67.7719 72.7339 69.7556Z" fill="#94A3B8" stroke="#94A3B8" stroke-width="1.04079"/>
<path d="M92.4544 69.7556C92.4544 71.7393 91.1311 73.1792 89.6881 73.1792C88.2451 73.1792 86.9218 71.7393 86.9218 69.7556C86.9218 67.7719 88.2451 66.3319 89.6881 66.3319C91.1311 66.3319 92.4544 67.7719 92.4544 69.7556Z" fill="#94A3B8" stroke="#94A3B8" stroke-width="1.04079"/>
<path d="M71.4993 77C72.4993 78.3333 75.4993 81 80.4993 81C85.4993 81 88.6659 78.3333 89.4993 77" stroke="#94A3B8" stroke-width="2" stroke-linecap="round"/>
<path fill-rule="evenodd" clip-rule="evenodd" d="M23.7511 62.8912C22.6274 62.2492 19.8544 59.0871 19.2765 57.3535C18.7903 55.895 18.9587 54.9726 19.1207 54.0849C19.1994 53.6538 19.2765 53.2308 19.2765 52.7586C19.2765 51.3139 14.9037 49.3884 12.4959 52.9999C10.796 55.5497 11.1889 57.9898 11.6358 59.6313C5.46717 59.6677 0.49572 61.641 0.49572 70.4654C0.49572 77.6997 5.56243 81.3001 11.8125 81.3001C14.6349 81.3001 17.216 80.3109 19.1982 78.6749L20.6493 79.131C22.4525 79.6976 24.3315 79.9859 26.2216 79.9859C27.185 79.9859 27.9773 79.2268 28.0185 78.2643L28.5016 66.996C28.6086 64.4998 26.4264 62.5175 23.9519 62.8632L23.7511 62.8912Z" fill="#1E293B"/>
<path fill-rule="evenodd" clip-rule="evenodd" d="M135.254 62.9505C136.377 62.3088 139.148 59.1486 139.726 57.4161C140.212 55.9584 140.043 55.0366 139.881 54.1494C139.803 53.7185 139.726 53.2958 139.726 52.8239C139.726 51.3801 144.096 49.4557 146.502 53.0651C148.201 55.6136 147.808 58.0525 147.362 59.6929C153.527 59.7293 158.496 61.7013 158.496 70.5206C158.496 77.7505 153.432 81.3488 147.185 81.3488C144.365 81.3488 141.785 80.36 139.804 78.7247L138.354 79.1805C136.552 79.7468 134.674 80.0349 132.785 80.0349C131.822 80.0349 131.03 79.2763 130.989 78.3144L130.506 67.0557C130.399 64.5595 132.581 62.5772 135.056 62.9228L135.254 62.9505Z" fill="#1E293B"/>
</svg>
