<svg width="159" height="123" viewBox="0 0 159 123" fill="none" xmlns="http://www.w3.org/2000/svg">
<path d="M61.3264 6.992C61.3024 7.064 61.2184 7.148 61.0744 7.244C60.9304 7.34 60.8104 7.388 60.7144 7.388C60.1984 7.34 59.6824 7.298 59.1664 7.262C58.6624 7.226 58.1464 7.202 57.6184 7.19C57.6904 7.61 57.7564 8.03 57.8164 8.45C57.8884 8.87 57.9544 9.29 58.0144 9.71C59.0344 9.674 60.0424 9.62 61.0384 9.548C61.2064 9.548 61.3744 9.602 61.5424 9.71C61.7104 9.818 61.7944 9.92 61.7944 10.016C61.7944 10.148 61.7404 10.268 61.6324 10.376C61.5244 10.472 61.3924 10.532 61.2364 10.556C60.7324 10.64 60.2224 10.706 59.7064 10.754C59.2024 10.79 58.6864 10.82 58.1584 10.844C58.2184 11.264 58.2664 11.684 58.3024 12.104C58.3504 12.512 58.3924 12.92 58.4284 13.328C58.4524 13.496 58.4344 13.676 58.3744 13.868C58.3264 14.048 58.2424 14.138 58.1224 14.138C58.0144 14.138 57.9124 14.108 57.8164 14.048C57.7204 13.988 57.6304 13.922 57.5464 13.85C57.4744 13.766 57.4144 13.676 57.3664 13.58C57.3184 13.484 57.2884 13.4 57.2764 13.328C57.1564 12.296 57.0244 11.27 56.8804 10.25C56.7484 9.23 56.5984 8.204 56.4304 7.172H55.8364C55.6684 7.172 55.5124 7.154 55.3684 7.118C55.2244 7.082 55.1164 6.992 55.0444 6.848C55.0204 6.812 55.0024 6.752 54.9904 6.668C54.9904 6.584 54.9964 6.5 55.0084 6.416C55.0324 6.332 55.0684 6.254 55.1164 6.182C55.1644 6.11 55.2304 6.062 55.3144 6.038C55.7824 5.966 56.2804 5.936 56.8084 5.948C57.3484 5.96 57.8704 5.996 58.3744 6.056C58.8904 6.104 59.3704 6.176 59.8144 6.272C60.2704 6.368 60.6604 6.47 60.9844 6.578C61.1884 6.698 61.3024 6.836 61.3264 6.992ZM65.358 7.406C65.334 7.526 65.25 7.592 65.106 7.604C64.962 7.616 64.842 7.622 64.746 7.622C64.446 7.634 64.134 7.664 63.81 7.712C63.498 7.76 63.168 7.832 62.82 7.928C62.676 7.976 62.52 7.958 62.352 7.874C62.184 7.79 62.082 7.622 62.046 7.37C62.046 7.274 62.082 7.196 62.154 7.136C62.226 7.076 62.31 7.022 62.406 6.974C62.562 6.902 62.748 6.842 62.964 6.794C63.18 6.734 63.396 6.692 63.612 6.668C63.84 6.644 64.056 6.638 64.26 6.65C64.464 6.65 64.632 6.668 64.764 6.704C64.956 6.764 65.106 6.854 65.214 6.974C65.334 7.094 65.382 7.238 65.358 7.406ZM64.944 13.4C65.028 13.592 65.07 13.802 65.07 14.03C65.082 14.246 65.022 14.396 64.89 14.48C64.722 14.588 64.542 14.582 64.35 14.462C64.158 14.342 64.014 14.18 63.918 13.976C63.786 13.724 63.684 13.418 63.612 13.058C63.54 12.686 63.486 12.32 63.45 11.96C63.414 11.6 63.39 11.264 63.378 10.952C63.378 10.64 63.378 10.406 63.378 10.25C63.39 10.082 63.438 9.926 63.522 9.782C63.606 9.638 63.714 9.554 63.846 9.53C64.062 9.542 64.236 9.644 64.368 9.836C64.5 10.016 64.56 10.244 64.548 10.52C64.548 10.736 64.554 10.976 64.566 11.24C64.578 11.504 64.602 11.768 64.638 12.032C64.674 12.296 64.716 12.554 64.764 12.806C64.812 13.046 64.872 13.244 64.944 13.4ZM69.5614 9.782C69.6574 9.914 69.7474 10.082 69.8314 10.286C69.9274 10.478 69.9994 10.676 70.0474 10.88C70.1194 11.204 70.1974 11.558 70.2814 11.942C70.3774 12.314 70.4674 12.704 70.5514 13.112C70.6474 13.52 70.7314 13.934 70.8034 14.354C70.8874 14.774 70.9594 15.176 71.0194 15.56C71.0914 16.088 71.0494 16.592 70.8934 17.072C70.7494 17.564 70.5034 18.002 70.1554 18.386C69.8074 18.77 69.3754 19.076 68.8594 19.304C68.3434 19.532 67.7614 19.658 67.1134 19.682C66.9694 19.67 66.8194 19.598 66.6634 19.466C66.5074 19.346 66.4294 19.22 66.4294 19.088C66.4174 18.956 66.4774 18.848 66.6094 18.764C66.7534 18.692 66.8974 18.644 67.0414 18.62C67.2934 18.596 67.5514 18.542 67.8154 18.458C68.0914 18.386 68.3494 18.278 68.5894 18.134C68.8294 17.99 69.0454 17.816 69.2374 17.612C69.4414 17.408 69.5974 17.168 69.7054 16.892C69.7894 16.676 69.8314 16.412 69.8314 16.1C69.8314 15.776 69.8074 15.458 69.7594 15.146C69.7234 14.834 69.6694 14.54 69.5974 14.264C69.5374 13.976 69.4834 13.76 69.4354 13.616C69.3514 13.7 69.2434 13.79 69.1114 13.886C68.9914 13.982 68.8534 14.072 68.6974 14.156C68.5414 14.24 68.3674 14.306 68.1754 14.354C67.9954 14.402 67.8094 14.42 67.6174 14.408C67.4134 14.396 67.2214 14.324 67.0414 14.192C66.8734 14.06 66.7234 13.892 66.5914 13.688C66.4594 13.472 66.3514 13.226 66.2674 12.95C66.1954 12.674 66.1594 12.386 66.1594 12.086C66.1834 11.366 66.3634 10.73 66.6994 10.178C67.0474 9.614 67.5994 9.176 68.3554 8.864C68.4154 8.852 68.4934 8.84 68.5894 8.828C68.6974 8.816 68.8054 8.816 68.9134 8.828C69.0214 8.828 69.1234 8.84 69.2194 8.864C69.3274 8.888 69.4174 8.924 69.4894 8.972C69.6214 9.068 69.6874 9.206 69.6874 9.386C69.6874 9.566 69.6454 9.698 69.5614 9.782ZM67.2934 12.248C67.2934 12.38 67.3054 12.53 67.3294 12.698C67.3534 12.854 67.4314 12.968 67.5634 13.04C67.7074 13.124 67.8814 13.136 68.0854 13.076C68.3014 13.016 68.4994 12.914 68.6794 12.77C68.8474 12.638 68.9554 12.494 69.0034 12.338C69.0634 12.17 69.0634 11.948 69.0034 11.672C68.9434 11.396 68.8774 11.108 68.8054 10.808C68.7334 10.508 68.6854 10.238 68.6614 9.998C68.5174 10.07 68.3614 10.172 68.1934 10.304C68.0374 10.436 67.8934 10.604 67.7614 10.808C67.6294 11 67.5154 11.216 67.4194 11.456C67.3354 11.696 67.2934 11.96 67.2934 12.248ZM73.237 6.776C73.237 7.064 73.231 7.388 73.219 7.748C73.219 8.108 73.219 8.48 73.219 8.864C73.231 9.248 73.237 9.644 73.237 10.052C73.249 10.46 73.261 10.85 73.273 11.222C73.393 10.982 73.537 10.748 73.705 10.52C73.873 10.28 74.059 10.07 74.263 9.89C74.479 9.71 74.701 9.566 74.929 9.458C75.169 9.35 75.427 9.296 75.703 9.296C76.003 9.296 76.267 9.392 76.495 9.584C76.735 9.776 76.939 10.034 77.107 10.358C77.287 10.67 77.437 11.024 77.557 11.42C77.677 11.804 77.773 12.2 77.845 12.608C77.929 13.004 77.989 13.388 78.025 13.76C78.061 14.12 78.091 14.432 78.115 14.696C78.115 14.888 78.067 15.044 77.971 15.164C77.875 15.284 77.761 15.344 77.629 15.344C77.533 15.344 77.413 15.284 77.269 15.164C77.137 15.032 77.041 14.876 76.981 14.696C76.945 14.552 76.909 14.342 76.873 14.066C76.837 13.79 76.795 13.496 76.747 13.184C76.699 12.86 76.639 12.536 76.567 12.212C76.495 11.888 76.405 11.6 76.297 11.348C76.201 11.084 76.081 10.88 75.937 10.736C75.793 10.592 75.625 10.538 75.433 10.574C75.133 10.634 74.869 10.844 74.641 11.204C74.425 11.564 74.233 11.972 74.065 12.428C73.909 12.884 73.777 13.346 73.669 13.814C73.573 14.282 73.501 14.66 73.453 14.948C73.405 15.164 73.339 15.314 73.255 15.398C73.183 15.47 73.099 15.506 73.003 15.506C72.907 15.506 72.817 15.458 72.733 15.362C72.661 15.266 72.589 15.152 72.517 15.02C72.457 14.876 72.403 14.732 72.355 14.588C72.307 14.432 72.277 14.3 72.265 14.192C72.205 13.544 72.157 12.926 72.121 12.338C72.085 11.738 72.055 11.138 72.031 10.538C72.019 9.938 72.013 9.326 72.013 8.702C72.013 8.066 72.025 7.388 72.049 6.668C72.049 6.068 72.265 5.798 72.697 5.858C72.841 5.882 72.967 5.99 73.075 6.182C73.183 6.362 73.237 6.56 73.237 6.776ZM83.0906 9.926C83.3186 9.914 83.5466 9.968 83.7746 10.088C84.0026 10.208 84.1166 10.394 84.1166 10.646C84.0926 10.85 83.9786 10.982 83.7746 11.042C83.5826 11.09 83.4266 11.114 83.3066 11.114C83.0666 11.114 82.8086 11.12 82.5326 11.132C82.2566 11.144 81.9746 11.162 81.6866 11.186C81.6626 11.582 81.6386 11.954 81.6146 12.302C81.6026 12.65 81.5906 12.962 81.5786 13.238C81.5666 13.502 81.5606 13.718 81.5606 13.886C81.5606 14.054 81.5666 14.144 81.5786 14.156C81.8426 14.108 82.1246 14.03 82.4246 13.922C82.7366 13.802 83.0426 13.676 83.3426 13.544C83.6546 13.4 83.9546 13.256 84.2426 13.112C84.5426 12.956 84.8246 12.812 85.0886 12.68C85.2086 12.62 85.3166 12.602 85.4126 12.626C85.5206 12.65 85.5866 12.704 85.6106 12.788C85.6346 12.92 85.6166 13.082 85.5566 13.274C85.4966 13.466 85.3886 13.64 85.2326 13.796C85.0526 13.94 84.8126 14.108 84.5126 14.3C84.2246 14.48 83.9126 14.654 83.5766 14.822C83.2406 14.99 82.8986 15.14 82.5506 15.272C82.2146 15.392 81.9146 15.464 81.6506 15.488C81.2546 15.524 80.9546 15.416 80.7506 15.164C80.5466 14.912 80.4326 14.594 80.4086 14.21C80.3846 13.826 80.3786 13.382 80.3906 12.878C80.4146 12.374 80.4386 11.84 80.4626 11.276C80.2346 11.3 80.0126 11.324 79.7966 11.348C79.5926 11.36 79.3946 11.378 79.2026 11.402C79.0466 11.402 78.8726 11.366 78.6806 11.294C78.5006 11.222 78.4106 11.084 78.4106 10.88C78.4106 10.808 78.4406 10.712 78.5006 10.592C78.5606 10.472 78.6926 10.382 78.8966 10.322C79.3886 10.238 79.9346 10.166 80.5346 10.106C80.5706 9.542 80.6126 8.996 80.6606 8.468C80.7086 7.94 80.7506 7.46 80.7866 7.028C80.7986 6.884 80.8406 6.758 80.9126 6.65C80.9846 6.542 81.0626 6.488 81.1466 6.488C81.3506 6.476 81.5426 6.53 81.7226 6.65C81.9146 6.758 82.0106 6.884 82.0106 7.028C81.9626 7.436 81.9146 7.898 81.8666 8.414C81.8306 8.93 81.7946 9.458 81.7586 9.998C81.9986 9.974 82.2266 9.962 82.4426 9.962C82.6706 9.95 82.8866 9.938 83.0906 9.926ZM88.9682 7.406C88.9442 7.526 88.8602 7.592 88.7162 7.604C88.5722 7.616 88.4522 7.622 88.3562 7.622C88.0562 7.634 87.7442 7.664 87.4202 7.712C87.1082 7.76 86.7782 7.832 86.4302 7.928C86.2862 7.976 86.1302 7.958 85.9622 7.874C85.7942 7.79 85.6922 7.622 85.6562 7.37C85.6562 7.274 85.6922 7.196 85.7642 7.136C85.8362 7.076 85.9202 7.022 86.0162 6.974C86.1722 6.902 86.3582 6.842 86.5742 6.794C86.7902 6.734 87.0062 6.692 87.2222 6.668C87.4502 6.644 87.6662 6.638 87.8702 6.65C88.0742 6.65 88.2422 6.668 88.3742 6.704C88.5662 6.764 88.7162 6.854 88.8242 6.974C88.9442 7.094 88.9922 7.238 88.9682 7.406ZM88.5542 13.4C88.6382 13.592 88.6802 13.802 88.6802 14.03C88.6922 14.246 88.6322 14.396 88.5002 14.48C88.3322 14.588 88.1522 14.582 87.9602 14.462C87.7682 14.342 87.6242 14.18 87.5282 13.976C87.3962 13.724 87.2942 13.418 87.2222 13.058C87.1502 12.686 87.0962 12.32 87.0602 11.96C87.0242 11.6 87.0002 11.264 86.9882 10.952C86.9882 10.64 86.9882 10.406 86.9882 10.25C87.0002 10.082 87.0482 9.926 87.1322 9.782C87.2162 9.638 87.3242 9.554 87.4562 9.53C87.6722 9.542 87.8462 9.644 87.9782 9.836C88.1102 10.016 88.1702 10.244 88.1582 10.52C88.1582 10.736 88.1642 10.976 88.1762 11.24C88.1882 11.504 88.2122 11.768 88.2482 12.032C88.2842 12.296 88.3262 12.554 88.3742 12.806C88.4222 13.046 88.4822 13.244 88.5542 13.4ZM91.0476 8.81C91.0836 8.99 91.1196 9.194 91.1556 9.422C91.2036 9.638 91.2516 9.866 91.2996 10.106C91.3476 10.334 91.3896 10.568 91.4256 10.808C91.4616 11.048 91.4916 11.276 91.5156 11.492C91.6596 11.18 91.8156 10.85 91.9836 10.502C92.1516 10.154 92.3316 9.836 92.5236 9.548C92.7276 9.248 92.9376 9.002 93.1536 8.81C93.3816 8.618 93.6276 8.522 93.8916 8.522C94.2876 8.522 94.6176 8.666 94.8816 8.954C95.1576 9.242 95.3856 9.602 95.5656 10.034C95.7576 10.454 95.9076 10.898 96.0156 11.366C96.1236 11.834 96.2136 12.248 96.2856 12.608C96.3576 12.932 96.2136 13.172 95.8536 13.328C95.6856 13.412 95.5596 13.424 95.4756 13.364C95.3916 13.304 95.3436 13.244 95.3316 13.184C95.2716 13.04 95.1936 12.788 95.0976 12.428C95.0136 12.068 94.9116 11.702 94.7916 11.33C94.6836 10.958 94.5576 10.634 94.4136 10.358C94.2696 10.082 94.1076 9.956 93.9276 9.98C93.7116 9.992 93.5196 10.154 93.3516 10.466C93.2076 10.718 93.0576 11 92.9016 11.312C92.7576 11.612 92.6136 11.924 92.4696 12.248C92.3256 12.56 92.1816 12.878 92.0376 13.202C91.9056 13.514 91.7796 13.802 91.6596 14.066C91.5756 14.15 91.4676 14.21 91.3356 14.246C91.2156 14.27 91.0896 14.258 90.9576 14.21C90.8376 14.174 90.7416 14.114 90.6696 14.03C90.5976 13.946 90.5616 13.862 90.5616 13.778C90.4536 12.842 90.3396 11.99 90.2196 11.222C90.1116 10.454 89.9676 9.668 89.7876 8.864C89.7036 8.588 89.6856 8.372 89.7336 8.216C89.7936 8.048 89.9736 7.982 90.2736 8.018C90.6936 8.09 90.9516 8.354 91.0476 8.81ZM100.393 9.782C100.489 9.914 100.579 10.082 100.663 10.286C100.759 10.478 100.831 10.676 100.879 10.88C100.951 11.204 101.029 11.558 101.113 11.942C101.209 12.314 101.299 12.704 101.383 13.112C101.479 13.52 101.563 13.934 101.635 14.354C101.719 14.774 101.791 15.176 101.851 15.56C101.923 16.088 101.881 16.592 101.725 17.072C101.581 17.564 101.335 18.002 100.987 18.386C100.639 18.77 100.207 19.076 99.6905 19.304C99.1745 19.532 98.5925 19.658 97.9445 19.682C97.8005 19.67 97.6505 19.598 97.4945 19.466C97.3385 19.346 97.2605 19.22 97.2605 19.088C97.2485 18.956 97.3085 18.848 97.4405 18.764C97.5845 18.692 97.7285 18.644 97.8725 18.62C98.1245 18.596 98.3825 18.542 98.6465 18.458C98.9225 18.386 99.1805 18.278 99.4205 18.134C99.6605 17.99 99.8765 17.816 100.069 17.612C100.273 17.408 100.429 17.168 100.537 16.892C100.621 16.676 100.663 16.412 100.663 16.1C100.663 15.776 100.639 15.458 100.591 15.146C100.555 14.834 100.501 14.54 100.429 14.264C100.369 13.976 100.315 13.76 100.267 13.616C100.183 13.7 100.075 13.79 99.9425 13.886C99.8225 13.982 99.6845 14.072 99.5285 14.156C99.3725 14.24 99.1985 14.306 99.0065 14.354C98.8265 14.402 98.6405 14.42 98.4485 14.408C98.2445 14.396 98.0525 14.324 97.8725 14.192C97.7045 14.06 97.5545 13.892 97.4225 13.688C97.2905 13.472 97.1825 13.226 97.0985 12.95C97.0265 12.674 96.9905 12.386 96.9905 12.086C97.0145 11.366 97.1945 10.73 97.5305 10.178C97.8785 9.614 98.4305 9.176 99.1865 8.864C99.2465 8.852 99.3245 8.84 99.4205 8.828C99.5285 8.816 99.6365 8.816 99.7445 8.828C99.8525 8.828 99.9545 8.84 100.051 8.864C100.159 8.888 100.249 8.924 100.321 8.972C100.453 9.068 100.519 9.206 100.519 9.386C100.519 9.566 100.477 9.698 100.393 9.782ZM98.1245 12.248C98.1245 12.38 98.1365 12.53 98.1605 12.698C98.1845 12.854 98.2625 12.968 98.3945 13.04C98.5385 13.124 98.7125 13.136 98.9165 13.076C99.1325 13.016 99.3305 12.914 99.5105 12.77C99.6785 12.638 99.7865 12.494 99.8345 12.338C99.8945 12.17 99.8945 11.948 99.8345 11.672C99.7745 11.396 99.7085 11.108 99.6365 10.808C99.5645 10.508 99.5165 10.238 99.4925 9.998C99.3485 10.07 99.1925 10.172 99.0245 10.304C98.8685 10.436 98.7245 10.604 98.5925 10.808C98.4605 11 98.3465 11.216 98.2505 11.456C98.1665 11.696 98.1245 11.96 98.1245 12.248ZM105.652 5.318C105.544 5.846 105.43 6.368 105.31 6.884C105.202 7.4 105.1 7.916 105.004 8.432C104.908 8.948 104.836 9.464 104.788 9.98C104.74 10.496 104.734 11.012 104.77 11.528C104.794 11.66 104.77 11.786 104.698 11.906C104.638 12.026 104.566 12.104 104.482 12.14C104.218 12.236 104.026 12.17 103.906 11.942C103.762 11.33 103.684 10.724 103.672 10.124C103.672 9.524 103.714 8.93 103.798 8.342C103.894 7.754 104.014 7.172 104.158 6.596C104.314 6.008 104.47 5.426 104.626 4.85C104.686 4.61 104.782 4.478 104.914 4.454C105.046 4.43 105.172 4.442 105.292 4.49C105.472 4.55 105.586 4.67 105.634 4.85C105.682 5.03 105.688 5.186 105.652 5.318ZM104.932 15.002C104.932 15.134 104.914 15.314 104.878 15.542C104.854 15.758 104.806 15.962 104.734 16.154C104.674 16.346 104.584 16.502 104.464 16.622C104.356 16.742 104.218 16.766 104.05 16.694C103.954 16.634 103.858 16.52 103.762 16.352C103.666 16.184 103.624 16.028 103.636 15.884C103.66 15.596 103.72 15.314 103.816 15.038C103.912 14.762 104.038 14.594 104.194 14.534C104.266 14.51 104.344 14.51 104.428 14.534C104.524 14.558 104.608 14.6 104.68 14.66C104.752 14.708 104.812 14.768 104.86 14.84C104.908 14.9 104.932 14.954 104.932 15.002Z" fill="#94A3B8"/>
<ellipse cx="79.5001" cy="76" rx="47.0025" ry="47" fill="#E8EAF2"/>
<path d="M72.7342 69.7556C72.7342 71.7393 71.4109 73.1792 69.9679 73.1792C68.5249 73.1792 67.2015 71.7393 67.2015 69.7556C67.2015 67.7719 68.5249 66.3319 69.9679 66.3319C71.4109 66.3319 72.7342 67.7719 72.7342 69.7556Z" fill="#64748B" stroke="#64748B" stroke-width="1.04079"/>
<path d="M92.4549 69.7556C92.4549 71.7393 91.1316 73.1792 89.6886 73.1792C88.2456 73.1792 86.9223 71.7393 86.9223 69.7556C86.9223 67.7719 88.2456 66.3319 89.6886 66.3319C91.1316 66.3319 92.4549 67.7719 92.4549 69.7556Z" fill="#64748B" stroke="#64748B" stroke-width="1.04079"/>
<path d="M71.4995 77C72.4995 78.3333 75.4995 81 80.4995 81C85.4995 81 88.6662 78.3333 89.4995 77" stroke="#64748B" stroke-width="2" stroke-linecap="round"/>
<path fill-rule="evenodd" clip-rule="evenodd" d="M23.7516 62.8912C22.6279 62.2492 19.8549 59.0871 19.277 57.3535C18.7908 55.895 18.9591 54.9726 19.1212 54.0849C19.1998 53.6538 19.277 53.2308 19.277 52.7586C19.277 51.3139 14.9042 49.3884 12.4964 52.9999C10.7964 55.5497 11.1894 57.9898 11.6362 59.6313C5.46766 59.6677 0.496208 61.641 0.496208 70.4654C0.496208 77.6997 5.56292 81.3001 11.813 81.3001C14.6354 81.3001 17.2165 80.3109 19.1986 78.6749L20.6498 79.131C22.453 79.6976 24.332 79.9859 26.2221 79.9859C27.1854 79.9859 27.9778 79.2268 28.019 78.2643L28.5021 66.996C28.6091 64.4998 26.4269 62.5175 23.9524 62.8632L23.7516 62.8912Z" fill="#E8EAF2"/>
<path fill-rule="evenodd" clip-rule="evenodd" d="M135.254 62.9505C136.377 62.3088 139.148 59.1486 139.726 57.4161C140.212 55.9584 140.044 55.0366 139.882 54.1494C139.803 53.7185 139.726 53.2958 139.726 52.8239C139.726 51.3801 144.096 49.4557 146.502 53.0651C148.202 55.6136 147.809 58.0525 147.362 59.6929C153.527 59.7293 158.496 61.7013 158.496 70.5206C158.496 77.7505 153.432 81.3488 147.186 81.3488C144.365 81.3488 141.785 80.36 139.804 78.7247L138.354 79.1805C136.552 79.7468 134.674 80.0349 132.785 80.0349C131.822 80.0349 131.03 79.2763 130.989 78.3144L130.506 67.0557C130.399 64.5595 132.582 62.5772 135.056 62.9228L135.254 62.9505Z" fill="#E8EAF2"/>
</svg>
