<svg width="201" height="204" viewBox="0 0 201 204" fill="none" xmlns="http://www.w3.org/2000/svg">
<circle cx="60" cy="110" r="18" fill="#CCD2DA"/>
<path d="M22.2851 162.024L40.0409 158.24L100.145 145.278C100.781 145.141 101.44 145.161 102.066 145.336L153.437 159.714C157.425 160.831 157.296 166.529 153.26 167.463L75.8059 185.388C72.9183 186.056 69.9019 185.909 67.0929 184.963L21.8424 169.727C17.9863 168.428 18.3056 162.872 22.2851 162.024Z" fill="#F1F5F9"/>
<ellipse cx="103.004" cy="119" rx="47.0025" ry="47" fill="#E2E8F0"/>
<path d="M83.4796 123.5C83.4796 125.224 82.2971 126.48 81 126.48C79.7029 126.48 78.5204 125.224 78.5204 123.5C78.5204 121.776 79.7029 120.52 81 120.52C82.2971 120.52 83.4796 121.776 83.4796 123.5Z" fill="#64748B" stroke="#64748B" stroke-width="1.04079"/>
<path d="M99.4796 123.5C99.4796 125.224 98.2971 126.48 97 126.48C95.7029 126.48 94.5204 125.224 94.5204 123.5C94.5204 121.776 95.7029 120.52 97 120.52C98.2971 120.52 99.4796 121.776 99.4796 123.5Z" fill="#64748B" stroke="#64748B" stroke-width="1.04079"/>
<path d="M85 129C85 130 86.8917 131.999 89.5 131.999C92.1083 131.999 93 130 93 129" stroke="#64748B" stroke-width="2"/>
<path d="M172.722 113.401C175.065 111.058 175.065 107.259 172.722 104.916L162.048 94.2421C159.705 91.8989 155.906 91.8989 153.562 94.2421L100.95 146.855C100.127 147.678 99.5611 148.722 99.3213 149.861L96.4749 163.382C95.5821 167.622 99.3416 171.382 103.582 170.489L117.103 167.643C118.242 167.403 119.286 166.837 120.109 166.014L172.722 113.401Z" fill="#CBD5E1"/>
<mask id="mask0_1151_45852" style="mask-type:alpha" maskUnits="userSpaceOnUse" x="96" y="92" width="79" height="79">
<path d="M172.368 113.048C174.516 110.9 174.516 107.417 172.368 105.27L161.694 94.5956C159.546 92.4478 156.064 92.4478 153.916 94.5956L101.304 147.208C100.549 147.963 100.03 148.92 99.8106 149.964L96.9642 163.485C96.1458 167.372 99.592 170.818 103.479 170L117 167.153C118.044 166.933 119.001 166.415 119.756 165.66L172.368 113.048Z" fill="#CBD5E1" stroke="white"/>
</mask>
<g mask="url(#mask0_1151_45852)">
<path d="M178.548 101.118L102.534 177.132" stroke="white" stroke-width="2"/>
<path d="M172.184 94.7544L96.1705 170.768" stroke="white" stroke-width="2"/>
<path d="M165.821 88.3901L89.8066 164.404" stroke="white" stroke-width="2"/>
</g>
<path fill-rule="evenodd" clip-rule="evenodd" d="M38 75C25.2975 75 15 64.7025 15 52C15 39.2975 25.2975 29 38 29C50.7025 29 61 39.2975 61 52C61 58.9894 57.8823 65.2507 52.9617 69.469C52.9868 69.5958 53 69.7277 53 69.8635V75.1365C53 76.5267 51.6167 77.4928 50.3115 77.0142L43.2051 74.4085C41.5326 74.7955 39.7902 75 38 75Z" fill="#F1F5F9"/>
<rect width="7.99132" height="9.87163" rx="3.99566" transform="matrix(-1 0 0 1 42.4189 55.9224)" fill="#64748B"/>
<circle cx="10.7247" cy="10.7247" r="10.7247" transform="matrix(-1 0 0 1 49 39)" fill="#CBD5E1"/>
<path d="M44.1251 59.4745V58.4995H32.9129V59.4745H44.1251Z" fill="#CBD5E1"/>
<path d="M42.889 61.8579L44.1251 59.4746H32.9129L33.9575 61.7989L42.889 61.8579Z" fill="#475569"/>
<path d="M65.8484 41.4032L70.0651 42.2944" stroke="#CBD5E1" stroke-width="3" stroke-linecap="round"/>
<path d="M51.876 26.2577L52.5447 22" stroke="#CBD5E1" stroke-width="3" stroke-linecap="round"/>
<path d="M60.968 31.371L65.4648 27.4865" stroke="#CBD5E1" stroke-width="3" stroke-linecap="round"/>
<circle cx="141" cy="136" r="18" fill="#E2E8F0"/>
</svg>
